<svg width="24" height="29" viewBox="0 0 24 29" fill="none" xmlns="http://www.w3.org/2000/svg">
<path d="M19.5379 27.3829C18.0227 28.8517 16.3684 28.6198 14.776 27.9241C13.0907 27.2129 11.5447 27.1819 9.76668 27.9241C7.54033 28.8826 6.36531 28.6043 5.03569 27.3829C-2.50916 19.6062 -1.39598 7.76323 7.16927 7.33033C9.25647 7.43856 10.7098 8.47443 11.9312 8.56719C13.7556 8.19613 15.5026 7.12934 17.4507 7.26849C19.7852 7.45402 21.5478 8.38166 22.7073 10.0514C17.8836 12.9426 19.0277 19.297 23.4494 21.0749C22.5682 23.3941 21.4241 25.6977 19.5224 27.3984L19.5379 27.3829ZM11.7766 7.23757C11.5447 3.78982 14.3431 0.945042 17.5589 0.666748C18.0073 4.65562 13.9411 7.62409 11.7766 7.23757Z" fill="white"/>
</svg>
