<svg width="26" height="29" viewBox="0 0 26 29" fill="none" xmlns="http://www.w3.org/2000/svg">
<g clip-path="url(#clip0_3141_635)">
<path d="M12.5009 14.0154L0.777237 26.2983C0.908893 26.7648 1.14548 27.1951 1.46892 27.5563C1.79236 27.9174 2.19408 28.1998 2.64338 28.3818C3.09268 28.5639 3.57766 28.6408 4.06125 28.6068C4.54484 28.5727 5.01423 28.4285 5.43355 28.1852L18.6249 20.6723L12.5009 14.0154Z" fill="#EA4335"/>
<path d="M24.3556 11.9275L18.6512 8.66016L12.2302 14.2948L18.6773 20.6546L24.3383 17.4223C24.8398 17.1597 25.2598 16.7648 25.5529 16.2805C25.846 15.7962 26.001 15.2409 26.001 14.6749C26.001 14.1088 25.846 13.5535 25.5529 13.0692C25.2598 12.5849 24.8398 12.19 24.3383 11.9274L24.3556 11.9275Z" fill="#FBBC04"/>
<path d="M0.777224 2.99048C0.706403 3.25246 0.671128 3.52278 0.672348 3.79417V25.4944C0.673047 25.7657 0.70829 26.0358 0.777224 26.2982L12.9028 14.3298L0.777224 2.99048Z" fill="#4285F4"/>
<path d="M12.5883 14.6444L18.6511 8.66021L5.47728 1.11228C4.98162 0.822011 4.41788 0.668284 3.84348 0.666754C2.41806 0.663984 1.16488 1.61005 0.777237 2.98185L12.5883 14.6444Z" fill="#34A853"/>
</g>
<defs>
<clipPath id="clip0_3141_635">
<rect width="25.34" height="28" fill="white" transform="translate(0.666672 0.666748)"/>
</clipPath>
</defs>
</svg>
