<svg width="470" height="398" viewBox="0 0 470 398" fill="none" xmlns="http://www.w3.org/2000/svg">
<g clip-path="url(#clip0_2927_147873)">
<path d="M470 0.914062H0V397.189H470V0.914062Z" fill="#E9F6F3"/>
<path d="M31.3034 303.816C31.3034 303.816 28.441 325.652 40.2995 331.119C56.5197 338.596 151.73 358.243 128.6 373.172C115.543 381.6 135.266 393.044 198.862 397.258C262.459 401.472 371.586 384.961 334.888 360.531C298.19 336.101 447.707 354.632 438.599 303.816H31.3034Z" fill="#CFDDF9"/>
<path d="M103.005 303.551C103.005 303.551 54.9698 164.364 89.5374 133.37C112.642 112.654 137.133 158.321 166.364 134.162C192.387 112.654 156.106 58.4713 199.527 44.2972C245.166 29.3987 282.557 150.052 320.852 133.37C367.32 113.127 413.544 154.221 373.598 303.816L103.005 303.551Z" fill="#D4E8FF"/>
<path d="M65.4216 291.617C64.6151 288.85 63.8173 285.983 63.0502 283.096L64.9407 282.467C65.7028 285.335 66.4953 288.184 67.2965 290.932L65.4216 291.617ZM403.617 288.044L401.659 287.774C401.984 284.828 402.293 281.862 402.577 278.958L404.537 279.198C404.253 282.113 403.943 285.089 403.617 288.044ZM60.8729 274.514C60.1825 271.661 59.5131 268.754 58.883 265.875L60.7985 265.35C61.4249 268.211 62.0903 271.1 62.7764 273.936L60.8729 274.514ZM405.345 270.337L403.381 270.129C403.631 267.172 403.862 264.198 404.068 261.289L406.034 261.463C405.827 264.383 405.595 267.369 405.345 270.337ZM57.0809 257.186C56.5113 254.279 55.9693 251.339 55.4699 248.449L57.4064 248.03C57.9026 250.902 58.4412 253.824 59.0074 256.713L57.0809 257.186ZM406.6 252.577L404.632 252.437C404.799 249.482 404.945 246.502 405.067 243.579L407.037 243.681C406.915 246.617 406.768 249.61 406.6 252.577ZM54.0565 239.669C53.618 236.726 53.2119 233.759 52.8496 230.849L54.803 230.545C55.1629 233.435 55.5663 236.382 56.0019 239.305L54.0565 239.669ZM407.338 234.778L405.367 234.714C405.444 231.746 405.497 228.762 405.524 225.845L407.497 225.868C407.469 228.798 407.415 231.796 407.338 234.778ZM51.86 221.994C51.5659 219.022 51.3101 216.033 51.0993 213.11L53.0652 212.932C53.2744 215.833 53.5284 218.8 53.8204 221.751L51.86 221.994ZM405.533 216.976C405.509 214.005 405.459 211.022 405.383 208.11L407.354 208.045C407.431 210.973 407.481 213.971 407.505 216.956L405.533 216.976ZM50.5821 204.201C50.4512 201.212 50.3645 198.21 50.3242 195.28L52.2963 195.246C52.3362 198.151 52.4222 201.128 52.552 204.093L50.5821 204.201ZM405.066 199.251C404.93 196.285 404.764 193.308 404.571 190.405L406.538 190.241C406.732 193.161 406.899 196.155 407.035 199.138L405.066 199.251ZM52.315 186.395L50.3431 186.349C50.3981 183.352 50.504 180.349 50.6579 177.425L52.6268 177.555C52.4742 180.451 52.3693 183.425 52.315 186.395ZM403.887 181.576C403.623 178.61 403.325 175.648 403 172.772L404.957 172.495C405.284 175.39 405.584 178.372 405.849 181.358L403.887 181.576ZM53.2521 168.739L51.2897 168.518C51.5577 165.532 51.8841 162.547 52.2605 159.647L54.2123 159.964C53.8403 162.833 53.5171 165.785 53.2521 168.739ZM401.896 164.001C401.485 161.054 401.035 158.118 400.557 155.275L402.495 154.866C402.977 157.732 403.431 160.691 403.845 163.661L401.896 164.001ZM168.64 163.689C165.9 163.205 163.917 161.809 161.171 159.396L162.418 157.685C164.824 159.793 166.561 161.057 168.85 161.493L168.64 163.689ZM175.483 158.435L173.726 157.431C174.629 155.451 175.427 152.704 176.099 149.266L178.025 149.737C177.308 153.412 176.477 156.257 175.483 158.435ZM155.383 153.063C153.812 151.103 152.133 148.849 150.25 146.17L151.8 144.804C153.656 147.445 155.308 149.664 156.851 151.587L155.383 153.063ZM55.5298 151.252L53.5935 150.831C54.1045 147.883 54.6825 144.944 55.3118 142.095L57.2264 142.625C56.6051 145.438 56.0342 148.34 55.5298 151.252ZM398.963 146.606C398.379 143.689 397.749 140.797 397.09 138.011L398.997 137.446C399.662 140.259 400.298 143.178 400.887 146.123L398.963 146.606ZM179.353 140.85L177.396 140.568C177.699 137.932 177.971 135.045 178.226 131.743L180.191 131.934C179.933 135.267 179.659 138.183 179.353 140.85ZM145.42 139.055C143.816 136.63 142.154 134.068 140.721 131.856L142.317 130.56C143.747 132.767 145.407 135.324 147.005 137.741L145.42 139.055ZM289.814 138.873C288.278 138.873 286.771 138.359 285.335 137.346L286.386 135.477C288.543 137.002 290.666 137.006 292.957 135.789L293.806 137.783C292.451 138.506 291.108 138.873 289.814 138.873ZM59.3244 134.115L57.4384 133.469C58.2221 130.6 59.0818 127.746 59.9938 124.987L61.8433 125.754C60.9443 128.473 60.0969 131.286 59.3244 134.115ZM300.255 132.01L298.806 130.511C300.302 128.698 301.905 126.461 303.707 123.673L305.305 124.967C303.456 127.828 301.804 130.131 300.255 132.01ZM279.727 130.491C278.45 128.286 277.185 125.69 275.86 122.554L277.642 121.609C278.93 124.656 280.153 127.168 281.382 129.29L279.727 130.491ZM394.911 129.513C394.117 126.652 393.269 123.835 392.391 121.141L394.244 120.385C395.133 123.112 395.991 125.962 396.795 128.858L394.911 129.513ZM136.047 124.657C134.242 121.895 132.739 119.629 131.314 117.523L132.886 116.189C134.317 118.305 135.827 120.581 137.638 123.353L136.047 124.657ZM180.785 123.015L178.817 122.872C178.966 120.285 179.118 117.377 179.282 113.982L181.251 114.101C181.087 117.504 180.935 120.42 180.785 123.015ZM64.7995 117.579L62.9952 116.687C64.0779 113.941 65.2317 111.245 66.4576 108.609L68.2066 109.63C67.0002 112.224 65.8651 114.877 64.7995 117.579ZM309.823 117.578L308.175 116.365C309.577 113.979 311.024 111.451 312.49 108.897L314.149 110.091C312.68 112.652 311.231 115.182 309.823 117.578ZM272.685 114.312C271.792 111.803 270.869 109.066 269.863 105.944L271.718 105.195C272.716 108.293 273.632 111.009 274.517 113.494L272.685 114.312ZM389.49 112.935C388.43 110.169 387.308 107.483 386.156 104.95L387.914 103.948C389.085 106.524 390.225 109.254 391.302 112.064L389.49 112.935ZM126.445 110.525C124.655 108.038 122.989 105.824 121.352 103.757L122.828 102.292C124.486 104.385 126.171 106.625 127.981 109.14L126.445 110.525ZM181.661 105.193L179.691 105.081C179.824 102.131 179.956 99.1792 180.097 96.1756L182.067 96.2913C181.926 99.2935 181.794 102.244 181.661 105.193ZM318.473 102.633L316.827 101.415C318.475 98.6231 319.949 96.2081 321.333 94.0319L322.94 95.3129C321.569 97.4679 320.108 99.8622 318.473 102.633ZM72.1178 102.009L70.4554 100.821C72.0052 98.103 73.6032 95.6485 75.2049 93.5252L76.7116 94.9502C75.1664 96.9988 73.6208 99.3739 72.1178 102.009ZM267.229 97.5167C266.325 94.5489 265.438 91.5793 264.689 89.066L266.56 88.3673C267.308 90.8771 268.194 93.842 269.096 96.8034L267.229 97.5167ZM115.929 97.3619C113.914 95.1643 111.931 93.223 110.038 91.5919L111.241 89.8417C113.194 91.5248 115.235 93.5226 117.305 95.7796L115.929 97.3619ZM382.327 97.2677C380.914 94.6855 379.432 92.2433 377.923 90.0091L379.496 88.6768C381.044 90.9685 382.562 93.4705 384.009 96.1138L382.327 97.2677ZM82.2437 88.9422L81.0474 87.1863C83.4026 85.1746 85.854 83.7238 88.3331 82.8743L88.9103 84.986C86.6555 85.7587 84.4125 87.0896 82.2437 88.9422ZM327.697 88.2667L326.165 86.8761C328.014 84.3207 329.767 82.1217 331.523 80.1537L332.918 81.7145C331.211 83.6282 329.503 85.7713 327.697 88.2667ZM182.509 87.3984L180.54 87.2671C180.711 84.0571 180.88 81.1421 181.058 78.3552L183.025 78.5129C182.848 81.2906 182.679 84.1973 182.509 87.3984ZM103.518 86.936C101.056 85.5646 98.6357 84.6893 96.3226 84.3346L96.5903 82.1467C99.1164 82.5343 101.743 83.4805 104.396 84.9591L103.518 86.936ZM372.849 83.3661C370.951 81.188 368.984 79.2652 367.006 77.6517L368.167 75.8667C370.235 77.5528 372.285 79.557 374.261 81.8237L372.849 83.3661ZM262.173 80.6155C261.192 77.3298 260.383 74.6508 259.629 72.1841L261.494 71.4682C262.251 73.9399 263.061 76.6241 264.043 79.9151L262.173 80.6155ZM338.82 76.0775L337.69 74.268C340.116 72.368 342.566 70.9606 344.972 70.0856L345.581 72.1858C343.361 72.9936 341.086 74.3029 338.82 76.0775ZM360.34 73.3722C357.898 72.2185 355.425 71.5046 352.991 71.2501L353.175 69.0511C355.809 69.3269 358.478 70.096 361.107 71.3375L360.34 73.3722ZM183.656 69.6467L181.692 69.4514C181.938 66.3529 182.205 63.3605 182.487 60.5572L184.447 60.804C184.167 63.5903 183.901 66.5652 183.656 69.6467ZM257.005 63.7848C256.052 60.8064 255.153 58.0836 254.259 55.4613L256.101 54.6734C257.001 57.3101 257.903 60.0468 258.861 63.04L257.005 63.7848ZM185.451 51.9983L183.499 51.6824C183.898 48.5905 184.336 45.617 184.802 42.8448L186.74 43.2529C186.279 45.9949 185.846 48.9371 185.451 51.9983ZM251.329 47.2157C250.269 44.3613 249.201 41.6304 248.154 39.0988L249.943 38.1707C251.001 40.7286 252.08 43.4867 253.15 46.3678L251.329 47.2157ZM188.415 34.6113L186.502 34.076C187.189 30.9923 187.948 28.0876 188.756 25.4425L190.622 26.1569C189.832 28.7432 189.089 31.5876 188.415 34.6113ZM244.651 31.1733C243.354 28.4377 242.029 25.8697 240.713 23.5407L242.379 22.3599C243.722 24.7361 245.072 27.3529 246.393 30.1377L244.651 31.1733ZM193.584 18.0662L191.815 17.0887C193.11 14.1507 194.546 11.5529 196.084 9.36719L197.633 10.7337C196.18 12.7988 194.818 15.2657 193.584 18.0662ZM236.192 16.3783C234.469 13.9593 232.69 11.8165 230.906 10.0094L232.229 8.37137C234.092 10.2584 235.945 12.4889 237.734 15.0011L236.192 16.3783ZM203.135 5.00995L202.072 3.14988C204.408 1.47546 206.982 0.386697 209.723 -0.0859375L210.023 2.09666C207.556 2.52227 205.239 3.50242 203.135 5.00995ZM224.683 5.00862C222.385 3.62185 219.992 2.67371 217.57 2.1907L217.915 0.0164934C220.545 0.540784 223.136 1.56641 225.619 3.06489L224.683 5.00862Z" fill="#DCE6FF"/>
<path d="M417.305 241.745C400.938 239.029 402.42 279.852 379.09 279.852C357.76 279.852 346.346 188.645 322.939 207.195C228.839 281.771 302.055 154.867 238.781 152.386C210.17 151.265 191.106 185.424 184.075 245.905C173.884 300.582 150.25 204.202 125.928 213.163C110.469 218.859 112.24 279.852 90.9098 279.852C67.5804 279.852 69.1172 245.524 52.7507 248.241C35.1295 251.165 31 304.389 31 304.389H439C439 304.389 434.926 244.67 417.305 241.745Z" fill="#EEF7FF"/>
<path d="M401.621 284.59C386.564 283.43 389.021 293.909 367.559 293.909C347.936 293.909 348.475 270.424 335.343 265.433C311.161 256.241 291.224 302.762 281.849 279.414C264.042 217.462 212.109 186.394 188.15 279.414C178.774 302.762 156.85 261.101 134.655 265.433C120.994 268.099 122.063 293.909 102.44 293.909C80.9774 293.909 83.4344 283.43 68.3775 284.59C52.1663 285.839 47.3242 304.387 47.3242 304.387H422.674C422.674 304.387 417.832 285.839 401.621 284.59Z" fill="#DCE6FF"/>
<path d="M363.488 96.25H126.002V315.287H363.488V96.25Z" fill="#7689D6"/>
<path d="M363.488 96.25H126.002V126.249H363.488V96.25Z" fill="#F49F9F"/>
<path d="M347.962 96.25H110.477V285.288H347.962V96.25Z" fill="#FCB4B4"/>
<path d="M347.962 126.25H110.477V315.288H347.962V126.25Z" fill="#8A9EDD"/>
<path d="M152.639 146.25H126.002V180.564H152.639V146.25Z" fill="#D4E8FF"/>
<path d="M182.606 146.25H155.969V180.564H182.606V146.25Z" fill="#D4E8FF"/>
<path d="M212.57 146.25H185.934V180.564H212.57V146.25Z" fill="#D4E8FF"/>
<path d="M242.537 146.25H215.9V180.564H242.537V146.25Z" fill="#D4E8FF"/>
<path d="M272.504 146.25H245.867V180.564H272.504V146.25Z" fill="#D4E8FF"/>
<path d="M302.471 146.25H275.834V180.564H302.471V146.25Z" fill="#D4E8FF"/>
<path d="M332.438 146.25H305.801V180.564H332.438V146.25Z" fill="#D4E8FF"/>
<path d="M152.639 184.492H126.002V218.806H152.639V184.492Z" fill="#D4E8FF"/>
<path d="M182.606 184.492H155.969V218.806H182.606V184.492Z" fill="#D4E8FF"/>
<path d="M212.57 184.492H185.934V218.806H212.57V184.492Z" fill="#D4E8FF"/>
<path d="M242.537 184.492H215.9V218.806H242.537V184.492Z" fill="#D4E8FF"/>
<path d="M272.504 184.492H245.867V218.806H272.504V184.492Z" fill="#D4E8FF"/>
<path d="M302.471 184.492H275.834V218.806H302.471V184.492Z" fill="#D4E8FF"/>
<path d="M332.438 184.492H305.801V218.806H332.438V184.492Z" fill="#D4E8FF"/>
<path d="M152.639 222.734H126.002V257.048H152.639V222.734Z" fill="#D4E8FF"/>
<path d="M182.606 222.734H155.969V257.048H182.606V222.734Z" fill="#D4E8FF"/>
<path d="M212.57 222.734H185.934V257.048H212.57V222.734Z" fill="#D4E8FF"/>
<path d="M242.537 222.734H215.9V257.048H242.537V222.734Z" fill="#D4E8FF"/>
<path d="M272.504 222.734H245.867V257.048H272.504V222.734Z" fill="#D4E8FF"/>
<path d="M302.471 222.734H275.834V257.048H302.471V222.734Z" fill="#D4E8FF"/>
<path d="M332.438 222.734H305.801V257.048H332.438V222.734Z" fill="#D4E8FF"/>
<path d="M152.639 260.973H126.002V295.287H152.639V260.973Z" fill="#D4E8FF"/>
<path d="M182.606 260.973H155.969V295.287H182.606V260.973Z" fill="#D4E8FF"/>
<path d="M212.57 260.973H185.934V295.287H212.57V260.973Z" fill="#D4E8FF"/>
<path d="M242.537 260.973H215.9V295.287H242.537V260.973Z" fill="#D4E8FF"/>
<path d="M272.504 260.973H245.867V295.287H272.504V260.973Z" fill="#D4E8FF"/>
<path d="M302.471 260.973H275.834V295.287H302.471V260.973Z" fill="#D4E8FF"/>
<path d="M332.438 260.973H305.801V295.287H332.438V260.973Z" fill="#D4E8FF"/>
<path d="M139.32 119.217C142.735 119.217 145.504 115.65 145.504 111.251C145.504 106.852 142.735 103.285 139.32 103.285C135.905 103.285 133.137 106.852 133.137 111.251C133.137 115.65 135.905 119.217 139.32 119.217Z" fill="#7689D6"/>
<path d="M146.851 78.4844C133.998 79.0219 137.041 97.7946 136.758 108.849C135.223 111.391 136.787 115.438 139.32 115.334C141.852 115.438 143.418 111.391 141.882 108.849V91.4861C141.882 87.956 144.111 85.084 146.851 85.084C151.925 85.4289 152.033 91.1477 151.821 96.2498H156.944C157.768 87.3527 154.525 78.6488 146.851 78.4844Z" fill="#8A9EDD"/>
<path d="M140.969 163.406L147.295 155.257C147.75 154.67 147.75 153.718 147.295 153.132C146.839 152.545 146.101 152.545 145.645 153.132L139.319 161.281L132.993 153.132C132.538 152.545 131.799 152.545 131.344 153.132C130.888 153.718 130.888 154.67 131.344 155.257L137.67 163.406L131.344 171.555C130.888 172.142 130.888 173.093 131.344 173.68C131.571 173.973 131.87 174.12 132.168 174.12C132.467 174.12 132.765 173.973 132.993 173.68L139.319 165.531L145.645 173.68C145.873 173.973 146.172 174.12 146.47 174.12C146.769 174.12 147.067 173.973 147.295 173.68C147.75 173.093 147.75 172.142 147.295 171.555L140.969 163.406Z" fill="#EB5648"/>
<path d="M228.982 119.217C232.397 119.217 235.166 115.65 235.166 111.251C235.166 106.852 232.397 103.285 228.982 103.285C225.567 103.285 222.799 106.852 222.799 111.251C222.799 115.65 225.567 119.217 228.982 119.217Z" fill="#7689D6"/>
<path d="M236.513 78.4844C223.661 79.0219 226.703 97.7946 226.42 108.848C224.885 111.391 226.449 115.438 228.982 115.334C231.514 115.438 233.08 111.391 231.544 108.849V91.4861C231.544 87.956 233.773 85.084 236.513 85.084C241.587 85.4289 241.695 91.1477 241.483 96.2498H246.606C247.43 87.3529 244.187 78.6488 236.513 78.4844Z" fill="#8A9EDD"/>
<path d="M273.812 119.217C277.227 119.217 279.996 115.65 279.996 111.251C279.996 106.852 277.227 103.285 273.812 103.285C270.397 103.285 267.629 106.852 267.629 111.251C267.629 115.65 270.397 119.217 273.812 119.217Z" fill="#7689D6"/>
<path d="M281.343 78.4844C268.491 79.0219 271.533 97.7946 271.251 108.849C269.715 111.391 271.28 115.438 273.812 115.334C276.344 115.438 277.91 111.391 276.374 108.848V91.4861C276.374 87.956 278.603 85.084 281.344 85.084C286.417 85.4289 286.526 91.1477 286.313 96.2498H291.436C292.26 87.3529 289.017 78.6488 281.343 78.4844Z" fill="#8A9EDD"/>
<path d="M353.914 126.25H352.361V315.288H353.914V126.25Z" fill="#B8D2FF"/>
<path d="M359.088 126.25H357.535V315.288H359.088V126.25Z" fill="#B8D2FF"/>
<path d="M367.874 148.727H358.312V177.526H367.874V148.727Z" fill="#EB5648"/>
<path d="M362.698 170.09H353.137V198.889H362.698V170.09Z" fill="#FCB4B4"/>
<path d="M139.223 226.656L141.86 236.686L150.079 236.554L143.489 242.884L146.126 252.914L139.417 246.796L132.827 253.126L135.27 243.016L128.561 236.898L136.78 236.767L139.223 226.656Z" fill="#8A9EDD"/>
<path d="M171.209 30.3884C171.209 30.3884 172.748 26.5586 177.439 27.6893C182.13 28.82 183.237 36.4883 184.829 39.9789C188.202 47.3726 189.212 55.2292 187.46 59.0035C185.514 63.1951 181.217 61.556 174.942 60.8044C168.245 60.0024 165.439 52.5146 169.605 42.2193L171.209 30.3884Z" fill="#C92828"/>
<path d="M173.154 48.1914C171.319 51.6564 170.148 68.5515 170.11 69.8644C167.952 69.6591 162.767 69.1655 160.556 68.9549C159.932 62.77 166.297 50.0864 172.104 48.5837C172.104 48.5817 172.104 48.5817 172.104 48.5817C172.757 48.2956 173.154 48.1914 173.154 48.1914Z" fill="#3A72AA"/>
<path d="M145.952 141.333L155.279 141.201C155.255 139.28 154.858 135.402 155.154 133.211C155.154 133.211 151.128 133.88 151.128 133.88C151.239 134.933 151.487 137.216 150.131 137.762C148.373 138.47 146.46 138.253 145.363 139.994C145.079 140.58 145.415 141.34 145.952 141.333Z" fill="#F99370"/>
<path d="M155.552 140.04C155.517 140.447 155.434 140.843 155.279 141.201L145.86 141.334C145.402 141.341 145.066 140.765 145.213 140.206C145.559 138.9 146.785 136.995 151.124 136.641C151.124 136.641 152.605 137.187 155.029 136.586C155.029 136.586 155.694 138.391 155.552 140.04Z" fill="#1D3F70"/>
<path d="M147.982 139.738C147.908 139.738 147.837 139.681 147.806 139.587C147.452 138.495 146.827 138.169 146.8 138.155C146.3 137.176 147.726 137.858 148.158 139.398C148.213 139.555 148.115 139.742 147.982 139.738Z" fill="#E8C0A6"/>
<path d="M149.463 139.485C149.382 139.485 149.307 139.419 149.281 139.315C148.965 138.049 148.101 137.474 148.092 137.468C147.637 136.328 149.295 137.532 149.644 139.164C149.685 139.319 149.589 139.488 149.463 139.485Z" fill="#E8C0A6"/>
<path d="M151.147 139.195C151.069 139.195 150.995 139.133 150.967 139.033C150.6 137.719 149.771 137.012 149.762 137.005C149.409 135.809 150.918 137.244 151.326 138.866C151.373 139.022 151.276 139.198 151.147 139.195Z" fill="#E8C0A6"/>
<path d="M145.218 140.185L155.552 140.039C155.518 140.446 155.434 140.842 155.279 141.2L145.86 141.333C145.396 141.341 145.058 140.747 145.218 140.185Z" fill="#395B96"/>
<path d="M175.501 95.4596C170.91 95.211 162.913 91.9538 159.463 99.4779C155.686 107.696 156.611 125.129 156.993 133.553C151.953 135.644 149.243 133.553 149.243 133.553C147.096 116.307 140.024 77.0248 163.67 82.4752C163.67 82.4741 179.528 82.4741 179.528 82.4741C182.18 89.4389 179.809 95.3432 175.501 95.4596Z" fill="#3A72AA"/>
<path d="M157.137 141.333L166.465 141.201C166.441 139.28 166.044 135.402 166.34 133.211C166.339 133.211 162.313 133.881 162.313 133.881C162.425 134.933 162.704 137.217 161.316 137.762C159.555 138.455 157.646 138.253 156.549 139.994C156.264 140.58 156.601 141.34 157.137 141.333Z" fill="#F99370"/>
<path d="M166.738 140.04C166.703 140.447 166.619 140.843 166.464 141.201L157.046 141.334C156.588 141.341 156.251 140.765 156.398 140.206C156.745 138.9 157.97 136.995 162.309 136.641C162.309 136.641 163.791 137.187 166.215 136.586C166.215 136.586 166.88 138.391 166.738 140.04Z" fill="#1D3F70"/>
<path d="M159.168 139.738C159.093 139.738 159.022 139.682 158.992 139.587C158.637 138.495 158.012 138.169 157.986 138.155C157.486 137.176 158.911 137.858 159.344 139.398C159.398 139.555 159.301 139.742 159.168 139.738Z" fill="#E8C0A6"/>
<path d="M160.648 139.485C160.567 139.485 160.493 139.419 160.466 139.315C160.15 138.049 159.287 137.474 159.278 137.468C158.822 136.328 160.481 137.532 160.83 139.164C160.871 139.319 160.775 139.488 160.648 139.485Z" fill="#E8C0A6"/>
<path d="M162.334 139.196C162.256 139.196 162.183 139.133 162.155 139.033C161.787 137.719 160.958 137.012 160.95 137.005C160.596 135.809 162.105 137.244 162.514 138.866C162.56 139.022 162.463 139.198 162.334 139.196Z" fill="#E8C0A6"/>
<path d="M156.404 140.185L166.738 140.039C166.703 140.446 166.619 140.842 166.464 141.2L157.046 141.333C156.581 141.341 156.243 140.747 156.404 140.185Z" fill="#395B96"/>
<path d="M164.961 82.4727L163.605 95.2086C157.676 98.217 157.277 106.467 156.736 115.514C153.99 101.537 154.2 87.1944 164.961 82.4727Z" fill="#23659B"/>
<path d="M181.476 96.0483C176.671 99.8585 171.873 95.701 168.494 104.489C165.767 112.183 167.296 126.886 168.045 133.552C163.005 135.642 160.295 133.552 160.295 133.552C157.307 118.675 150.472 84.1017 169.785 82.4732C175.074 82.2562 182.023 82.3158 186.697 81.9531C186.698 81.9529 187.996 90.8787 181.476 96.0483Z" fill="#3A72AA"/>
<path d="M186.791 78.4356C187.2 82.2034 186.606 86.5841 186.606 86.5841C180.363 84.0273 174.687 83.7909 165.203 82.0844C171.193 58.9733 157.32 75.1441 173.154 48.1914C173.192 48.1954 177.039 48.6442 177.074 48.647C181.526 52.9608 184.394 58.6797 186.791 78.4356Z" fill="#3A72AA"/>
<path d="M165.063 64.6783C164.971 64.679 164.896 64.5752 164.905 64.4567C165.221 61.0809 167.997 56.7049 168.362 56.9387C168.611 57.3513 165.409 60.9758 165.221 64.4916C165.214 64.598 165.145 64.6783 165.063 64.6783Z" fill="#23659B"/>
<path d="M148.466 83.7948H169.454L165.275 63.9766H144.414L148.466 83.7948Z" fill="#163260"/>
<path d="M169.455 83.6953H148.467V85.041H169.455V83.6953Z" fill="#234270"/>
<path d="M164.961 63.9766H165.712L169.805 83.6967H179.765V85.0425H169.106V83.8387L164.961 63.9766Z" fill="#0B274F"/>
<path d="M183.975 52.4838C188.813 57.1552 191.397 65.562 190.119 73.2067C189.63 77.501 187.526 81.5852 184.236 82.8007C182.612 83.6375 175.034 84.9835 175.387 81.5185C175.507 80.6872 176.079 80.381 176.634 80.1591C177.547 79.7441 178.489 79.2856 179.36 78.7757C180.92 77.7326 182.925 76.7553 183.265 74.4992C183.988 69.2309 182.313 64.0805 179.257 60.6414C179.262 60.6456 179.242 60.6257 179.288 60.6679C175.146 56.6938 179.809 48.5599 183.975 52.4838Z" fill="#F99370"/>
<path d="M186.875 81.8619C184.412 83.2787 182.079 83.7136 180.285 83.7973C180.285 83.7973 180.699 80.3495 178.765 78.9292C189.66 68.2632 174.1 63.7742 177.088 48.1016C188.77 48.3704 200.831 71.1801 186.875 81.8619Z" fill="#3A72AA"/>
<path d="M170.766 83.6977C170.766 83.6977 171.7 79.4875 177.281 79.9725L178.449 83.6977H170.766Z" fill="#F99370"/>
<path d="M181.58 83.6776C180.782 83.7919 180.285 83.7941 180.285 83.7941C180.285 83.7941 180.699 80.3464 178.766 78.9261C178.766 78.9261 179.242 78.5276 179.863 77.8203C179.863 77.8203 181.983 79.8252 181.58 83.6776Z" fill="#23659B"/>
<path d="M179.764 78.4128C179.623 78.417 179.548 78.1715 179.66 78.0536C184.498 72.5003 182.128 66.6219 179.251 62.8143C179.109 62.6276 179.345 62.336 179.483 62.5362C182.544 66.4771 184.865 72.9891 179.764 78.4128Z" fill="#23659B"/>
<path d="M181.476 83.701C180.571 83.0222 184.016 83.3609 186.637 81.7653C186.718 81.7226 186.811 81.7723 186.844 81.8767C186.877 81.9811 186.838 82.1008 186.757 82.1434C184.05 83.5739 181.511 83.7002 181.476 83.701Z" fill="#23659B"/>
<path d="M178.168 54.4077C178.057 55.4852 177.257 55.821 177.057 55.7638C174.247 54.217 176.246 59.102 175.09 59.5996C174.118 60.0179 174.002 58.3846 173.155 58.2952C171.924 58.1654 171.674 59.0285 171.242 58.5038C170.64 57.7733 172.097 56.4978 171.91 55.1905C171.779 54.2726 170.362 55.1951 170.381 53.3059C170.403 51.4503 172.052 48.6701 172.104 48.5842C172.104 48.5822 172.104 48.5822 172.104 48.5822C173.142 47.8365 175.401 48.1758 176.426 48.1919C176.442 48.059 177.089 48.101 177.089 48.101C177.089 48.101 177.541 47.9725 177.976 48.1851C178.19 49.6937 178.391 52.7902 178.168 54.4077Z" fill="#F4D4BE"/>
<path d="M173.248 46.394L173.154 48.1894C173.154 48.1894 173.023 49.9163 173.023 53.127C173.023 57.6405 173.889 57.1149 175.089 53.9619C175.749 52.2294 177.088 48.2404 177.088 48.2404C177.088 48.2404 177.082 47.0598 177.155 46.3359L173.248 46.394Z" fill="#F99370"/>
<path d="M177.919 41.2564C177.903 41.3418 177.884 41.4279 177.862 41.5107C177.778 41.4228 177.3 44.4103 177.126 46.688C175.45 47.9529 173.51 47.7849 173.178 47.6529C173.267 44.2829 173.487 39.24 175.501 38.3007C176.852 37.7479 178.284 39.4638 177.919 41.2564Z" fill="#E57D61"/>
<path d="M172.838 30.1555C167.776 29.3732 166.973 39.6665 170.413 43.4538L172.838 30.1555Z" fill="#C92828"/>
<path d="M178.807 37.4067C179.051 39.6544 179.067 42.2907 178.093 44.2282L178.091 44.2291C175.427 49.8402 166.615 46.2227 169.03 39.5694C169.384 38.7202 169.584 37.688 169.611 36.8124C169.69 27.6238 178.102 29.5521 178.807 37.4067Z" fill="#F99370"/>
<path d="M172.147 38.6049C171.906 38.2932 172.291 37.8124 172.525 38.1334C172.766 38.4451 172.381 38.9259 172.147 38.6049Z" fill="#C16256"/>
<path d="M169.922 38.9838C169.681 38.6721 170.067 38.1913 170.3 38.5123C170.542 38.824 170.156 39.3046 169.922 38.9838Z" fill="#C16256"/>
<path d="M171.247 41.5338C170.802 41.6252 170.157 41.4764 170.578 40.7888C170.974 40.2687 171.02 38.8605 171.02 38.8464C171.023 38.6815 171.226 38.6888 171.22 38.8561C171.218 38.9179 171.17 40.3777 170.72 40.9685C170.669 41.0356 170.616 41.1277 170.654 41.1848C170.76 41.3462 171.261 41.3729 171.549 41.1146C171.593 41.0742 171.656 41.0884 171.688 41.1466C171.762 41.4146 171.402 41.4725 171.247 41.5338Z" fill="#C16256"/>
<path d="M178.806 37.4086C179.05 39.6563 179.066 42.2925 178.092 44.2301L178.089 44.231C178.539 42.7784 178.37 39.9945 178.37 39.9945L177.749 38.9728C171.404 38.8633 170.471 32.6955 170.471 32.6955C173.259 27.8693 178.475 32.2277 178.806 37.4086Z" fill="#E57D61"/>
<path d="M170.957 31.9207C170.957 31.9207 171.901 37.9934 177.644 38.3609L179.183 36.3071C179.898 31.0207 175.02 25.6082 170.957 31.9207Z" fill="#C92828"/>
<path d="M180.121 38.0691C180.325 40.6402 177.803 40.9349 177.645 38.3585C177.441 35.7876 179.962 35.4927 180.121 38.0691Z" fill="#F99370"/>
<path d="M179.527 37.4033C179.527 37.403 179.527 37.403 179.527 37.4033C179.27 36.384 177.748 37.4724 178.396 37.5108C178.398 37.4657 179.073 36.945 179.283 37.3968C178.618 37.8011 178.397 39.3975 178.781 38.8814C178.782 38.8717 178.862 37.9626 179.385 37.6192C179.645 39.941 179.881 38.3302 179.527 37.4033Z" fill="#C16256"/>
<path d="M179.348 39.6042C179.437 39.9598 179.002 40.1327 178.92 39.7738C178.831 39.4183 179.266 39.2453 179.348 39.6042Z" fill="#F4D4BE"/>
<path d="M173.024 60.7811C173.032 61.5257 172.124 61.5257 172.133 60.7811C172.124 60.0365 173.033 60.0365 173.024 60.7811Z" fill="#23659B"/>
<path d="M172.149 64.8202C172.157 65.5648 171.249 65.5648 171.258 64.8202C171.249 64.0756 172.157 64.0756 172.149 64.8202Z" fill="#23659B"/>
<path d="M172.149 68.4571C172.157 69.2017 171.249 69.2017 171.258 68.4571C171.249 67.7122 172.157 67.7122 172.149 68.4571Z" fill="#23659B"/>
<path d="M156.834 130.66C156.916 132.465 156.991 133.554 156.991 133.554C151.951 135.645 149.241 133.554 149.241 133.554C149.241 133.554 149.1 132.649 148.883 131.087C148.943 131.126 152.113 133.133 156.834 130.66Z" fill="#23659B"/>
<path d="M168.044 133.552C163.003 135.643 160.294 133.552 160.294 133.552C160.294 133.552 160.11 132.716 159.824 131.273C159.824 131.273 162.618 133.135 167.78 131.273C167.932 132.7 168.044 133.552 168.044 133.552Z" fill="#23659B"/>
<path d="M171.069 83.654C170.077 83.6933 173.687 80.5029 174.764 81.2831C174.773 81.3957 174.709 81.4961 174.622 81.5074C172.591 81.7809 171.24 83.6458 171.069 83.654Z" fill="#E57D61"/>
<path d="M172.597 83.726C171.845 83.3121 174.183 82.603 175.34 82.1997C175.425 82.1765 175.51 82.2478 175.527 82.3584C175.545 82.469 175.49 82.577 175.404 82.5999C174.171 82.9271 172.722 83.7088 172.597 83.726Z" fill="#E57D61"/>
<path d="M172.974 37.5637C172.949 37.5637 172.925 37.5537 172.904 37.5328C172.271 36.8941 171.695 37.1016 171.67 37.1109C171.611 37.1336 171.548 37.0897 171.53 37.0129C171.512 36.9361 171.546 36.8555 171.605 36.8323C171.634 36.8211 172.313 36.5678 173.043 37.3034C173.092 37.3531 173.101 37.4445 173.063 37.5076C173.04 37.5445 173.007 37.5637 172.974 37.5637Z" fill="#C16256"/>
<path d="M169.658 37.9111C169.636 37.9111 169.614 37.903 169.595 37.8862C169.543 37.8412 169.529 37.7509 169.564 37.6844C169.579 37.6562 169.931 36.9952 170.517 37.0244C170.58 37.0275 170.628 37.095 170.626 37.1754C170.623 37.2557 170.571 37.3197 170.509 37.3149C170.048 37.2959 169.754 37.8416 169.751 37.8471C169.73 37.8888 169.694 37.9111 169.658 37.9111Z" fill="#C16256"/>
<path d="M172.097 42.9072C171.949 42.9072 171.82 42.8396 171.738 42.7027C171.563 42.4109 171.678 41.9303 172.001 41.6089C172.324 41.2875 172.714 41.2641 172.89 41.5559C173.064 41.8478 172.949 42.3284 172.626 42.6498C172.455 42.8206 172.264 42.9072 172.097 42.9072ZM172.529 41.6442C172.417 41.6442 172.275 41.7041 172.139 41.8389C171.905 42.0721 171.834 42.3875 171.917 42.5248C171.999 42.6621 172.254 42.6526 172.488 42.4197C172.722 42.1866 172.793 41.8712 172.711 41.7339C172.676 41.676 172.611 41.6442 172.529 41.6442Z" fill="#C16256"/>
<path d="M318.642 119.217C322.058 119.217 324.826 115.65 324.826 111.251C324.826 106.852 322.058 103.285 318.642 103.285C315.227 103.285 312.459 106.852 312.459 111.251C312.459 115.65 315.227 119.217 318.642 119.217Z" fill="#7689D6"/>
<path d="M326.173 78.4844C313.321 79.0219 316.364 97.7946 316.081 108.849C314.545 111.391 316.11 115.438 318.642 115.334C321.174 115.438 322.74 111.391 321.204 108.849V91.4861C321.204 87.956 323.433 85.084 326.174 85.084C331.248 85.4289 331.356 91.1477 331.143 96.2498H336.266C337.09 87.3529 333.847 78.6488 326.173 78.4844Z" fill="#8A9EDD"/>
<path d="M184.15 119.217C187.565 119.217 190.334 115.65 190.334 111.251C190.334 106.852 187.565 103.285 184.15 103.285C180.735 103.285 177.967 106.852 177.967 111.251C177.967 115.65 180.735 119.217 184.15 119.217Z" fill="#7689D6"/>
<path d="M191.681 78.4844C178.829 79.0219 181.871 97.7946 181.588 108.849C180.053 111.391 181.617 115.438 184.15 115.334C186.682 115.438 188.248 111.391 186.712 108.849V91.4861C186.712 87.956 188.941 85.084 191.681 85.084C196.755 85.4289 196.863 91.1477 196.651 96.2498H201.774C202.598 87.3527 199.355 78.6488 191.681 78.4844Z" fill="#8A9EDD"/>
<path d="M199.238 214.546C194.163 214.546 189.846 209.34 189.811 203.179C189.79 199.54 190.981 196.397 193.078 194.555C195.291 192.612 198.256 192.374 201.213 193.901C201.811 194.21 202.102 195.085 201.862 195.855C201.622 196.625 200.943 196.999 200.345 196.69C198.089 195.525 195.975 195.649 194.393 197.038C192.948 198.307 192.129 200.537 192.144 203.156C192.169 207.701 195.418 211.541 199.238 211.541C203.353 211.541 206.007 208.366 206.337 203.048C206.533 199.884 205.665 196.716 204.016 194.571C202.438 192.52 200.281 191.557 197.78 191.786C197.136 191.846 196.58 191.221 196.534 190.393C196.489 189.565 196.972 188.847 197.615 188.788C201.658 188.417 204.228 190.579 205.673 192.456C207.794 195.214 208.912 199.263 208.662 203.287C208.448 206.736 207.428 209.611 205.713 211.6C204.051 213.527 201.812 214.546 199.238 214.546Z" fill="#EB5648"/>
<path d="M317.369 176.034C317.042 176.034 316.727 175.856 316.504 175.539L309.54 165.619C309.107 165.004 309.145 164.053 309.622 163.497C310.1 162.94 310.837 162.988 311.27 163.603L317.184 172.027L326.837 151.502C327.171 150.792 327.888 150.565 328.439 150.995C328.99 151.425 329.166 152.349 328.832 153.059L318.367 175.311C318.176 175.716 317.847 175.982 317.48 176.028C317.443 176.032 317.406 176.034 317.369 176.034Z" fill="#EB5648"/>
<path d="M298.584 203.811L298.519 199.062L296.402 199.109C296.224 198.266 295.959 197.469 295.622 196.734L297.107 194.751L294.454 191.452L293.024 193.36C292.364 192.846 291.638 192.459 290.868 192.227L290.829 189.422L287.142 189.506L287.181 192.31C286.471 192.559 285.804 192.938 285.195 193.426L283.801 191.693L281.24 195.111L282.634 196.844C282.276 197.645 282.005 198.518 281.838 199.44L279.721 199.488L279.786 204.237L281.903 204.189C282.11 205.173 282.436 206.094 282.858 206.926L281.428 208.835L284.081 212.134L285.567 210.151C286.149 210.56 286.776 210.873 287.437 211.072L287.475 213.877L291.162 213.793L291.124 210.988C291.833 210.74 292.501 210.36 293.11 209.872L294.734 211.892L297.295 208.474L295.671 206.455C296.028 205.653 296.299 204.781 296.467 203.859L298.584 203.811ZM289.432 205.975C285.033 206.412 284.492 197.826 288.873 197.324C293.271 196.887 293.813 205.473 289.432 205.975Z" fill="#8A9EDD"/>
<path d="M199.252 241.392H169.286C168.641 241.392 168.119 240.719 168.119 239.889C168.119 239.06 168.641 238.387 169.286 238.387H199.252C199.896 238.387 200.419 239.06 200.419 239.889C200.419 240.719 199.896 241.392 199.252 241.392Z" fill="#EB5648"/>
<path d="M325.664 228.911H311.744C311.496 228.911 311.295 228.652 311.295 228.332C311.295 228.013 311.496 227.754 311.744 227.754H325.664C325.912 227.754 326.113 228.013 326.113 228.332C326.113 228.652 325.912 228.911 325.664 228.911Z" fill="#8A9EDD"/>
<path d="M325.664 232.751H311.744C311.496 232.751 311.295 232.492 311.295 232.172C311.295 231.853 311.496 231.594 311.744 231.594H325.664C325.912 231.594 326.113 231.853 326.113 232.172C326.113 232.492 325.912 232.751 325.664 232.751Z" fill="#8A9EDD"/>
<path d="M315.903 236.591H311.744C311.496 236.591 311.295 236.332 311.295 236.012C311.295 235.693 311.496 235.434 311.744 235.434H315.903C316.151 235.434 316.352 235.693 316.352 236.012C316.352 236.332 316.151 236.591 315.903 236.591Z" fill="#8A9EDD"/>
<path d="M311.897 240.678C311.897 240.678 311.292 240.305 311.217 239.122L313.28 237.574C313.28 237.574 312.639 239.936 311.897 240.678Z" fill="#F99370"/>
<path d="M293.543 261.989L293.734 261.952L293.949 261.907L294.386 261.811L295.271 261.607C295.863 261.464 296.455 261.307 297.045 261.143C298.226 260.822 299.395 260.454 300.536 260.032C301.673 259.609 302.796 259.154 303.835 258.603C304.354 258.329 304.855 258.036 305.32 257.722L305.66 257.483L305.982 257.236L306.102 257.145C306.139 257.121 306.176 257.084 306.214 257.053C306.29 256.987 306.369 256.915 306.448 256.83C306.766 256.5 307.096 256.038 307.408 255.511C307.72 254.981 308.019 254.384 308.297 253.749C308.855 252.477 309.341 251.067 309.785 249.614C310.227 248.158 310.612 246.646 310.962 245.111C311.14 244.344 311.306 243.57 311.462 242.792L311.688 241.623C311.761 241.237 311.833 240.833 311.896 240.467L311.903 240.427C312.04 239.634 312.649 239.133 313.265 239.308C313.802 239.461 314.166 240.078 314.16 240.759C314.154 241.64 314.129 242.466 314.089 243.315C314.049 244.16 313.999 245.003 313.935 245.848C313.803 247.537 313.614 249.227 313.358 250.928C313.102 252.63 312.763 254.337 312.276 256.06C312.031 256.922 311.747 257.788 311.395 258.659C311.039 259.529 310.62 260.407 310.058 261.265C309.919 261.479 309.767 261.692 309.607 261.901C309.525 262.005 309.447 262.11 309.358 262.211L309.227 262.364C309.183 262.416 309.139 262.466 309.104 262.503L308.655 262.984L308.202 263.433C307.596 264.01 306.985 264.522 306.37 264.996C305.756 265.472 305.138 265.904 304.518 266.31C303.898 266.714 303.277 267.104 302.649 267.452C301.396 268.159 300.137 268.792 298.867 269.371C298.231 269.657 297.592 269.925 296.949 270.184L295.977 270.562L295.483 270.741L295.23 270.829L294.954 270.92L294.943 270.924C293.048 271.551 291.117 270.081 290.63 267.64C290.143 265.198 291.284 262.711 293.179 262.083C293.299 262.044 293.424 262.012 293.543 261.989Z" fill="#F99370"/>
<path d="M285.901 270.832L285.571 271.285L285.252 271.712L284.609 272.547C284.178 273.099 283.747 273.645 283.307 274.183C282.423 275.254 281.522 276.304 280.592 277.331C279.658 278.355 278.689 279.343 277.667 280.3C277.155 280.778 276.627 281.245 276.073 281.698C275.518 282.151 274.937 282.586 274.288 282.986C273.965 283.186 273.625 283.379 273.253 283.555C273.158 283.599 273.068 283.643 272.968 283.684L272.82 283.745L272.746 283.775L272.683 283.797L272.182 283.966C272.016 284.025 271.847 284.07 271.677 284.115C271.507 284.159 271.339 284.207 271.169 284.245C270.826 284.312 270.487 284.388 270.142 284.424C268.768 284.611 267.376 284.518 266.055 284.151C264.734 283.791 263.479 283.194 262.333 282.399C261.76 282 261.213 281.554 260.691 281.069C260.431 280.824 260.175 280.572 259.928 280.303C259.804 280.167 259.682 280.03 259.561 279.886L259.379 279.665L259.179 279.412C258.732 278.847 258.726 277.923 259.165 277.347C259.536 276.86 260.108 276.78 260.545 277.11L260.685 277.216L260.986 277.443C261.098 277.524 261.213 277.604 261.329 277.682C261.561 277.838 261.799 277.986 262.039 278.124C262.522 278.398 263.016 278.632 263.515 278.821C264.511 279.204 265.524 279.411 266.513 279.422C267.007 279.433 267.496 279.387 267.976 279.3C268.455 279.218 268.926 279.094 269.385 278.916C269.616 278.839 269.841 278.726 270.066 278.629C270.178 278.576 270.289 278.513 270.399 278.457C270.51 278.4 270.621 278.344 270.729 278.274L271.054 278.079L271.095 278.054L271.123 278.033L271.178 277.991C271.213 277.966 271.255 277.929 271.294 277.9C271.454 277.77 271.63 277.613 271.811 277.439C272.539 276.732 273.327 275.815 274.075 274.833C274.83 273.85 275.564 272.788 276.291 271.707C277.02 270.628 277.733 269.514 278.43 268.381C278.781 267.816 279.131 267.25 279.473 266.679L279.982 265.823L280.234 265.398L280.469 264.993L280.479 264.975C281.65 262.954 283.871 262.54 285.439 264.048C287.007 265.557 287.329 268.417 286.158 270.437C286.078 270.575 285.99 270.709 285.901 270.832Z" fill="#F99370"/>
<path d="M313.825 257.979C312.949 261.906 309.64 266.376 306.141 269.021C302.996 271.399 299.31 273.107 296.075 273.891L295.612 272.441L292.07 261.339C292.07 261.339 301.077 259.515 304.594 256.31C306.753 254.341 309.964 247.138 311.342 242.734C311.458 242.358 311.563 242.003 311.652 241.672C311.652 241.672 312.615 242.38 314.145 241.729C314.145 241.729 314.209 242.14 314.289 242.86C314.586 245.467 315.127 252.133 313.825 257.979Z" fill="#1D3F70"/>
<path d="M285.18 261.516L283.185 278.745C282.508 279.657 281.658 280.551 280.69 281.39C278.212 283.531 274.953 285.295 271.812 285.966C271.81 285.966 271.808 285.969 271.806 285.969C270.595 286.227 269.402 286.324 268.278 286.218C264.371 285.849 261.377 282.43 260.14 280.768C259.737 280.225 259.52 279.869 259.52 279.869C260.712 279.101 260.942 277.445 260.942 277.445C261.243 277.609 261.542 277.754 261.835 277.882C271.265 282.041 277.078 269.642 279.614 265.743C282.229 261.725 285.18 261.516 285.18 261.516Z" fill="#1D3F70"/>
<path d="M280.689 281.39C278.211 283.531 274.952 285.295 271.811 285.966C278.312 283.405 280.024 275.703 280.024 275.703L280.689 281.39Z" fill="#163356"/>
<path d="M306.14 269.02C302.995 271.397 299.309 273.106 296.074 273.889L295.611 272.439L296.903 270.512C296.903 270.512 300.571 271.567 306.14 269.02Z" fill="#163356"/>
<path d="M280.655 364.557C280.425 365.13 285.92 364.696 285.996 364.831C286.544 364.644 286.018 362.743 285.837 362.375C284.69 360.418 286.081 351.452 286.037 349.16H280.801C280.745 351.438 282.054 360.441 280.957 362.371C280.645 363.072 280.655 363.652 280.655 364.557Z" fill="#F99370"/>
<path d="M293.751 364.557C293.521 365.13 299.016 364.696 299.091 364.831C299.639 364.644 299.114 362.743 298.932 362.375C297.786 360.418 299.176 351.452 299.133 349.16H293.896C293.841 351.438 295.15 360.441 294.053 362.371C293.741 363.072 293.751 363.652 293.751 364.557Z" fill="#F99370"/>
<path d="M299.428 365.073C299.428 365.073 298.589 365.451 296.75 365.45C294.69 365.449 293.76 365.073 293.76 365.073C293.76 365.073 293.739 364.802 293.738 364.384C293.737 363.505 293.829 361.977 294.41 360.944C294.41 360.944 296.538 360.016 298.559 360.944C298.559 360.944 299.377 361.822 299.429 364.488C299.433 364.673 299.432 364.869 299.428 365.073Z" fill="#1D3F70"/>
<path d="M299.428 365.077C299.428 365.077 298.589 365.454 296.75 365.453C294.69 365.452 293.76 365.077 293.76 365.077C293.76 365.077 293.739 364.805 293.738 364.387C294.681 364.661 296.585 364.92 299.429 364.491C299.433 364.677 299.432 364.872 299.428 365.077Z" fill="#103663"/>
<path d="M286.333 365.073C286.333 365.073 285.494 365.451 283.654 365.45C281.594 365.449 280.664 365.073 280.664 365.073C280.664 365.073 280.643 364.802 280.643 364.384C280.642 363.505 280.734 361.977 281.314 360.944C281.314 360.944 283.443 360.016 285.463 360.944C285.463 360.944 286.282 361.822 286.333 364.488C286.337 364.673 286.336 364.869 286.333 365.073Z" fill="#1D3F70"/>
<path d="M300.237 355.949C300.152 357.059 300.098 357.67 300.098 357.67C296.481 360.482 292.961 358.097 292.961 358.097C292.055 342.574 289.477 312.574 289.488 312.734C288.696 327.633 287.412 346.5 287.27 358.45C282.63 360.683 279.567 358.097 279.567 358.097C275.729 324.47 278.337 292.942 278.381 294.242C286.665 296.656 299.179 293.68 299.179 293.68C303.313 312.024 300.876 347.72 300.237 355.949Z" fill="#3A72AA"/>
<path d="M290.436 256.891H286.986V262.137H290.436V256.891Z" fill="#F99370"/>
<path d="M301.077 298.687C298.094 301.275 283.861 303.037 277.107 298.899C277.107 298.881 280.46 266.946 282.844 262.635C285.757 260.918 291.366 260.433 294.321 262.39C297.468 265.839 301.067 298.992 301.077 298.687Z" fill="#1D3F70"/>
<path d="M290.483 261.142C287.945 262.22 286.938 261.145 286.938 261.145L286.947 261.142L286.987 259.781C286.987 259.781 288.009 260.526 290.437 259.781L290.483 261.142Z" fill="#103663"/>
<path d="M286.947 258.957C289.916 260.488 292.659 259.581 294.143 257.613C296.553 254.452 293.888 250.696 293.805 247.337C293.749 246.431 293.775 245.781 293.775 245.781C283.716 247.231 286.415 258.901 286.947 258.957Z" fill="#F99370"/>
<path d="M286.781 258.484V261.427C286.781 261.427 287.876 263.799 290.648 261.4V256.812L286.781 258.484Z" fill="#F99370"/>
<path d="M288.763 257.979C289.284 257.895 291.332 257.479 291.509 256.096C291.685 254.712 291.905 254.15 291.905 254.15L292.961 251.844C292.701 249.723 293.771 247.41 293.805 247.339C293.805 247.337 293.805 247.337 293.805 247.337C293.749 246.431 293.775 245.781 293.775 245.781C293.526 245.833 293.286 245.89 293.052 245.951L291.364 247.403L289.478 249.844C289.478 249.844 288.242 258.063 288.763 257.979Z" fill="#E57D61"/>
<path d="M292.496 251.104C292.496 251.104 292.607 248.111 293.772 246.444C296.269 242.874 293.605 241.293 291.763 240.949C289.922 240.605 283.341 243.156 284.231 247.277C284.231 247.277 281.932 248.355 284.153 254.982C284.927 257.292 286.781 258.486 286.781 258.486C286.781 258.486 287.641 258.121 288.765 257.979C289.574 257.877 290.842 257.108 290.958 256.072C291.159 254.285 291.594 251.88 292.496 251.104Z" fill="#662948"/>
<path d="M291.252 252.823C291.537 253.891 292.31 254.518 292.977 254.222C293.645 253.927 293.956 252.822 293.671 251.753C293.386 250.685 292.614 250.059 291.946 250.354C291.278 250.65 290.967 251.755 291.252 252.823Z" fill="#F99370"/>
<path d="M292.741 251.113C292.713 251.104 292.054 250.892 291.741 251.37C291.661 251.491 291.615 251.646 291.599 251.829C291.599 251.829 291.599 251.83 291.598 251.83C291.597 251.847 291.594 251.863 291.593 251.88C291.593 251.881 291.593 251.881 291.593 251.881C291.574 252.22 291.655 252.655 291.838 253.184C291.858 253.243 291.909 253.274 291.956 253.259C291.962 253.257 291.967 253.254 291.973 253.251C292.025 253.221 292.048 253.143 292.025 253.077C291.877 252.648 291.802 252.292 291.796 252.015C292.396 252.056 292.771 252.854 292.775 252.863C292.798 252.915 292.845 252.939 292.888 252.925C292.897 252.922 292.906 252.917 292.915 252.911C292.964 252.874 292.98 252.794 292.952 252.73C292.934 252.691 292.523 251.797 291.819 251.743C291.837 251.665 291.861 251.596 291.897 251.541C292.127 251.19 292.684 251.368 292.689 251.369C292.745 251.387 292.8 251.344 292.814 251.274C292.828 251.203 292.795 251.132 292.741 251.113Z" fill="#C16256"/>
<path d="M286.333 365.077C286.333 365.077 285.494 365.454 283.654 365.453C281.594 365.452 280.664 365.077 280.664 365.077C280.664 365.077 280.643 364.805 280.643 364.387C281.585 364.661 283.489 364.92 286.333 364.491C286.337 364.677 286.336 364.872 286.333 365.077Z" fill="#103663"/>
<path d="M286.781 260.56V260.153C286.781 260.153 288.265 260.984 290.648 260.047V260.56C290.648 260.56 288.384 261.78 286.781 260.56Z" fill="#F4D4BE"/>
<path d="M300.239 355.949C300.154 357.06 300.1 357.67 300.1 357.67C296.483 360.483 292.962 358.098 292.962 358.098C292.925 357.455 292.884 356.791 292.842 356.109C292.842 356.109 295.609 357.838 300.239 355.949Z" fill="#23659B"/>
<path d="M286.353 356.69C287.019 342.922 287.04 321.235 289.489 312.734C288.697 327.635 287.413 346.499 287.271 358.451C282.632 360.684 279.568 358.097 279.568 358.097C279.503 357.49 279.44 356.887 279.379 356.285C279.379 356.285 282.774 357.96 286.353 356.69Z" fill="#23659B"/>
<path d="M289.488 312.733C289.488 312.733 288.011 310.314 287.912 306.465C287.912 306.465 287.381 310.554 289.091 314.283L289.488 312.733Z" fill="#23659B"/>
<path d="M292.794 261.53V261.532C292.794 261.532 292.766 261.569 292.708 261.635C292.534 261.836 292.093 262.298 291.387 262.72C290.709 263.125 289.787 263.494 288.624 263.562C287.552 263.625 286.692 263.358 286.041 263.008C285.311 262.617 284.843 262.12 284.633 261.863C284.547 261.759 284.504 261.695 284.504 261.695C285.913 261.294 286.781 261.252 286.781 261.252C287.738 261.073 289.681 261.175 290.648 261.2C290.689 261.202 290.73 261.203 290.771 261.206C290.91 261.213 291.049 261.227 291.188 261.246C291.192 261.246 291.197 261.246 291.202 261.247C291.572 261.291 292.116 261.375 292.794 261.53Z" fill="#163356"/>
<path d="M286.78 260.559C286.78 260.559 285.672 260.742 285.178 261.517C285.178 261.517 286.409 262.928 288.635 262.822C290.861 262.716 292.069 261.337 292.069 261.337C292.069 261.337 291.476 260.735 290.646 260.559C290.646 260.559 288.328 261.69 286.78 260.559Z" fill="#1D3F70"/>
<path d="M307.914 240.756C307.734 240.756 307.564 240.615 307.495 240.385C307.406 240.087 307.521 239.752 307.753 239.637L316.143 235.472C316.375 235.357 316.635 235.506 316.724 235.804C316.813 236.103 316.698 236.438 316.466 236.553L308.076 240.717C308.023 240.744 307.968 240.756 307.914 240.756Z" fill="#1D3F70"/>
<path d="M314.144 240.677C314.144 240.677 314.587 237.783 313.502 236.781L311.744 237.66C311.744 237.66 312.393 238.361 311.896 240.677C311.896 240.677 312.393 241.618 314.144 240.677Z" fill="#F99370"/>
<path d="M312.183 237.955C312.381 238.462 312.327 239.174 312.133 239.3C311.939 239.426 311.954 238.882 311.756 238.375C311.557 237.868 311.297 237.857 311.297 237.857C311.47 237.064 311.985 237.448 312.183 237.955Z" fill="#F99370"/>
<path d="M313.775 237.269C313.973 237.776 313.976 238.289 313.782 238.415C313.587 238.541 313.269 238.233 313.071 237.726C312.873 237.218 312.869 236.705 313.064 236.579C313.258 236.453 313.576 236.762 313.775 237.269Z" fill="#F99370"/>
<path d="M313.208 237.554C313.406 238.061 313.41 238.574 313.215 238.701C313.021 238.827 312.703 238.518 312.504 238.011C312.306 237.504 312.303 236.99 312.497 236.864C312.691 236.738 313.01 237.047 313.208 237.554Z" fill="#F99370"/>
<path d="M312.654 237.816C312.852 238.323 312.855 238.836 312.661 238.962C312.466 239.088 312.148 238.779 311.95 238.272C311.751 237.765 311.748 237.252 311.943 237.126C312.137 237 312.455 237.309 312.654 237.816Z" fill="#F99370"/>
<path d="M258.914 272.861C258.478 273.131 259.136 274.344 259.068 274.906C258.374 274.453 257.777 273.738 257.772 273.739C257.197 272.743 256.665 271.709 256.168 270.644C254.883 269.739 256.84 273.763 256.976 274.202C256.973 274.206 256.969 274.211 256.965 274.215C256.207 273.357 255.485 272.444 254.826 271.458C253.347 270.906 256.235 274.672 256.475 275.055C256.474 275.058 256.473 275.06 256.472 275.063C255.653 274.412 254.895 273.631 254.212 272.756C252.683 272.37 255.847 275.903 256.175 276.168C256.174 276.173 256.173 276.178 256.172 276.183C255.471 275.791 254.809 275.285 254.172 274.74C252.708 274.644 255.783 277.198 256.103 277.4C256.27 277.682 257.487 278.608 259.126 279.285C259.664 279.507 260.505 277.788 260.395 277.088C260.292 276.433 259.97 275.62 259.86 275.322C259.719 274.697 259.497 272.867 258.914 272.861Z" fill="#F99370"/>
<path d="M314.289 242.86C312.728 243.407 311.342 242.734 311.342 242.734C311.458 242.358 311.563 242.003 311.652 241.672C311.652 241.672 312.615 242.38 314.145 241.729C314.145 241.729 314.209 242.14 314.289 242.86Z" fill="#163356"/>
<path d="M261.835 277.882C261.835 277.882 261.629 279.96 260.14 280.768C259.737 280.225 259.52 279.869 259.52 279.869C260.712 279.101 260.942 277.445 260.942 277.445C261.243 277.609 261.542 277.754 261.835 277.882Z" fill="#163356"/>
<path d="M171.255 384.379L171.104 384.277C171.104 384.413 170.973 384.886 170.868 384.886L166.405 385.004C166.299 385.004 166.234 384.748 166.234 384.612L165.854 384.471C165.854 383.611 165.909 383.298 166.204 382.632C167.289 380.774 165.994 372.466 166.031 370.295C165.763 369.701 170.731 370.167 170.8 370.027C170.912 370.027 171 370.15 170.991 370.293L170.406 379.787C170.144 381.59 171.218 382.679 171.255 384.379Z" fill="#F99370"/>
<path d="M189.737 385.207H180.847C180.071 385.167 180.077 384.147 180.22 383.357C180.709 380.507 179.844 373.963 179.683 371.032C179.641 370.495 179.968 370.028 180.387 370.028C186.946 369.943 184.806 369.266 184.298 378.382C183.91 381.566 186.858 382.173 188.539 382.525C189.646 382.628 191.497 384.574 189.737 385.207Z" fill="#F99370"/>
<path d="M179.881 384.019C179.905 384.581 180.121 385.221 180.626 385.207H189.848C192.023 384.168 188.764 380.451 184.506 380.473C181.479 381.543 179.779 378.503 179.881 384.019Z" fill="#103663"/>
<path d="M166.561 385.204H170.502C172.423 384.866 171.039 380.119 168.532 380.462C166.018 380.052 164.642 384.871 166.561 385.204Z" fill="#103663"/>
<path d="M187.65 383.6C187.727 383.6 187.8 383.54 187.831 383.442C188.186 382.315 188.825 381.971 188.851 381.957C189.35 380.943 187.902 381.665 187.468 383.252C187.414 383.413 187.514 383.603 187.65 383.6Z" fill="#E8C0A6"/>
<path d="M186.126 383.36C186.21 383.36 186.287 383.29 186.313 383.182C186.627 381.877 187.508 381.275 187.517 381.269C187.969 380.092 186.286 381.352 185.939 383.033C185.898 383.192 185.997 383.362 186.126 383.36Z" fill="#E8C0A6"/>
<path d="M184.394 383.086C184.475 383.086 184.551 383.021 184.579 382.917C184.945 381.562 185.79 380.824 185.799 380.817C186.298 379.077 183.539 382.621 184.394 383.086Z" fill="#E8C0A6"/>
<path d="M167.118 381.975C168.213 381.12 169.892 381.891 169.898 381.953C171.042 381.635 168.338 380.392 167.019 381.505C166.847 381.625 166.926 381.984 167.118 381.975Z" fill="#E8C0A6"/>
<path d="M190.492 384.02H179.881C179.92 384.437 180.009 384.842 180.172 385.208H189.847C190.324 385.209 190.662 384.593 190.492 384.02Z" fill="#0F2E54"/>
<path d="M166.561 385.208H170.502C171.004 385.208 171.407 384.664 171.376 384.02H165.687C165.657 384.664 166.06 385.209 166.561 385.208Z" fill="#0F2E54"/>
<path d="M209.882 301.932C215.754 306.02 215.722 295.862 209.751 298.208C209.751 298.208 209.458 300.235 209.882 301.932Z" fill="#F99370"/>
<path d="M193.433 384.666C194.148 384.666 194.811 384.075 195.037 383.15L198.385 369.477H217.941C217.941 369.477 214.913 381.846 214.913 381.846C214.223 384.532 217.494 385.817 218.122 383.15C228.17 342.106 239.274 296.75 249.269 255.919C249.962 253.223 246.678 251.956 246.06 254.614L243.044 266.935H223.487C223.487 266.935 226.184 255.918 226.184 255.919C226.876 253.232 223.595 251.945 222.975 254.614C212.97 295.482 201.865 340.849 191.828 381.846C191.473 383.213 192.321 384.687 193.433 384.666ZM224.164 344.057H204.608L208.266 329.111H227.823L224.164 344.057ZM217.706 290.551H237.263L233.604 305.496H214.048L217.706 290.551ZM232.543 309.831L228.884 324.777H209.328L212.986 309.831H232.543ZM241.983 271.27L238.324 286.216H218.767L222.426 271.27H241.983ZM199.446 365.142L203.547 348.392H223.103L218.986 365.21C218.854 365.168 218.717 365.143 218.575 365.143L199.446 365.142Z" fill="#1D3F70"/>
<path d="M189.561 270.716C189.561 270.716 191.345 267.811 189.591 265.254L187.65 265.633L189.561 270.716Z" fill="#C92828"/>
<path d="M186.986 297.189C192.516 308.185 203.725 307.871 209.882 301.935L209.751 298.211C195.55 299.628 195.355 286.469 186.215 281.145C186.215 281.145 186.889 296.916 186.986 297.189Z" fill="#1D3F70"/>
<path d="M165.173 373.978C165.188 374.774 165.204 375.577 165.225 376.393C165.225 376.393 168.568 379.234 171.865 377.249C173.154 368.202 175.905 348.824 178.681 325.455C178.717 324.768 180.119 356.787 178.395 377.99C178.395 377.99 182.103 379.222 185.448 377.606C187.798 366.788 191.473 347.158 189.794 306.087C189.794 306.087 179.751 305.358 172.447 300.691C166.152 310.098 164.412 358.277 165.173 373.978Z" fill="#3A72AA"/>
<path d="M185.347 280.722C185.763 277.886 186.774 272.785 185.118 271.527C183.952 270.704 182.309 271.745 182.455 273.625C182.579 273.558 182.268 278.763 181.833 280.132C178.4 280.686 187.686 286.972 185.347 280.722Z" fill="#F99370"/>
<path d="M182.452 273.387C182.45 273.466 182.451 273.548 182.455 273.627C182.545 273.576 182.401 276.453 182.135 278.506C183.517 279.709 185.199 279.64 185.515 279.625C186.019 276.647 186.703 272.915 185.118 271.529C184.034 270.631 182.461 271.701 182.452 273.387Z" fill="#E57D61"/>
<path d="M183.338 377.124C188.187 348.721 186.737 319.407 186.106 319.168C185.783 319.362 187.174 348.972 183.338 377.124Z" fill="#23659B"/>
<path d="M168.67 377.124C172.008 349.884 175.736 318.232 175.269 317.762C174.785 317.849 170.995 350.098 168.67 377.124Z" fill="#23659B"/>
<path d="M181.272 269.156C180.748 271.107 180.372 273.456 180.977 275.406L180.978 275.407C181.003 275.486 181.029 275.561 181.058 275.637C181.058 275.64 181.059 275.64 181.059 275.642C182.088 278.157 184.405 279.534 186.7 278.951L186.701 278.952C188.593 278.309 189.845 276.546 189.838 274.515C189.791 273.287 189.334 271.919 189.56 270.712C190.934 263.396 183.297 261.605 181.272 269.156Z" fill="#F99370"/>
<path d="M187.052 271.738C187.309 271.514 187.031 270.998 186.779 271.231C186.521 271.454 186.799 271.971 187.052 271.738Z" fill="#C16256"/>
<path d="M188.985 272.582C189.243 272.358 188.965 271.842 188.712 272.075C188.454 272.298 188.733 272.815 188.985 272.582Z" fill="#C16256"/>
<path d="M187.33 297.939C188.816 300.685 191.821 303.376 194.683 304.944C194.121 303.699 192.985 302.882 192.557 300.023C191.746 294.602 189.757 289.328 189.757 289.328L187.33 297.939Z" fill="#103663"/>
<path d="M181.272 269.159C180.748 271.11 180.372 273.459 180.977 275.409L180.978 275.41C181.003 275.489 181.029 275.564 181.058 275.64C180.676 272.054 181.162 271.561 182.26 269.661C184.434 268.82 184.949 266.601 186.587 267.327C188.226 268.05 189.64 268.348 189.64 268.348C189.129 262.497 182.862 263.016 181.272 269.159Z" fill="#E57D61"/>
<path d="M187.51 274.581C187.886 274.731 188.424 274.719 188.152 274.041C187.87 273.487 188.022 272.22 188.023 272.207C187.761 271.582 187.678 273.547 188.001 274.169C188.21 274.632 187.459 274.419 187.241 274.111C186.833 274.021 187.327 274.571 187.51 274.581Z" fill="#C16256"/>
<path d="M168.449 314.493C173.311 319.232 185.236 320.647 190.09 318.383C191.727 317.49 191.956 310.39 191.766 303.416C191.475 294.121 189.716 287.401 186.386 281.19C186.345 281.168 185.712 280.806 185.349 280.727C185.365 281.576 185.215 284.03 181.835 280.135C181.82 280.151 180.826 279.979 180.515 280.151C180.191 280.468 176.531 283.535 176.438 284.034C176.163 285.525 174.927 289.216 173.575 293.518C172.013 298.548 169.922 303.664 169.234 308.374C168.966 310.333 167.485 312.647 168.449 314.493Z" fill="#1D3F70"/>
<path d="M181.705 266.405C183.692 261.036 186.334 262.377 186.334 262.377L186.333 262.378C189.688 259.422 194.318 263.659 191 267.179C189.06 269.393 186.753 264.973 183.989 267.687C182.879 268.778 182.192 269.451 180.721 269.616C180.721 269.616 181.013 267.791 181.705 266.405Z" fill="#C92828"/>
<path d="M180.008 269.45C179.475 271.699 181.684 272.534 182.179 270.271C182.712 268.023 180.502 267.187 180.008 269.45Z" fill="#F99370"/>
<path d="M180.35 270.229C180.401 270.251 180.457 270.21 180.468 270.141C180.577 269.436 180.756 269.023 180.985 268.947C181.431 268.836 181.566 269.493 181.753 269.358C181.872 269.158 181.402 268.634 180.941 268.721C180.709 268.749 180.192 269.572 180.35 270.229Z" fill="#C16256"/>
<path d="M181.153 270.6C181.42 270.804 181.269 268.917 180.629 268.99C180.603 269.045 180.615 269.117 180.658 269.152C181.255 269.672 180.984 270.475 181.153 270.6Z" fill="#C16256"/>
<path d="M187.038 276.147C187.336 276.32 187.668 276.238 187.412 276.018C187.374 276.015 186.462 275.925 185.859 274.491C185.836 274.434 185.78 274.413 185.736 274.444C185.774 275.4 186.788 276.032 187.038 276.147Z" fill="#C16256"/>
<path d="M212.056 299.452C212.844 298.797 213.901 299.105 214.605 299.848C214.92 300.134 215.296 299.541 215.02 299.202C214.173 297.903 212.69 297.329 211.45 298.004C210.716 298.496 211.332 299.972 212.056 299.452Z" fill="#F99370"/>
<path d="M214.175 303.962C215.308 304.36 215.537 302.441 214.31 302.933L214.33 302.939C213.715 302.736 213.596 303.79 214.175 303.962Z" fill="#F99370"/>
<path d="M214.579 303.081C215.92 303.222 215.589 301.155 214.624 302.001C214.648 301.99 214.512 302.026 214.536 302.016C213.894 301.976 214.016 303.064 214.579 303.081Z" fill="#F99370"/>
<path d="M215.022 302.181L215.459 302.053C216.064 301.846 215.627 300.825 215.126 301.016L214.689 301.144C214.083 301.35 214.521 302.372 215.022 302.181Z" fill="#F99370"/>
<path d="M215.313 301.318L215.75 301.19C216.355 300.983 215.917 299.961 215.417 300.153L214.98 300.28C214.374 300.487 214.812 301.509 215.313 301.318Z" fill="#F99370"/>
<path d="M187.081 306.66C187.081 306.66 187.483 304.317 186.859 302.919C186.859 302.919 176.857 302.449 175.448 297.717C173.934 292.632 180.949 289.855 180.565 280.18C171.511 280.537 164.182 295.093 168.67 304.967C171.403 310.979 181.646 309.216 187.081 306.66Z" fill="#1D3F70"/>
<path d="M178.395 377.991C178.395 377.991 182.103 379.223 185.448 377.607C185.448 377.607 185.667 376.782 186.013 375.145C186.013 375.145 181.7 377.214 178.59 375.145C178.53 376.099 178.465 377.049 178.395 377.991Z" fill="#23659B"/>
<path d="M165.172 373.977C165.187 374.773 165.204 375.576 165.224 376.391C165.224 376.391 168.567 379.233 171.864 377.247C171.864 377.247 171.972 376.504 172.165 375.142C172.165 375.142 168.616 376.506 165.172 373.977Z" fill="#23659B"/>
<path d="M209.751 298.207C209.751 298.207 210.059 300.147 209.882 301.932C209.882 301.932 209.439 302.565 208.722 302.83C208.722 302.83 207.918 300.428 208.275 298.306C208.275 298.306 209.026 298.003 209.751 298.207Z" fill="#103663"/>
<path d="M187.797 303.014C187.797 303.014 189.705 302.472 190.358 302.324C191.012 302.176 192.632 303.117 192.985 303.624C193.338 304.132 192.778 305.368 192.526 305.722C192.274 306.077 191.747 305.663 191.987 305.072C192.152 304.666 192.308 304.308 192.308 304.308C192.308 304.308 191.425 304.416 190.943 304.308C190.943 304.308 189.528 306.348 187.833 306.323C187.833 306.323 188.16 304.59 187.797 303.014Z" fill="#F99370"/>
<path d="M187.832 306.323C187.832 306.323 190.447 306.323 192.158 304.944C192.871 304.369 192.158 303.816 192.158 303.816L190.22 303.934L187.832 306.323Z" fill="#F99370"/>
<path d="M187.795 303.017L186.857 302.922C186.857 302.922 187.411 304.062 187.079 306.662L187.831 306.327C187.831 306.327 188.384 304.75 187.795 303.017Z" fill="#F99370"/>
<path d="M186.951 303.407C186.94 303.407 186.929 303.406 186.919 303.403C185.746 303.132 184.941 302.977 183.337 302.67L182.045 302.422C179.575 301.946 178.218 301.29 176.461 299.725C175.745 299.087 175.292 298.151 175.15 297.017C174.99 295.73 175.266 294.291 175.871 293.26C176.854 291.586 178.384 288.861 178.399 288.834C178.458 288.731 178.57 288.707 178.65 288.782C178.731 288.857 178.749 289.002 178.691 289.106C178.675 289.133 177.142 291.861 176.158 293.539C175.61 294.473 175.36 295.777 175.505 296.943C175.593 297.645 175.865 298.631 176.666 299.344C178.392 300.882 179.661 301.494 182.099 301.964L183.39 302.212C184.998 302.52 185.805 302.674 186.983 302.947C187.08 302.97 187.145 303.09 187.128 303.216C187.112 303.328 187.036 303.407 186.951 303.407Z" fill="#103663"/>
<path d="M176.571 309.322C171.589 309.322 169.552 306.7 169.461 306.579C169.392 306.487 169.393 306.341 169.465 306.252C169.536 306.163 169.649 306.165 169.719 306.257C169.742 306.287 172.115 309.318 177.912 308.797C183.765 308.272 187.214 306.082 187.249 306.06C187.337 306.003 187.445 306.048 187.49 306.163C187.534 306.277 187.498 306.416 187.41 306.474C187.375 306.496 183.868 308.727 177.937 309.259C177.459 309.302 177.004 309.322 176.571 309.322Z" fill="#103663"/>
<path d="M187.797 303.938C187.797 303.938 188.094 304.961 187.833 306.325C187.833 306.325 187.427 306.667 187.081 306.661C187.081 306.661 187.168 305.02 186.951 304.005L187.797 303.938Z" fill="#3A72AA"/>
<path d="M187.822 270.573C187.809 270.573 187.796 270.569 187.783 270.562C187.331 270.285 186.569 270.422 186.562 270.424C186.513 270.434 186.467 270.389 186.46 270.326C186.453 270.263 186.487 270.204 186.536 270.195C186.569 270.189 187.36 270.045 187.86 270.353C187.905 270.38 187.924 270.449 187.903 270.507C187.888 270.549 187.856 270.573 187.822 270.573Z" fill="#C16256"/>
<path d="M189.394 271.599C189.363 271.599 189.333 271.579 189.316 271.542C189.127 271.131 188.687 270.889 188.682 270.887C188.636 270.862 188.615 270.794 188.634 270.735C188.653 270.676 188.706 270.648 188.752 270.673C188.772 270.684 189.252 270.947 189.471 271.424C189.496 271.479 189.482 271.55 189.439 271.583C189.425 271.594 189.409 271.599 189.394 271.599Z" fill="#C16256"/>
<path d="M180.141 280.206C180.118 282.261 184.625 285.057 184.857 285.059L185.348 283.19C185.978 283.39 186.532 284.526 186.532 284.526C188.347 282.298 186.64 280.355 185.348 280.723C185.348 280.723 185.348 280.724 185.349 280.726C185.374 280.858 185.509 283.782 181.833 280.132C181.326 279.629 180.141 280.206 180.141 280.206Z" fill="#F4D4BE"/>
<path d="M188.309 303.489C188.309 303.783 187.816 304.022 187.208 304.022C186.6 304.022 186.107 303.783 186.107 303.489C186.107 303.195 186.6 302.957 187.208 302.957C187.816 302.957 188.309 303.195 188.309 303.489Z" fill="#23659B"/>
<path d="M188.309 303.258H186.107V303.489H188.309V303.258Z" fill="#23659B"/>
<path d="M188.309 303.255C188.309 303.549 187.816 303.787 187.208 303.787C186.6 303.787 186.107 303.549 186.107 303.255C186.107 302.961 186.6 302.723 187.208 302.723C187.816 302.723 188.309 302.961 188.309 303.255Z" fill="#3A72AA"/>
<path d="M188.141 303.22C188.141 303.421 187.724 303.584 187.208 303.584C186.693 303.584 186.275 303.421 186.275 303.22C186.275 303.019 186.693 302.855 187.208 302.855C187.723 302.855 188.141 303.019 188.141 303.22Z" fill="#CFDDF9"/>
<path d="M232.249 266.94L223.318 266.836C223.443 262.852 223.932 256.957 224.407 252.867L228.955 253.101L227.234 261.343C227.13 262.342 227.456 263.239 228.198 263.561C229.848 264.416 231.873 263.975 232.806 265.861C232.992 266.366 232.683 266.945 232.249 266.94Z" fill="#F99370"/>
<path d="M223.057 265.735C223.09 266.121 223.14 266.6 223.288 266.94L232.254 266.94C232.688 266.945 233.006 266.397 232.866 265.868C232.535 264.63 231.37 262.825 227.253 262.5C227.253 262.5 225.848 263.021 223.548 262.457C223.548 262.457 222.919 264.171 223.057 265.735Z" fill="#EB5648"/>
<path d="M230.238 265.429C230.309 265.429 230.376 265.375 230.405 265.286C230.74 264.249 231.333 263.937 231.358 263.924C231.83 262.995 230.479 263.644 230.071 265.107C230.02 265.256 230.112 265.433 230.238 265.429Z" fill="#E8C0A6"/>
<path d="M228.834 265.198C228.91 265.198 228.982 265.134 229.006 265.035C229.304 263.833 230.123 263.286 230.131 263.281C230.524 262.201 229.006 263.338 228.661 264.893C228.623 265.04 228.714 265.2 228.834 265.198Z" fill="#E8C0A6"/>
<path d="M227.234 264.925C227.308 264.925 227.378 264.866 227.404 264.77C227.751 263.523 228.537 262.85 228.545 262.844C228.837 261.715 227.468 263.064 227.064 264.613C227.02 264.762 227.112 264.928 227.234 264.925Z" fill="#E8C0A6"/>
<path d="M232.861 265.848L223.057 265.734C223.09 266.12 223.17 266.496 223.318 266.835L232.254 266.939C232.694 266.945 233.014 266.38 232.861 265.848Z" fill="#CE3932"/>
<path d="M233.159 173.767C222.144 180.83 219.213 197.286 226.276 210.095C227.273 212.247 229.406 210.384 228.413 208.296C225.418 198.255 227.523 187.432 236.113 184.288C236.111 184.296 236.083 184.309 236.073 184.314C241.419 181.827 238.519 171.343 233.159 173.767Z" fill="#F99370"/>
<path d="M222.185 195.202C223.185 196.113 227.648 195.544 229.281 194.307L236.378 173.658C229.582 171.832 221.522 185.835 222.185 195.202Z" fill="#1D3F70"/>
<path d="M225.006 195.668C225.69 195.623 226.487 195.476 227.387 195.159L227.724 186.93C227.724 186.93 225.706 190.301 225.006 195.668Z" fill="#163356"/>
<path d="M235.588 184.036C247.298 192.722 258.513 191.152 263.509 173.489C263.97 171.239 261.707 170.545 261.039 172.611C254.839 184.035 248.691 183.49 240.804 175.091C240.805 175.089 240.786 175.068 240.812 175.091C236.255 170.715 231.063 179.611 235.588 184.036Z" fill="#F99370"/>
<path d="M242.338 266.927L233.537 266.942C233.211 264.139 235.131 254.988 235.666 252.406L240.444 253.692L238.033 261.117C238.033 261.117 236.919 263.073 238.39 263.603C240.022 264.318 241.768 264.066 242.877 265.546C243.207 266.115 242.889 266.926 242.338 266.927Z" fill="#F99370"/>
<path d="M233.268 265.842C233.304 266.227 233.387 266.601 233.538 266.939L242.474 266.924C242.908 266.923 243.222 266.372 243.078 265.844C242.737 264.61 241.557 262.821 237.438 262.551C237.438 262.551 236.037 263.091 233.733 262.557C233.733 262.557 233.118 264.279 233.268 265.842Z" fill="#EB5648"/>
<path d="M240.443 265.444C240.515 265.444 240.582 265.389 240.611 265.298C240.938 264.257 241.528 263.937 241.553 263.924C242.018 262.988 240.672 263.656 240.275 265.124C240.226 265.272 240.318 265.447 240.443 265.444Z" fill="#E8C0A6"/>
<path d="M239.037 265.226C239.114 265.226 239.186 265.162 239.21 265.062C239.497 263.863 240.313 263.297 240.321 263.292C240.703 262.207 239.197 263.365 238.864 264.924C238.827 265.071 238.918 265.228 239.037 265.226Z" fill="#E8C0A6"/>
<path d="M237.435 264.974C237.51 264.974 237.581 264.914 237.606 264.818C237.943 263.565 238.723 262.882 238.731 262.876C238.928 262.712 238.725 262.316 238.531 262.487C238.495 262.518 237.643 263.259 237.264 264.665C237.222 264.813 237.314 264.977 237.435 264.974Z" fill="#E8C0A6"/>
<path d="M243.072 265.828L233.268 265.845C233.304 266.23 233.387 266.605 233.538 266.942L242.474 266.927C242.914 266.927 243.229 266.358 243.072 265.828Z" fill="#CE3932"/>
<path d="M222.184 195.199C222.106 195.482 225.59 195.957 226.696 195.377L226.061 194.305C226.061 194.305 224.083 194.748 222.199 193.852C222.182 194.298 222.179 194.748 222.184 195.199Z" fill="#163356"/>
<path d="M243.171 208.098L224.383 204.414C228.445 167.353 242.035 165.988 244.241 186.933C244.893 192.25 243.784 205.005 243.171 208.098Z" fill="#1D3F70"/>
<path d="M244.108 199.776C244.344 193.418 242.145 187.28 242.145 187.28L244.24 186.934C244.581 191.254 244.406 195.924 244.108 199.776Z" fill="#163356"/>
<path d="M222.447 258.36C222.447 258.36 225.806 260.627 228.996 259.324C233.186 246.275 235.172 228.465 234.086 215.541C234.372 214.977 239.956 233.896 233.905 259.43C233.905 259.43 236.088 261.723 239.098 260.96C242.774 251.858 251.237 229.93 244.014 200.929C241.633 199.732 227.951 198.033 225.082 199.828C225.082 199.828 221.987 207.163 223.413 217.072C225.313 230.264 223.397 249.966 222.69 256.31H222.686C222.542 257.618 222.447 258.36 222.447 258.36Z" fill="#3A72AA"/>
<path d="M239.936 258.99C239.422 260.271 239.098 260.959 239.098 260.959C236.086 261.721 233.902 259.429 233.902 259.429C234.043 258.789 234.178 258.158 234.306 257.531C234.306 257.531 236.523 259.873 239.936 258.99Z" fill="#23659B"/>
<path d="M225.117 198.751C225.117 198.751 232.952 195.565 244.069 200.262C244.069 200.262 244.533 201.295 244.323 202.134C244.323 202.134 232.423 198.978 224.615 201.146C224.615 201.146 224.539 199.905 225.117 198.751Z" fill="#23659B"/>
<path d="M237.373 173.715C236.257 186.377 244.68 195.152 255.305 187.331L255.305 187.329C255.947 186.759 256.269 186.326 256.269 186.326C256.427 182.478 254.298 180.496 254.298 180.496C252.274 180.814 248.956 181.045 246.553 179.385C241.569 175.798 237.373 173.715 237.373 173.715Z" fill="#1D3F70"/>
<path d="M239.464 153.78C237.038 153.146 233.465 154.629 232.306 160.506C231.367 165.266 227.725 164.506 225.008 170.221C222.167 176.194 224.449 181.568 228.548 184.654C236.099 190.488 248.346 179.893 244.479 168.343C242.844 163.345 243.628 154.867 239.464 153.78Z" fill="#8E4A35"/>
<path d="M253.096 180.649C253.096 180.649 255.365 182.814 255.306 187.326C255.949 186.755 256.27 186.323 256.27 186.323C256.429 182.474 254.299 180.492 254.299 180.492C254.299 180.492 253.83 180.586 253.096 180.649Z" fill="#163356"/>
<path d="M222.447 258.358C222.447 258.358 225.806 260.625 228.996 259.322C228.995 259.322 229.17 258.704 229.44 257.67C229.44 257.674 226.153 258.611 222.686 256.309C222.542 257.617 222.447 258.358 222.447 258.358Z" fill="#23659B"/>
<path d="M227.84 258.444H229.234C233.274 245.928 235.141 227.831 234.085 215.567C234.085 215.567 232.37 214.312 232.091 210.98C232.896 223.76 234.068 237.978 227.84 258.444Z" fill="#23659B"/>
<path d="M257.391 148.682L254.18 167.258L275.019 173.237L278.231 154.662L257.391 148.682Z" fill="#EB5648"/>
<path d="M265.363 164.116L266.403 164.414C266.593 164.469 266.782 164.319 266.829 164.076L268.678 154.685C268.701 154.564 268.686 154.435 268.635 154.329C268.584 154.222 268.502 154.147 268.407 154.12L266.94 153.699C266.845 153.671 266.746 153.695 266.664 153.763C266.583 153.832 266.527 153.94 266.509 154.063L265.088 163.577C265.052 163.823 265.174 164.062 265.363 164.116Z" fill="#D4E8FF"/>
<path d="M265.764 164.956C265.049 164.751 264.386 165.316 264.222 166.269C264.057 167.223 264.471 168.097 265.185 168.301C265.911 168.51 266.56 167.957 266.727 166.988C266.895 166.019 266.489 165.164 265.764 164.956Z" fill="#D4E8FF"/>
<path d="M262.96 167.815C263.763 167.747 262.799 169.027 262.95 169.781L265.8 170.599C265.8 170.599 265.436 172.442 263.237 174.412C262.74 174.858 261.039 173.38 261.039 172.613C261.039 171.103 262.343 167.868 262.96 167.815Z" fill="#F99370"/>
<path d="M354.602 266.591C354.442 266.698 356.592 266.677 356.453 266.884C351.926 271.927 345.173 273.524 340.161 268.612V268.604C338.669 267.199 337.162 264.937 336.115 262.572L337.345 260.002C347.116 267.766 350.984 254.516 358.93 253.484L357.34 256.476L354.602 266.591Z" fill="#1D3F70"/>
<path d="M365.449 355.348L365.598 355.248C365.598 355.382 365.727 355.849 365.832 355.849L370.241 355.966C370.345 355.966 370.409 355.713 370.409 355.579L370.785 355.44C370.785 354.59 370.731 354.281 370.439 353.623C369.367 351.788 370.647 343.58 370.61 341.436C370.874 340.849 365.967 341.31 365.899 341.171C365.788 341.171 365.701 341.292 365.71 341.434L366.288 350.813C366.547 352.593 365.486 353.669 365.449 355.348Z" fill="#F99370"/>
<path d="M346.339 356.166H355.121C355.887 356.126 355.882 355.119 355.74 354.338C355.257 351.523 356.112 345.058 356.27 342.163C356.312 341.633 355.989 341.172 355.576 341.172H351.7C351.28 341.172 350.955 341.646 351.007 342.183L351.712 349.423C352.095 352.569 349.182 353.168 347.522 353.516C346.429 353.618 344.6 355.54 346.339 356.166Z" fill="#F99370"/>
<path d="M356.073 354.992C356.05 355.546 355.836 356.179 355.337 356.165H346.228C344.08 355.139 347.299 351.467 351.505 351.488C354.495 352.546 356.175 349.543 356.073 354.992Z" fill="#3A72AA"/>
<path d="M370.087 356.166H366.194C364.297 355.832 365.664 351.143 368.14 351.481C370.624 351.076 371.983 355.837 370.087 356.166Z" fill="#3A72AA"/>
<path d="M345.593 354.992H356.075C356.037 355.404 355.948 355.805 355.788 356.166H346.23C345.759 356.167 345.425 355.559 345.593 354.992Z" fill="#23659B"/>
<path d="M370.088 356.166H366.195C365.7 356.167 365.301 355.629 365.332 354.992H370.952C370.982 355.629 370.584 356.167 370.088 356.166Z" fill="#23659B"/>
<path d="M357.709 240.576C357.709 240.576 357.663 236.909 360.236 236.258L361.585 238.06L357.709 240.576Z" fill="#1D3F70"/>
<path d="M371.225 349.765C371.225 349.765 367.073 351.064 364.933 349.668C363.82 340.673 360.729 315.627 359.652 298.464C359.611 299.465 357.349 339.826 356.919 349.668C355.442 350.305 352.472 351.073 350.81 349.531C350.064 339.17 347.667 305.059 351.278 277.2C351.278 277.2 361.173 278.618 368.901 275.609C371.028 284.447 371.592 339.16 371.225 349.765Z" fill="#3A72AA"/>
<path d="M352.408 348.671C351.393 318.895 353.721 293.286 353.372 292.98C352.761 293.044 350.421 318.882 352.408 348.671Z" fill="#23659B"/>
<path d="M367.958 348.673C367.555 318.076 364.026 289.095 363.493 288.984C363.094 289.37 366.563 318.017 367.958 348.673Z" fill="#23659B"/>
<path d="M358.856 253.383C358.64 250.957 358.935 247.457 359.198 246.017C359.671 243.177 363.167 244.276 362.586 247.068C362.473 246.976 362.113 252.123 362.362 253.552C365.643 254.82 355.775 258.989 358.856 253.383Z" fill="#F99370"/>
<path d="M362.621 246.836C362.613 246.914 362.602 246.993 362.588 247.07C362.507 247 362.279 249.84 362.277 251.901C360.774 252.782 359.098 252.394 358.791 252.313C358.758 249.703 358.944 247.324 359.242 245.831C359.851 243.303 362.932 244.224 362.621 246.836Z" fill="#E57D61"/>
<path d="M364.952 245.776C364.455 247.717 363.652 249.854 362.266 250.919L362.264 250.918C361.702 251.346 361.064 251.555 360.404 251.586C356.703 252.229 353.056 245.737 356.387 242.506C356.936 242.002 357.417 241.271 357.709 240.577C360.678 233.205 366.764 238.991 364.952 245.776Z" fill="#F99370"/>
<path d="M357.225 246.544L359.419 245.629C359.431 247.229 357.965 248 357.225 246.544Z" fill="#F9F8F3"/>
<path d="M352.434 263.645L350.91 270.848C347.646 272.14 344.166 271.847 341.096 269.42C344.471 271.876 349.109 270.491 349.84 269.049C350.611 267.521 352.328 263.866 352.434 263.645Z" fill="#103663"/>
<path d="M370.341 287.638C369.988 288.191 369.611 288.746 369.212 289.304C369.212 289.304 367.268 289.775 365.745 287.165C371.954 270.209 359.967 268.627 362.362 253.551C370.372 254.769 381.514 270.168 370.341 287.638Z" fill="#1D3F70"/>
<path d="M359.203 243.323C359.105 242.948 359.565 242.757 359.655 243.136C359.753 243.512 359.293 243.702 359.203 243.323Z" fill="#C16256"/>
<path d="M357.289 242.491C357.191 242.115 357.651 241.925 357.741 242.304C357.839 242.68 357.379 242.87 357.289 242.491Z" fill="#C16256"/>
<path d="M364.952 245.776C364.454 247.717 363.652 249.854 362.266 250.919L362.264 250.919C362.149 251.006 362.03 251.085 361.908 251.154C362.986 250.158 363.843 247.72 363.843 247.72L363.894 245.516C362.638 243.247 363.558 241.178 363.558 241.178C360.936 241.565 360.34 239.396 360.34 239.396C359.53 239.363 358.76 238.675 358.76 238.675C362.368 234.016 366.516 240.671 364.952 245.776Z" fill="#E57D61"/>
<path d="M357.225 246.657C357.274 246.584 359.617 245.814 359.504 245.591C359.549 245.309 357.242 246.472 357.197 246.431C357.101 246.467 357.126 246.661 357.225 246.657Z" fill="#C16256"/>
<path d="M357.859 245.283C358.014 245.344 358.145 245.067 357.945 245.044C357.63 245.12 356.94 244.702 357.321 244.5C357.866 244.261 358.717 242.653 358.219 242.941C358.215 242.952 357.742 244.066 357.262 244.283C356.603 244.703 357.404 245.284 357.859 245.283Z" fill="#C16256"/>
<path d="M370.341 287.64C369.987 288.193 369.611 288.748 369.211 289.306C369.211 289.306 367.232 289.663 365.709 287.053C365.933 286.353 366.18 285.899 366.37 285.203C366.37 285.203 367.547 286.899 370.341 287.64Z" fill="#103663"/>
<path d="M369.352 289.641C369.772 289.804 370.212 289.164 369.643 288.979C366.562 289.152 365.741 286.532 365.707 286.42C364.372 285.451 366.013 289.88 369.352 289.641Z" fill="#23659B"/>
<path d="M349.838 289.178C349.838 289.178 350.442 292.518 355.279 294.165C356.665 294.637 357.465 294.404 357.668 293.167C357.77 292.545 358.034 291.464 358.518 291.063C358.518 291.063 359.6 291.665 360.009 292.52C360.904 294.392 362.253 292.691 362.909 290.731C363.722 288.306 365.78 286.252 366.23 284.219L349.838 289.178Z" fill="#F4D4BE"/>
<path d="M369.549 285.049C369.391 285.408 369.297 285.351 369.136 285.143C364.791 280.962 363.236 290.097 358.553 290.26C353.787 290.868 351.136 291.215 349.838 289.177C347.572 284.652 351.177 264.424 354.092 259.525C355.369 256.978 357.635 254.708 358.855 253.387C358.83 253.519 358.181 256.998 362.362 253.553C362.573 253.667 363.898 255.333 363.815 256.225C364.027 260.321 371.57 280.448 369.549 285.049Z" fill="#1D3F70"/>
<path d="M357.482 235.351C357.482 235.351 358.709 234.916 359.965 235.551C360.109 234.937 360.403 234.371 360.88 233.922C361.085 234.668 361.376 235.385 361.708 236.052C361.821 234.649 362.492 233.512 362.492 233.512C362.672 234.856 364.114 235.823 364.794 237.277L364.831 237.21C364.831 237.21 368.64 238.976 365.895 243.326C365.781 244.936 365.172 246.564 365.172 246.564C363.153 244.189 363.588 241.334 364.505 240.592C362.86 241.343 361.394 240.453 360.567 239.046C359.344 238.785 357.848 237.927 357.482 235.351Z" fill="#1D3F70"/>
<path d="M367.034 286.335L366.081 286.079C369.89 275.034 365.411 270.364 363.041 264.141C368.535 272.331 369.367 276.822 367.034 286.335Z" fill="#103663"/>
<path d="M365.808 246.984C365.177 249.165 363.05 248.11 363.718 245.947C364.349 243.766 366.476 244.822 365.808 246.984Z" fill="#F99370"/>
<path d="M365.206 247.34C365.595 246.815 365.595 245.934 365.417 245.69C365.094 245.262 364.481 245.313 364.48 245.561C364.563 245.811 364.978 245.402 365.276 245.833C365.597 246.158 364.956 247.207 365.206 247.34Z" fill="#C16256"/>
<path d="M364.399 247.008C364.536 246.996 364.759 246.195 365.437 246.247C365.486 246.254 365.53 246.207 365.534 246.143C365.092 245.567 363.999 247.02 364.399 247.008Z" fill="#C16256"/>
<path d="M363.65 253.849C363.672 255.904 359.58 257.718 359.348 257.721L358.857 255.851C358.227 256.052 357.673 257.187 357.673 257.187C355.858 254.959 357.565 253.017 358.857 253.385C358.857 253.385 358.857 253.386 358.856 253.387C358.831 253.52 358.546 256.569 362.348 253.448C362.838 253.156 363.65 253.849 363.65 253.849Z" fill="#F4D4BE"/>
<path d="M356.919 349.669C356.922 349.661 356.382 349.925 355.637 350.108C355.637 350.108 357.723 310.054 358.034 304.709C358.345 299.364 359.652 298.465 359.652 298.465C359.652 298.465 356.884 348.804 356.919 349.669Z" fill="#23659B"/>
<path d="M357.002 347.727C356.946 348.882 356.916 349.573 356.92 349.669C355.443 350.305 352.473 351.073 350.811 349.531C350.811 349.531 350.758 348.897 350.672 347.727C350.672 347.727 353.583 349.451 357.002 347.727Z" fill="#23659B"/>
<path d="M371.226 349.765C371.226 349.765 367.073 351.065 364.934 349.669C364.934 349.669 364.846 348.972 364.691 347.727C364.691 347.727 367.521 348.783 371.181 347.727C371.197 348.941 371.213 349.665 371.226 349.765Z" fill="#23659B"/>
<path d="M338.476 260.828C338.201 262.458 336.686 263.759 336.686 263.759C336.492 263.381 336.298 262.981 336.115 262.574L337.345 260.004C337.717 260.268 338.127 260.607 338.476 260.828Z" fill="#103663"/>
<path d="M340.154 268.59C340.205 268.64 340.255 268.69 340.305 268.747C340.255 268.697 340.21 268.654 340.16 268.611V268.604C340.154 268.597 340.154 268.59 340.154 268.59Z" fill="#395B96"/>
<path d="M360.487 243.247C360.495 243.247 360.504 243.245 360.512 243.243C360.567 243.225 360.6 243.153 360.587 243.082C360.579 243.043 360.386 242.105 359.318 241.636C359.264 241.612 359.206 241.649 359.187 241.719C359.169 241.788 359.198 241.863 359.251 241.887C360.207 242.306 360.38 243.113 360.387 243.147C360.399 243.207 360.441 243.247 360.487 243.247Z" fill="#C16256"/>
<path d="M336.115 262.572C336.115 262.572 333.965 262.637 333.31 261.408C332.656 260.178 332.842 258.086 333.466 257.965C335.239 257.622 337.305 259.866 337.345 259.997C337.346 260.001 337.345 260.003 337.345 260.007C337.354 260.094 337.083 261.588 336.115 262.572Z" fill="#F99370"/>
<path d="M357.394 241.531C357.418 241.531 357.441 241.52 357.461 241.499C357.868 241.052 358.473 241.437 358.48 241.441C358.53 241.474 358.592 241.448 358.618 241.383C358.643 241.318 358.623 241.238 358.573 241.205C358.543 241.185 357.84 240.735 357.327 241.297C357.284 241.344 357.279 241.428 357.316 241.484C357.336 241.515 357.365 241.531 357.394 241.531Z" fill="#C16256"/>
<path d="M334.496 265.506L329.799 235.311C329.789 235.25 329.82 235.19 329.868 235.178C329.914 235.166 329.959 235.204 329.97 235.262L335.611 265.188C335.685 265.583 335.497 265.981 335.19 266.077C334.884 266.173 334.575 265.93 334.501 265.536C334.499 265.527 334.497 265.515 334.496 265.506Z" fill="#1D3F70"/>
<path d="M334.88 259.909C334.227 256.926 332.503 258.034 332.469 257.092C332.589 256.405 333.368 256.715 333.775 256.766C334.462 256.964 335.076 257.53 335.512 258.229C336.903 260.141 335.36 261.202 334.88 259.909Z" fill="#F99370"/>
<path d="M333.486 261.776C332.3 261.698 332.518 259.882 333.577 260.757L333.557 260.756C334.182 260.782 334.07 261.819 333.486 261.776Z" fill="#F99370"/>
<path d="M333.294 260.803C331.9 260.344 332.873 258.664 333.482 259.767C333.471 259.746 333.534 259.808 333.554 259.809C333.557 259.811 333.581 259.819 333.562 259.813C334.176 260.002 333.829 260.986 333.294 260.803Z" fill="#F99370"/>
<path d="M333.066 259.796C332.026 259.296 332.573 258.322 333.216 258.659C334.256 259.16 333.71 260.133 333.066 259.796Z" fill="#F99370"/>
<path d="M332.977 258.878C331.936 258.378 332.483 257.404 333.126 257.741C334.166 258.242 333.62 259.215 332.977 258.878Z" fill="#F99370"/>
<path d="M102.599 361.433L94.9434 356.434C95.179 355.949 96.1217 354.903 96.616 352.737C99.2861 341.038 103.518 329.786 104.175 327.977L111.27 329.868L100.112 353.697C99.6847 354.512 99.7681 355.6 100.307 356.296C101.449 357.893 103.098 358.6 103.542 360.54C103.633 361.223 103.079 361.746 102.599 361.433Z" fill="#F99370"/>
<path d="M95.0855 355.328C94.985 355.683 94.9288 356.056 94.9438 356.435L102.717 361.511C103.095 361.758 103.557 361.457 103.612 360.916C103.74 359.65 103.328 357.424 99.8397 354.843C99.8397 354.843 98.4369 354.514 96.6165 352.738C96.6165 352.738 95.4913 353.884 95.0855 355.328Z" fill="#EB5648"/>
<path d="M101.464 359.069C101.525 359.108 101.602 359.098 101.657 359.036C102.298 358.317 102.921 358.376 102.947 358.378C103.173 358.408 103.207 357.948 102.979 357.926C102.947 357.922 102.186 357.84 101.425 358.693C101.33 358.795 101.352 359.002 101.464 359.069Z" fill="#E8C0A6"/>
<path d="M100.315 358.082C100.382 358.124 100.465 358.108 100.52 358.035C101.18 357.157 102.084 357.13 102.093 357.13C102.831 356.423 101.074 356.55 100.266 357.719C100.183 357.826 100.209 358.017 100.315 358.082Z" fill="#E8C0A6"/>
<path d="M99.0086 356.95C99.0734 356.991 99.1538 356.978 99.2086 356.91C99.9311 356.013 100.843 355.864 100.852 355.863C101.526 355.057 99.8176 355.452 98.9637 356.582C98.8755 356.687 98.9003 356.885 99.0086 356.95Z" fill="#E8C0A6"/>
<path d="M103.614 360.897L95.0856 355.328C94.985 355.684 94.9288 356.056 94.9438 356.435L102.717 361.511C103.1 361.762 103.569 361.447 103.614 360.897Z" fill="#CE3932"/>
<path d="M126.941 361.203L118.232 361.172C118.085 360.581 118.575 357.88 118.437 356.9C115.508 336.074 115.924 328.684 115.875 327.859L124.188 327.031L121.894 355.733C121.797 356.708 122.251 357.632 122.975 357.941C124.588 358.761 126.561 358.316 127.479 360.147C127.662 360.638 127.363 361.204 126.941 361.203Z" fill="#F99370"/>
<path d="M117.972 360.103C118.007 360.479 118.086 360.844 118.232 361.174L126.946 361.205C127.369 361.207 127.677 360.671 127.538 360.155C127.21 358.951 126.066 357.2 122.05 356.915C122.05 356.915 120.682 357.434 118.437 356.902C118.437 356.902 117.832 358.578 117.972 360.103Z" fill="#EB5648"/>
<path d="M125.087 359.696C125.379 358.78 126.035 358.225 126.059 358.274C126.272 358.169 126.142 357.739 125.93 357.85C125.9 357.866 125.191 358.234 124.81 359.436C124.736 359.649 124.956 359.85 125.087 359.696Z" fill="#E8C0A6"/>
<path d="M123.714 359.477C123.98 358.411 124.836 357.596 124.858 357.651C125.062 357.521 124.897 357.107 124.696 357.247C124.658 357.273 123.76 357.882 123.431 359.235C123.374 359.446 123.589 359.625 123.714 359.477Z" fill="#E8C0A6"/>
<path d="M122.154 359.223C122.559 357.714 123.524 357.29 123.359 356.922C123.119 356.563 122.332 357.539 121.873 358.974C121.809 359.186 122.026 359.374 122.154 359.223Z" fill="#E8C0A6"/>
<path d="M127.533 360.136L117.973 360.102C118.007 360.478 118.087 360.843 118.232 361.173L126.946 361.204C127.375 361.206 127.685 360.654 127.533 360.136Z" fill="#CE3932"/>
<path d="M120.61 279.545C131.439 276.465 137.81 262.595 137.889 248.929C137.938 247.34 136.135 246.798 135.626 248.224C131.627 259.712 128.808 267.218 118.949 271.244C114.739 272.669 116.393 280.921 120.61 279.545Z" fill="#F99370"/>
<path d="M113.551 271.223C101.068 271.816 88.0566 288.482 104.722 297.328C106.418 298.15 107.101 295.579 105.735 294.365C96.3162 284.623 107.575 281.146 114.309 279.74C118.595 278.944 117.856 270.744 113.551 271.223Z" fill="#F99370"/>
<path d="M96.6423 284.451C96.7352 284.985 96.8838 285.263 96.8838 285.263C96.8212 285.129 100.781 284.84 102.028 286.996C102.649 286.977 103.962 286.214 104.592 285.158C105.695 283.592 107.998 282.45 109.052 281.944L114.409 268.801C111.797 267.503 95.7622 274.628 96.6423 284.451Z" fill="#1D3F70"/>
<path d="M124.755 327.032C124.662 328.474 124.591 329.317 124.591 329.317C113.614 334.472 103.036 329.386 103.036 329.386C103.049 328.798 103.04 328.196 103.014 327.58C102.768 321.319 100.844 313.602 101.697 305.815C102.635 297.264 104.953 292.562 104.953 292.562L123.19 293.819C126.047 302.245 125.172 320.599 124.755 327.032Z" fill="#3A72AA"/>
<path d="M134.951 244.2C135.426 244.079 135.464 245.558 135.78 245.955C136.124 245.056 136.269 244.022 136.274 244.019C136.27 242.778 136.214 241.54 136.114 240.304C136.721 238.587 137.03 243.318 137.126 243.775C137.131 243.776 137.135 243.776 137.14 243.777C137.347 242.505 137.5 241.215 137.567 239.918C138.493 238.333 137.937 243.578 137.924 244.07C137.926 244.071 137.928 244.073 137.93 244.074C138.282 242.92 138.524 241.71 138.663 240.482C139.706 238.992 138.821 244.263 138.683 244.729C138.685 244.733 138.688 244.736 138.691 244.739C139.07 243.884 139.364 242.967 139.619 242.039C140.745 240.83 139.476 245.25 139.314 245.659C139.311 246.013 138.769 247.696 137.773 249.504C137.446 250.097 135.972 249.372 135.735 248.727C135.512 248.123 135.391 247.224 135.34 246.9C135.162 246.292 134.487 244.655 134.951 244.2Z" fill="#F99370"/>
<path d="M105.315 328.55L104.593 328.459C104.597 328.403 105.01 322.742 104.289 312.462C103.555 302.013 106.637 292.478 106.668 292.383L107.337 292.747C107.306 292.84 104.295 302.168 105.012 312.378C105.74 322.757 105.32 328.493 105.315 328.55Z" fill="#23659B"/>
<path d="M122.533 329.048L121.813 328.922C123.527 312.621 120.705 293.759 120.676 293.57L121.388 293.391C121.417 293.581 124.262 312.595 122.533 329.048Z" fill="#23659B"/>
<path d="M119.509 329.899L118.785 329.84C119.388 317.47 118.064 294.139 118.051 293.905L118.775 293.836C118.788 294.071 120.115 317.465 119.509 329.899Z" fill="#23659B"/>
<path d="M116.249 329.871L115.523 329.868C115.523 329.776 115.537 320.548 114.994 312.62C114.448 304.635 114.988 293.947 114.994 293.84L115.718 293.902C115.713 294.008 115.176 304.625 115.718 312.538C116.263 320.509 116.249 329.778 116.249 329.871Z" fill="#23659B"/>
<path d="M111.633 329.884L110.908 329.852C110.91 329.765 111.135 321.004 110.908 312.594C110.679 304.121 111.992 293.698 112.005 293.594L112.721 293.745C112.708 293.849 111.407 304.183 111.633 312.561C111.862 321.005 111.636 329.796 111.633 329.884Z" fill="#23659B"/>
<path d="M108.432 329.041L107.709 328.954C107.983 325.177 107.913 321.549 107.808 316.056C107.777 314.423 107.742 312.571 107.713 310.54C107.591 301.932 109.412 293.232 109.43 293.145L110.131 293.391C110.113 293.476 108.319 302.052 108.439 310.523C108.467 312.551 108.503 314.401 108.534 316.033C108.636 321.36 108.71 325.209 108.432 329.041Z" fill="#23659B"/>
<path d="M114.748 263.963L114.377 269.121L117.488 269.492L117.859 264.334L114.748 263.963Z" fill="#F99370"/>
<path d="M112.146 260.17C111.835 268.069 121.716 268.084 121.317 260.066C121.295 258.484 120.935 257.39 120.91 254.868C120.853 249.03 114.495 247.962 113.487 253.939C113.09 256.297 112.289 257.975 112.146 260.17Z" fill="#F99370"/>
<path d="M101.504 286.393C101.69 286.57 101.867 286.769 102.029 286.998C102.029 286.998 103.426 286.904 104.593 285.16C105.537 283.751 107.874 282.518 108.73 282.099L107.82 278.41C107.82 278.41 105.434 281.197 104.206 283.938C103.008 286.614 101.572 286.404 101.504 286.393Z" fill="#103663"/>
<path d="M104.953 292.564C104.953 292.564 112.433 296.124 123.19 293.821C123.436 290.479 123.438 284.069 122.765 279.89C121.338 266.133 108.963 261.88 106.871 284.072C106.387 287.794 106.095 289.497 104.953 292.564Z" fill="#1D3F70"/>
<path d="M117.516 269.267L122.767 279.889C129.496 277.352 137.488 269.516 136.662 262.722L136.661 262.722C136.478 261.811 136.153 261.318 136.153 261.318C133.226 261.343 131.642 258.469 131.642 258.469C127.034 259.816 127.532 268.411 117.516 269.267Z" fill="#1D3F70"/>
<path d="M120.45 251.833C120.45 251.833 122.804 252.838 120.301 257.691C118.754 260.691 122.701 265.232 119.536 269.303C112.191 281.746 91.212 275.425 102.648 262.055C106.077 259.68 105.928 257.25 107.079 254.196C108.612 250.129 115.564 242.482 120.45 251.833Z" fill="#662948"/>
<path d="M96.6426 284.453C96.7355 284.987 96.884 285.265 96.884 285.265C96.8215 285.131 100.782 284.842 102.028 286.997C102.028 286.997 102.456 286.968 103.037 286.646C103.037 286.646 100.581 282.416 96.6426 284.453Z" fill="#103663"/>
<path d="M130.268 259.029C133.721 263.988 136.659 262.722 136.659 262.722C136.477 261.811 136.152 261.318 136.152 261.318C133.225 261.343 131.64 258.469 131.64 258.469C131.121 258.517 130.674 258.716 130.268 259.029Z" fill="#103663"/>
<path d="M121.033 278.055C121.101 278.289 123.277 285.832 123.292 290.876C123.367 287.866 123.27 283.274 122.766 279.888C122.72 279.878 122.125 279.559 121.033 278.055Z" fill="#103663"/>
<path d="M124.756 327.031C124.663 328.473 124.593 329.316 124.593 329.316C113.615 334.471 103.037 329.385 103.037 329.385C103.05 328.797 103.041 328.196 103.016 327.58L103.017 327.578C103.017 327.578 114.703 331.996 124.756 327.031Z" fill="#23659B"/>
</g>
<defs>
<clipPath id="clip0_2927_147873">
<rect width="470" height="396.275" fill="white" transform="translate(0 0.914062)"/>
</clipPath>
</defs>
</svg>
