<svg width="470" height="398" viewBox="0 0 470 398" fill="none" xmlns="http://www.w3.org/2000/svg">
<g clip-path="url(#clip0_2927_153523)">
<path d="M470 0.914062H0V397.189H470V0.914062Z" fill="#E9F6F3"/>
<path d="M399.517 260.366C399.517 261.598 398.516 262.599 397.284 262.599C396.05 262.599 395.051 261.599 395.051 260.366C395.051 259.132 396.051 258.133 397.284 258.133C398.516 258.133 399.517 259.133 399.517 260.366Z" fill="#9DD0FF"/>
<path d="M399.688 249.459C399.688 250.693 398.688 251.692 397.456 251.692C396.223 251.692 395.223 250.693 395.223 249.459C395.223 248.227 396.223 247.227 397.456 247.227C398.688 247.227 399.688 248.227 399.688 249.459Z" fill="#9DD0FF"/>
<path d="M399.688 238.553C399.688 239.787 398.688 240.786 397.456 240.786C396.223 240.786 395.223 239.787 395.223 238.553C395.223 237.32 396.223 236.32 397.456 236.32C398.688 236.32 399.688 237.32 399.688 238.553Z" fill="#9DD0FF"/>
<path opacity="0.88" d="M329.782 0.928679C307.018 1.30611 286.082 8.94709 269.134 21.5997C254.379 17.5385 238.806 15.4847 222.731 15.7509C132.001 17.2533 59.6665 92.024 61.1699 182.755C61.2233 186.005 61.3744 189.23 61.6143 192.43C44.0849 211.451 33.553 236.98 34.0146 264.885C34.9695 322.525 82.4699 368.479 140.111 367.524C165.024 367.111 187.749 357.999 205.452 343.136C212.887 344.038 220.473 344.444 228.174 344.317C313.881 342.898 383.171 276.098 389.314 192.227C417.891 173.186 436.49 140.453 435.879 103.568C434.924 45.9274 387.423 -0.0262182 329.782 0.928679Z" fill="#ACCFFD"/>
<mask id="mask0_2927_153523" style="mask-type:luminance" maskUnits="userSpaceOnUse" x="34" y="0" width="402" height="368">
<path d="M329.782 0.928679C307.018 1.30611 286.082 8.94709 269.134 21.5997C254.379 17.5385 238.806 15.4847 222.731 15.7509C132.001 17.2533 59.6665 92.024 61.1699 182.755C61.2233 186.005 61.3744 189.23 61.6143 192.43C44.0849 211.451 33.553 236.98 34.0146 264.885C34.9695 322.525 82.4699 368.479 140.111 367.524C165.024 367.111 187.749 357.999 205.452 343.136C212.887 344.038 220.473 344.444 228.174 344.317C313.881 342.898 383.171 276.098 389.314 192.227C417.891 173.186 436.49 140.453 435.879 103.568C434.924 45.9274 387.423 -0.0262182 329.782 0.928679Z" fill="white"/>
</mask>
<g mask="url(#mask0_2927_153523)">
<path d="M294.737 179.485L55.7321 198.443C51.1586 198.806 47.1562 195.392 46.7932 190.819L31.8136 1.97081C31.4506 -2.60274 34.8647 -6.60517 39.4383 -6.96812L278.443 -25.9267C283.018 -26.2896 287.019 -22.8755 287.382 -18.302L302.362 170.545C302.725 175.119 299.311 179.122 294.737 179.485Z" stroke="white" stroke-width="1.5883" stroke-miterlimit="10"/>
</g>
<mask id="mask1_2927_153523" style="mask-type:luminance" maskUnits="userSpaceOnUse" x="34" y="0" width="402" height="368">
<path d="M329.782 0.928679C307.018 1.30611 286.082 8.94709 269.134 21.5997C254.379 17.5385 238.806 15.4847 222.731 15.7509C132.001 17.2533 59.6665 92.024 61.1699 182.755C61.2233 186.005 61.3744 189.23 61.6143 192.43C44.0849 211.451 33.553 236.98 34.0146 264.885C34.9695 322.525 82.4699 368.479 140.111 367.524C165.024 367.111 187.749 357.999 205.452 343.136C212.887 344.038 220.473 344.444 228.174 344.317C313.881 342.898 383.171 276.098 389.314 192.227C417.891 173.186 436.49 140.453 435.879 103.568C434.924 45.9274 387.423 -0.0262182 329.782 0.928679Z" fill="white"/>
</mask>
<g mask="url(#mask1_2927_153523)">
<path d="M487.317 362.019L248.312 380.978C243.739 381.341 239.736 377.926 239.373 373.353L224.394 184.506C224.031 179.932 227.445 175.93 232.018 175.567L471.023 156.608C475.598 156.246 479.599 159.66 479.962 164.233L494.942 353.08C495.305 357.655 491.891 361.656 487.317 362.019Z" stroke="white" stroke-width="1.5883" stroke-miterlimit="10"/>
</g>
<mask id="mask2_2927_153523" style="mask-type:luminance" maskUnits="userSpaceOnUse" x="34" y="0" width="402" height="368">
<path d="M329.782 0.928679C307.018 1.30611 286.082 8.94709 269.134 21.5997C254.379 17.5385 238.806 15.4847 222.731 15.7509C132.001 17.2533 59.6665 92.024 61.1699 182.755C61.2233 186.005 61.3744 189.23 61.6143 192.43C44.0849 211.451 33.553 236.98 34.0146 264.885C34.9695 322.525 82.4699 368.479 140.111 367.524C165.024 367.111 187.749 357.999 205.452 343.136C212.887 344.038 220.473 344.444 228.174 344.317C313.881 342.898 383.171 276.098 389.314 192.227C417.891 173.186 436.49 140.453 435.879 103.568C434.924 45.9274 387.423 -0.0262182 329.782 0.928679Z" fill="white"/>
</mask>
<g mask="url(#mask2_2927_153523)">
<path d="M575.298 174.296L336.293 193.255C331.718 193.618 327.717 190.204 327.354 185.63L312.374 -3.2167C312.011 -7.79025 315.425 -11.7927 319.999 -12.1556L559.004 -31.1142C563.578 -31.4771 567.58 -28.063 567.943 -23.4895L582.922 165.357C583.285 169.931 579.872 173.933 575.298 174.296Z" stroke="white" stroke-width="1.5883" stroke-miterlimit="10"/>
</g>
<mask id="mask3_2927_153523" style="mask-type:luminance" maskUnits="userSpaceOnUse" x="34" y="0" width="402" height="368">
<path d="M329.782 0.928679C307.018 1.30611 286.082 8.94709 269.134 21.5997C254.379 17.5385 238.806 15.4847 222.731 15.7509C132.001 17.2533 59.6665 92.024 61.1699 182.755C61.2233 186.005 61.3744 189.23 61.6143 192.43C44.0849 211.451 33.553 236.98 34.0146 264.885C34.9695 322.525 82.4699 368.479 140.111 367.524C165.024 367.111 187.749 357.999 205.452 343.136C212.887 344.038 220.473 344.444 228.174 344.317C313.881 342.898 383.171 276.098 389.314 192.227C417.891 173.186 436.49 140.453 435.879 103.568C434.924 45.9274 387.423 -0.0262182 329.782 0.928679Z" fill="white"/>
</mask>
<g mask="url(#mask3_2927_153523)">
<path d="M428.303 483.031L35.2234 514.21C29.4008 514.672 24.3059 510.327 23.8443 504.504L9.22308 320.179C8.76147 314.356 13.1069 309.262 18.9304 308.8L412.009 277.62C417.832 277.158 422.927 281.503 423.389 287.326L438.01 471.651C438.471 477.475 434.126 482.569 428.303 483.031Z" stroke="white" stroke-width="1.0589" stroke-miterlimit="10"/>
</g>
<mask id="mask4_2927_153523" style="mask-type:luminance" maskUnits="userSpaceOnUse" x="34" y="0" width="402" height="368">
<path d="M329.782 0.928679C307.018 1.30611 286.082 8.94709 269.134 21.5997C254.379 17.5385 238.806 15.4847 222.731 15.7509C132.001 17.2533 59.6665 92.024 61.1699 182.755C61.2233 186.005 61.3744 189.23 61.6143 192.43C44.0849 211.451 33.553 236.98 34.0146 264.885C34.9695 322.525 82.4699 368.479 140.111 367.524C165.024 367.111 187.749 357.999 205.452 343.136C212.887 344.038 220.473 344.444 228.174 344.317C313.881 342.898 383.171 276.098 389.314 192.227C417.891 173.186 436.49 140.453 435.879 103.568C434.924 45.9274 387.423 -0.0262182 329.782 0.928679Z" fill="white"/>
</mask>
<g mask="url(#mask4_2927_153523)">
<path d="M43.0977 177.574L301.533 157.074" stroke="white" stroke-width="1.5883" stroke-miterlimit="10"/>
</g>
<mask id="mask5_2927_153523" style="mask-type:luminance" maskUnits="userSpaceOnUse" x="34" y="0" width="402" height="368">
<path d="M329.782 0.928679C307.018 1.30611 286.082 8.94709 269.134 21.5997C254.379 17.5385 238.806 15.4847 222.731 15.7509C132.001 17.2533 59.6665 92.024 61.1699 182.755C61.2233 186.005 61.3744 189.23 61.6143 192.43C44.0849 211.451 33.553 236.98 34.0146 264.885C34.9695 322.525 82.4699 368.479 140.111 367.524C165.024 367.111 187.749 357.999 205.452 343.136C212.887 344.038 220.473 344.444 228.174 344.317C313.881 342.898 383.171 276.098 389.314 192.227C417.891 173.186 436.49 140.453 435.879 103.568C434.924 45.9274 387.423 -0.0262182 329.782 0.928679Z" fill="white"/>
</mask>
<g mask="url(#mask5_2927_153523)">
<path d="M230.201 324.743C230.305 326.055 229.327 327.203 228.015 327.307C226.704 327.411 225.556 326.432 225.453 325.121C225.349 323.809 226.327 322.663 227.639 322.558C228.949 322.454 230.097 323.432 230.201 324.743Z" fill="white"/>
<path d="M229.463 313.131C229.567 314.442 228.589 315.589 227.277 315.693C225.966 315.797 224.818 314.819 224.715 313.507C224.611 312.196 225.589 311.049 226.9 310.945C228.212 310.841 229.359 311.819 229.463 313.131Z" fill="white"/>
<path d="M228.543 301.533C228.647 302.845 227.669 303.992 226.357 304.096C225.046 304.2 223.898 303.221 223.795 301.91C223.691 300.598 224.669 299.452 225.981 299.347C227.291 299.243 228.439 300.222 228.543 301.533Z" fill="white"/>
</g>
<path d="M376.622 319.399H295.828C294.396 319.399 293.234 318.238 293.234 316.805V296.051C293.234 294.618 294.396 293.457 295.828 293.457H376.622C378.055 293.457 379.216 294.618 379.216 296.051V316.805C379.217 318.238 378.055 319.399 376.622 319.399Z" fill="#FD9090"/>
<path opacity="0.49" d="M374.769 309.024H305.093C304.686 309.024 304.352 308.691 304.352 308.282V306.8C304.352 306.393 304.685 306.059 305.093 306.059H374.769C375.176 306.059 375.51 306.392 375.51 306.8V308.282C375.51 308.691 375.177 309.024 374.769 309.024Z" fill="white"/>
<path opacity="0.49" d="M349.713 314.211H304.949C304.621 314.211 304.354 313.943 304.354 313.616V311.842C304.354 311.514 304.621 311.246 304.949 311.246H349.713C350.041 311.246 350.309 311.514 350.309 311.842V313.616C350.309 313.943 350.041 314.211 349.713 314.211Z" fill="white"/>
<path d="M348.241 301.609H304.939C304.617 301.609 304.354 301.345 304.354 301.023V299.23C304.354 298.908 304.617 298.645 304.939 298.645H348.241C348.563 298.645 348.826 298.908 348.826 299.23V301.023C348.827 301.345 348.563 301.609 348.241 301.609Z" fill="white"/>
<path d="M398.326 284.357H120.791C115.479 284.357 111.174 280.052 111.174 274.74V55.4489C111.174 50.1377 115.479 45.832 120.791 45.832H398.326C403.637 45.832 407.943 50.1377 407.943 55.4489V274.739C407.943 280.052 403.637 284.357 398.326 284.357Z" fill="#494391"/>
<path d="M393.918 279.939H115.099C110.021 279.939 105.904 275.823 105.904 270.744V50.6091C105.904 45.5305 110.022 41.4141 115.099 41.4141H393.918C398.997 41.4141 403.113 45.5314 403.113 50.6091V270.744C403.114 275.822 398.997 279.939 393.918 279.939Z" fill="white"/>
<mask id="mask6_2927_153523" style="mask-type:luminance" maskUnits="userSpaceOnUse" x="105" y="41" width="299" height="239">
<path d="M393.918 279.939H115.099C110.021 279.939 105.904 275.823 105.904 270.744V50.6091C105.904 45.5305 110.022 41.4141 115.099 41.4141H393.918C398.997 41.4141 403.113 45.5314 403.113 50.6091V270.744C403.114 275.822 398.997 279.939 393.918 279.939Z" fill="white"/>
</mask>
<g mask="url(#mask6_2927_153523)">
<path d="M434.696 25.0078H69.2461V78.0132H434.696V25.0078Z" fill="#7B87F4"/>
</g>
<path d="M387.97 86.8477H120.418V268.581H387.97V86.8477Z" stroke="#7B87F4" stroke-width="0.6972" stroke-miterlimit="10"/>
<path d="M157.332 86.5312V268.265" stroke="#7B87F4" stroke-width="0.6972" stroke-miterlimit="10"/>
<path d="M196.455 86.8477V268.58" stroke="#7B87F4" stroke-width="0.6972" stroke-miterlimit="10"/>
<path d="M234.947 86.5312V268.265" stroke="#7B87F4" stroke-width="0.6972" stroke-miterlimit="10"/>
<path d="M274.07 86.8477V268.58" stroke="#7B87F4" stroke-width="0.6972" stroke-miterlimit="10"/>
<path d="M310.67 86.5312V268.265" stroke="#7B87F4" stroke-width="0.6972" stroke-miterlimit="10"/>
<path d="M349.793 86.8477V268.58" stroke="#7B87F4" stroke-width="0.6972" stroke-miterlimit="10"/>
<path d="M120.732 124.391H388.285" stroke="#7B87F4" stroke-width="0.6972" stroke-miterlimit="10"/>
<path d="M121.049 160.359H388.601" stroke="#7B87F4" stroke-width="0.6972" stroke-miterlimit="10"/>
<path d="M120.732 196.328H388.285" stroke="#7B87F4" stroke-width="0.6972" stroke-miterlimit="10"/>
<path d="M121.049 232.297H388.601" stroke="#7B87F4" stroke-width="0.6972" stroke-miterlimit="10"/>
<path d="M126.413 58.4526C126.413 60.0212 125.141 61.292 123.574 61.292C122.005 61.292 120.734 60.0203 120.734 58.4526C120.734 56.8841 122.006 55.6133 123.574 55.6133C125.141 55.6133 126.413 56.8841 126.413 58.4526Z" fill="white"/>
<path d="M136.823 58.7651C136.823 60.3337 135.552 61.6045 133.984 61.6045C132.415 61.6045 131.145 60.3328 131.145 58.7651C131.145 57.1966 132.416 55.9258 133.984 55.9258C135.552 55.9249 136.823 57.1966 136.823 58.7651Z" fill="#FD9090"/>
<path d="M147.552 58.7651C147.552 60.3337 146.28 61.6045 144.712 61.6045C143.145 61.6045 141.873 60.3328 141.873 58.7651C141.873 57.1966 143.145 55.9258 144.712 55.9258C146.28 55.9258 147.552 57.1966 147.552 58.7651Z" fill="#FDC27B"/>
<path d="M316.98 223.776H248.199C246.98 223.776 245.99 222.788 245.99 221.568V203.9C245.99 202.68 246.98 201.691 248.199 201.691H316.98C318.2 201.691 319.189 202.681 319.189 203.9V221.569C319.189 222.788 318.2 223.776 316.98 223.776Z" fill="#ACCFFD"/>
<path d="M186.341 150.581H143.466C142.585 150.581 141.871 149.867 141.871 148.986V133.876C141.871 132.995 142.585 132.281 143.466 132.281H186.34C187.221 132.281 187.935 132.995 187.935 133.876V148.986C187.936 149.867 187.222 150.581 186.341 150.581Z" fill="#FDC27B"/>
<path d="M202.135 118.398H133.353C132.133 118.398 131.145 117.41 131.145 116.19V98.521C131.145 97.3018 132.133 96.3125 133.353 96.3125H202.135C203.355 96.3125 204.343 97.3018 204.343 98.521V116.19C204.343 117.41 203.355 118.398 202.135 118.398Z" fill="#FD9090"/>
<path d="M196.771 102.621H137.455C137.108 102.621 136.824 102.337 136.824 101.99V100.729C136.824 100.381 137.108 100.098 137.455 100.098H196.771C197.118 100.098 197.402 100.382 197.402 100.729V101.99C197.402 102.337 197.118 102.621 196.771 102.621Z" fill="white"/>
<path opacity="0.49" d="M196.771 107.039H137.455C137.108 107.039 136.824 106.755 136.824 106.408V105.146C136.824 104.8 137.108 104.516 137.455 104.516H196.771C197.118 104.516 197.402 104.8 197.402 105.146V106.408C197.402 106.755 197.118 107.039 196.771 107.039Z" fill="white"/>
<path opacity="0.49" d="M175.44 111.457H137.331C137.052 111.457 136.824 111.229 136.824 110.95V109.44C136.824 109.162 137.052 108.934 137.331 108.934H175.44C175.719 108.934 175.947 109.162 175.947 109.44V110.95C175.948 111.229 175.72 111.457 175.44 111.457Z" fill="white"/>
<path d="M335.911 259.117H267.13C265.91 259.117 264.922 258.129 264.922 256.908V239.24C264.922 238.02 265.91 237.031 267.13 237.031H335.911C337.131 237.031 338.119 238.02 338.119 239.24V256.908C338.119 258.129 337.131 259.117 335.911 259.117Z" fill="#FD9090"/>
<path opacity="0.49" d="M331.177 250.914H271.861C271.514 250.914 271.23 250.63 271.23 250.283V249.022C271.23 248.674 271.515 248.391 271.861 248.391H331.177C331.524 248.391 331.808 248.675 331.808 249.022V250.283C331.809 250.63 331.525 250.914 331.177 250.914Z" fill="white"/>
<path opacity="0.49" d="M309.846 255.332H271.737C271.459 255.332 271.23 255.104 271.23 254.825V253.315C271.23 253.037 271.459 252.809 271.737 252.809H309.846C310.125 252.809 310.353 253.037 310.353 253.315V254.825C310.354 255.104 310.126 255.332 309.846 255.332Z" fill="white"/>
<path d="M308.593 244.602H271.729C271.455 244.602 271.23 244.377 271.23 244.103V242.577C271.23 242.303 271.455 242.078 271.729 242.078H308.593C308.867 242.078 309.091 242.303 309.091 242.577V244.103C309.091 244.377 308.867 244.602 308.593 244.602Z" fill="white"/>
<path d="M296.156 182.762H227.374C226.154 182.762 225.166 181.773 225.166 180.553V162.884C225.166 161.664 226.154 160.676 227.374 160.676H296.156C297.376 160.676 298.365 161.664 298.365 162.884V180.553C298.365 181.772 297.375 182.762 296.156 182.762Z" fill="#ACCFFD"/>
<path opacity="0.49" d="M294.578 173.926H235.262C234.914 173.926 234.631 173.642 234.631 173.295V172.033C234.631 171.687 234.915 171.402 235.262 171.402H294.578C294.924 171.402 295.208 171.687 295.208 172.033V173.295C295.208 173.642 294.924 173.926 294.578 173.926Z" fill="white"/>
<path opacity="0.49" d="M273.247 178.344H235.138C234.859 178.344 234.631 178.116 234.631 177.837V176.327C234.631 176.048 234.859 175.82 235.138 175.82H273.247C273.525 175.82 273.754 176.048 273.754 176.327V177.837C273.754 178.116 273.525 178.344 273.247 178.344Z" fill="white"/>
<path d="M271.993 167.617H235.13C234.855 167.617 234.631 167.393 234.631 167.118V165.592C234.631 165.318 234.855 165.094 235.13 165.094H271.993C272.267 165.094 272.492 165.318 272.492 165.592V167.118C272.493 167.393 272.268 167.617 271.993 167.617Z" fill="white"/>
<path d="M384.327 148.055H314.63C313.664 148.055 312.879 147.271 312.879 146.304V135.923C312.879 134.957 313.663 134.172 314.63 134.172H384.327C385.295 134.172 386.078 134.956 386.078 135.923V146.304C386.077 147.271 385.294 148.055 384.327 148.055Z" fill="#FDC27B"/>
<path opacity="0.49" d="M377.244 145.531H317.928C317.581 145.531 317.297 145.247 317.297 144.9V143.639C317.297 143.292 317.581 143.008 317.928 143.008H377.244C377.59 143.008 377.874 143.292 377.874 143.639V144.9C377.874 145.247 377.59 145.531 377.244 145.531Z" fill="white"/>
<path d="M354.659 139.852H317.796C317.521 139.852 317.297 139.627 317.297 139.353V137.827C317.297 137.553 317.521 137.328 317.796 137.328H354.659C354.933 137.328 355.158 137.553 355.158 137.827V139.353C355.158 139.627 354.933 139.852 354.659 139.852Z" fill="white"/>
<path d="M147.843 193.487H125.804C124.572 193.487 123.572 192.488 123.572 191.255V169.216C123.572 167.984 124.572 166.984 125.804 166.984H147.843C149.076 166.984 150.075 167.984 150.075 169.216V191.255C150.075 192.488 149.076 193.487 147.843 193.487Z" fill="#FD9090"/>
<path d="M139.348 180.868C139.348 183.656 137.088 185.916 134.3 185.916C131.512 185.916 129.252 183.656 129.252 180.868C129.252 178.08 131.512 175.82 134.3 175.82C137.088 175.82 139.348 178.08 139.348 180.868Z" fill="white"/>
<path d="M339.042 120.292H317.004C315.771 120.292 314.771 119.293 314.771 118.06V96.0211C314.771 94.7883 315.771 93.7891 317.004 93.7891H339.042C340.275 93.7891 341.274 94.7883 341.274 96.0211V118.06C341.274 119.293 340.275 120.292 339.042 120.292Z" fill="#ACCFFD"/>
<path d="M325.499 102.306C325.499 103.526 324.511 104.515 323.291 104.515C322.07 104.515 321.082 103.526 321.082 102.306C321.082 101.086 322.07 100.098 323.291 100.098C324.51 100.098 325.499 101.087 325.499 102.306Z" fill="white"/>
<path d="M328.023 110.512C328.023 108.247 329.86 106.41 332.125 106.41C334.391 106.41 336.227 108.247 336.227 110.512C336.227 112.778 334.39 114.614 332.125 114.614C329.859 114.613 328.023 112.777 328.023 110.512Z" fill="white"/>
<path d="M224.827 274.889H202.789C201.556 274.889 200.557 273.89 200.557 272.657V250.619C200.557 249.386 201.556 248.387 202.789 248.387H224.827C226.06 248.387 227.059 249.386 227.059 250.619V272.657C227.059 273.89 226.06 274.889 224.827 274.889Z" fill="#FDC27B"/>
<path d="M219.487 268.896C219.487 270.116 218.499 271.104 217.279 271.104C216.059 271.104 215.07 270.115 215.07 268.896C215.07 267.676 216.059 266.688 217.279 266.688C218.499 266.688 219.487 267.677 219.487 268.896Z" fill="white"/>
<path d="M217.594 259.745C217.594 262.184 215.616 264.162 213.177 264.162C210.737 264.162 208.76 262.184 208.76 259.745C208.76 257.306 210.737 255.328 213.177 255.328C215.616 255.328 217.594 257.306 217.594 259.745Z" fill="white"/>
<path d="M385.762 61.6045H302.468C300.9 61.6045 299.629 60.3328 299.629 58.7651C299.629 57.1966 300.901 55.9258 302.468 55.9258H385.762C387.331 55.9258 388.602 57.1975 388.602 58.7651C388.602 60.3328 387.33 61.6045 385.762 61.6045Z" fill="#FDC27B"/>
<path d="M144.113 47.5401H63.3187C61.8859 47.5401 60.7246 46.3788 60.7246 44.946V24.1917C60.7246 22.7589 61.8859 21.5977 63.3187 21.5977H144.112C145.545 21.5977 146.706 22.7589 146.706 24.1917V44.946C146.707 46.3779 145.546 47.5401 144.113 47.5401Z" fill="#FDC27B"/>
<path opacity="0.49" d="M142.26 37.1644H72.585C72.1777 37.1644 71.8438 36.8313 71.8438 36.4231V34.9405C71.8438 34.5332 72.1768 34.1992 72.585 34.1992H142.26C142.668 34.1992 143.001 34.5332 143.001 34.9405V36.4231C143.001 36.8304 142.668 37.1644 142.26 37.1644Z" fill="white"/>
<path opacity="0.49" d="M117.205 42.3519H72.4393C72.1117 42.3519 71.8438 42.084 71.8438 41.7563V39.9823C71.8438 39.6546 72.1117 39.3867 72.4393 39.3867H117.205C117.532 39.3867 117.8 39.6546 117.8 39.9823V41.7563C117.8 42.084 117.532 42.3519 117.205 42.3519Z" fill="white"/>
<path d="M115.731 29.7494H72.4294C72.1071 29.7494 71.8438 29.486 71.8438 29.1638V27.3708C71.8438 27.0485 72.1071 26.7852 72.4294 26.7852H115.731C116.053 26.7852 116.317 27.0485 116.317 27.3708V29.1638C116.318 29.486 116.054 29.7494 115.731 29.7494Z" fill="white"/>
<path opacity="0.29" d="M148.239 396.916C175.391 396.916 197.401 394.755 197.401 392.089C197.401 389.423 175.391 387.262 148.239 387.262C121.088 387.262 99.0781 389.423 99.0781 392.089C99.0781 394.755 121.088 396.916 148.239 396.916Z" fill="#ACCFFD"/>
<path d="M158.816 379.202L160.481 388.021C160.481 388.021 159.649 393.014 160.481 393.845C161.313 394.677 180.371 394.083 181.286 393.289C183.413 391.444 165.889 387.688 165.889 387.688L164.807 376.039L158.816 379.202Z" fill="#FC8B8C"/>
<mask id="mask7_2927_153523" style="mask-type:luminance" maskUnits="userSpaceOnUse" x="158" y="376" width="24" height="19">
<path d="M158.816 379.202L160.481 388.021C160.481 388.021 159.649 393.014 160.481 393.845C161.313 394.677 180.371 394.083 181.286 393.289C183.413 391.444 165.889 387.688 165.889 387.688L164.807 376.039L158.816 379.202Z" fill="white"/>
</mask>
<g mask="url(#mask7_2927_153523)">
<path d="M156.598 388.409C156.598 388.409 167.38 389.74 172.972 384.193C178.564 378.646 182.336 397.505 182.336 397.505L165.894 402.387L152.826 395.73L156.598 388.409Z" fill="#494391"/>
</g>
<path d="M109.775 370.219L109.003 384.742C109.003 384.742 108.447 389.529 109.003 390.567C109.478 391.454 119.461 391.99 121.484 390.567C122.474 389.869 114.411 384.41 114.411 384.41L118.206 373.769L109.775 370.219Z" fill="#FC8B8C"/>
<mask id="mask8_2927_153523" style="mask-type:luminance" maskUnits="userSpaceOnUse" x="108" y="370" width="14" height="22">
<path d="M109.775 370.219L109.003 384.742C109.003 384.742 108.447 389.529 109.003 390.567C109.478 391.454 119.461 391.99 121.484 390.567C122.474 389.869 114.411 384.41 114.411 384.41L118.206 373.769L109.775 370.219Z" fill="white"/>
</mask>
<g mask="url(#mask8_2927_153523)">
<path d="M105.12 385.132C105.12 385.132 115.903 386.463 121.495 380.916C127.087 375.369 130.858 394.228 130.858 394.228L114.418 399.109L101.35 392.453L105.12 385.132Z" fill="#494391"/>
</g>
<path d="M215.213 145.431L221.064 140.009C221.064 140.009 223.707 133.402 226.35 132.08C228.993 130.759 229.984 129.768 230.645 129.437C231.306 129.107 235.931 121.839 236.922 122.499C237.913 123.16 232.627 131.089 232.627 131.089C232.627 131.089 234.61 134.723 234.61 137.036C234.61 139.348 226.02 143.643 226.02 143.643L218.752 154.875L215.213 145.431Z" fill="#FC8B8C"/>
<path d="M149.539 103.296C150.069 105.519 149.569 107.542 148.424 107.814C147.279 108.087 145.923 106.505 145.393 104.283C144.864 102.06 145.363 100.037 146.508 99.7649C147.653 99.4925 149.011 101.074 149.539 103.296Z" stroke="#494391" stroke-width="0.6403" stroke-miterlimit="10"/>
<path d="M165.896 240.813V382.599L153.439 383.818L141.016 270.571L119.151 378.978L108.57 379.279L116.521 240.477L165.896 240.813Z" fill="#FDC27B"/>
<mask id="mask9_2927_153523" style="mask-type:luminance" maskUnits="userSpaceOnUse" x="108" y="240" width="58" height="144">
<path d="M165.896 240.813V382.599L153.439 383.818L141.016 270.571L119.151 378.978L108.57 379.279L116.521 240.477L165.896 240.813Z" fill="white"/>
</mask>
<g mask="url(#mask9_2927_153523)">
<path opacity="0.35" d="M137.813 284.943C138.128 285.048 138.443 284.471 138.744 283.493C139.881 279.802 140.822 270.399 140.822 270.399L140.32 251.344C140.32 251.344 135.306 263.88 136.81 266.889C138.314 269.898 127.282 270.901 131.294 275.916C135.306 280.93 126.28 284.943 134.804 290.96C143.33 296.978 137.813 284.943 137.813 284.943Z" fill="#FDC27B"/>
</g>
<mask id="mask10_2927_153523" style="mask-type:luminance" maskUnits="userSpaceOnUse" x="108" y="240" width="58" height="144">
<path d="M165.896 240.813V382.599L153.439 383.818L141.016 270.571L119.151 378.978L108.57 379.279L116.521 240.477L165.896 240.813Z" fill="white"/>
</mask>
<g mask="url(#mask10_2927_153523)">
<path d="M152.106 260.121C147.406 260.121 143.582 253.259 143.582 244.826C143.582 236.392 147.406 229.531 152.106 229.531C156.808 229.531 160.632 236.393 160.632 244.826C160.632 253.259 156.808 260.121 152.106 260.121ZM152.106 230.033C147.682 230.033 144.083 236.669 144.083 244.826C144.083 252.983 147.683 259.619 152.106 259.619C156.531 259.619 160.13 252.983 160.13 244.826C160.13 236.669 156.531 230.033 152.106 230.033Z" fill="#494391"/>
</g>
<mask id="mask11_2927_153523" style="mask-type:luminance" maskUnits="userSpaceOnUse" x="108" y="240" width="58" height="144">
<path d="M165.896 240.813V382.599L153.439 383.818L141.016 270.571L119.151 378.978L108.57 379.279L116.521 240.477L165.896 240.813Z" fill="white"/>
</mask>
<g mask="url(#mask11_2927_153523)">
<path d="M124.869 260.193C124.573 260.193 124.277 260.166 123.984 260.112C119.363 259.252 116.858 251.808 118.401 243.516C119.943 235.226 124.961 229.178 129.579 230.039C134.2 230.898 136.705 238.343 135.162 246.635C133.719 254.398 129.229 260.193 124.869 260.193ZM128.675 230.457C124.562 230.457 120.293 236.085 118.893 243.608C117.401 251.627 119.726 258.81 124.076 259.62C128.423 260.427 133.177 254.563 134.669 246.543C136.161 238.523 133.836 231.341 129.486 230.531C129.218 230.481 128.947 230.457 128.675 230.457Z" fill="#494391"/>
</g>
<mask id="mask12_2927_153523" style="mask-type:luminance" maskUnits="userSpaceOnUse" x="108" y="240" width="58" height="144">
<path d="M165.896 240.813V382.599L153.439 383.818L141.016 270.571L119.151 378.978L108.57 379.279L116.521 240.477L165.896 240.813Z" fill="white"/>
</mask>
<g mask="url(#mask12_2927_153523)">
<path d="M113.744 242.317C113.744 242.317 143.832 251.344 166.9 242.317C189.967 233.29 116.251 230.282 113.744 242.317Z" fill="#494391"/>
</g>
<mask id="mask13_2927_153523" style="mask-type:luminance" maskUnits="userSpaceOnUse" x="108" y="240" width="58" height="144">
<path d="M165.896 240.813V382.599L153.439 383.818L141.016 270.571L119.151 378.978L108.57 379.279L116.521 240.477L165.896 240.813Z" fill="white"/>
</mask>
<g mask="url(#mask13_2927_153523)">
<path d="M105.878 292.842C108.789 292.842 108.795 288.316 105.878 288.316C102.965 288.316 102.96 292.842 105.878 292.842Z" fill="#494391"/>
</g>
<mask id="mask14_2927_153523" style="mask-type:luminance" maskUnits="userSpaceOnUse" x="108" y="240" width="58" height="144">
<path d="M165.896 240.813V382.599L153.439 383.818L141.016 270.571L119.151 378.978L108.57 379.279L116.521 240.477L165.896 240.813Z" fill="white"/>
</mask>
<g mask="url(#mask14_2927_153523)">
<path d="M162.029 238.723V386.821" stroke="#494391" stroke-width="0.5" stroke-miterlimit="10"/>
</g>
<path d="M141.788 137.792C141.788 137.792 146.316 133.236 166.208 144.99C186.099 156.745 187.908 157.649 187.908 157.649L215.937 135.949L224.98 146.8C224.98 146.8 203.627 181.34 190.969 183.148C178.311 184.957 164.893 178.635 164.893 178.635L167.4 242.321C167.4 242.321 140.822 248.84 115.748 240.817L107.436 194.721C107.436 194.721 97.4895 188.392 99.2979 166.691C101.106 144.991 123.409 135.949 123.409 135.949L141.788 137.792Z" fill="#7588EC"/>
<path d="M139.5 125.188C148.626 126.504 149.334 122.844 148.795 112.912C148.257 102.981 143.602 95.258 143.602 95.258C127.089 84.8555 126.536 109.202 127.41 122.897C127.757 128.335 125.358 133.581 120.998 136.851C130.04 144.989 143.602 136.851 143.602 136.851L143.457 136.632C141.181 133.218 139.818 129.278 139.5 125.188Z" fill="#FC8B8C"/>
<path d="M138.011 114.402C138.011 114.402 138.402 121.625 133.132 124.627C127.861 127.63 112.878 118.481 113.46 95.8113C113.46 95.8113 120.999 84.5372 130.881 83.0954C140.763 81.6544 141.057 87.0715 141.057 87.0715C141.057 87.0715 145.473 85.0214 146.669 90.3897C147.866 95.7579 137.178 99.0534 137.178 99.0534C137.178 99.0534 141.231 106.983 139.62 110.693C138.011 114.402 138.011 114.402 138.011 114.402Z" fill="#0F0F0F"/>
<path d="M186.859 183.535C167.348 183.535 158.775 173.886 158.686 173.782L159.065 173.453C159.159 173.563 168.791 184.372 190.952 182.895C191.006 182.891 196.949 182.279 204.559 173.454L204.939 173.781C197.178 182.781 191.239 183.374 190.99 183.395C189.564 183.491 188.184 183.535 186.859 183.535Z" fill="#494391"/>
<path d="M104.215 173.829L103.721 173.914L109.901 209.786L110.395 209.7L104.215 173.829Z" fill="#494391"/>
<path d="M115.774 96.7423C114.617 95.7675 113.638 94.6415 112.846 93.3526C112.466 92.7353 111.49 93.301 111.872 93.9219C112.712 95.2887 113.75 96.506 114.977 97.5406C115.528 98.0049 116.33 97.2111 115.774 96.7423Z" fill="#0F0F0F"/>
<path d="M115.544 96.1623C114.268 95.7414 112.955 95.5532 111.613 95.5957C110.889 95.6184 110.885 96.747 111.613 96.7244C112.861 96.6855 114.058 96.8602 115.244 97.2512C115.935 97.4784 116.232 96.3886 115.544 96.1623Z" fill="#0F0F0F"/>
<path d="M136.561 110.182L149.325 102.555" stroke="#494391" stroke-width="0.6403" stroke-miterlimit="10"/>
<path d="M139.321 110.655C140.632 112.161 140.78 114.181 139.65 115.165C138.52 116.148 136.541 115.725 135.229 114.219C133.918 112.713 133.77 110.693 134.9 109.71C136.03 108.727 138.008 109.148 139.321 110.655Z" fill="#FC8B8C"/>
</g>
<defs>
<clipPath id="clip0_2927_153523">
<rect width="470" height="396.275" fill="white" transform="translate(0 0.914062)"/>
</clipPath>
</defs>
</svg>
