<svg width="466" height="387" viewBox="0 0 466 387" fill="none" xmlns="http://www.w3.org/2000/svg">
<path d="M47.9606 270.015C46.6625 272.907 45.3269 275.789 44.2558 278.755C29.1558 320.582 71.8724 357.793 112.332 368.975C134.997 375.238 158.772 374.371 181.217 367.888C202.856 361.639 224.963 354.142 248.055 355.412C281.841 357.273 302.5 382.145 333.134 389.997C343.678 392.7 355.138 393.173 365.486 389.896C388.76 382.524 405.504 356.658 411.124 335.842C418.516 308.464 407.869 280.935 394.866 256.456C375.746 220.461 369.112 183.434 398.577 150.044C429.604 114.884 446.612 67.4351 405.408 31.863C374.896 5.52082 326.885 -1.39961 286.788 5.6385C278.044 7.17322 269.437 9.42969 261.22 12.5707C239.432 20.8994 221.655 35.9768 209.416 54.2669C195.426 75.1734 191.966 100.246 177.903 121.02C154.777 155.183 109.425 144.858 78.0916 166.538C63.0379 176.955 52.9892 193.047 50.3319 210.067C47.1841 230.234 56.8102 250.294 47.9606 270.015Z" fill="#C8EEFB"/>
<path d="M97.3494 7.65999C64.0062 22.1912 42.3968 58.085 56.1782 92.1958C71.4448 129.985 116.737 122.906 142.234 98.7564C155.025 86.6414 167.504 71.5071 173.915 55.6108C178.369 44.5667 179.195 31.7477 173.149 21.3518C164.839 7.06277 145.554 0.682674 127.819 0.982752C117.083 1.16515 106.751 3.56382 97.3494 7.65999Z" fill="#C8EEFB"/>
<path d="M440.274 226.26C455.909 211.138 459.582 186.107 443.333 169.281C425.332 150.64 401.006 163.9 392.231 182.965C387.829 192.528 384.342 203.765 384.533 214.21C384.665 221.467 387.317 229.008 393.331 233.761C401.596 240.295 414.247 240.053 424.375 236.282C430.507 234 435.866 230.524 440.274 226.26Z" fill="#C8EEFB"/>
<path d="M39.2851 300.452H426.141V281.218C426.141 256.61 404.264 236.66 377.278 236.66C372.289 236.66 367.477 237.346 362.943 238.613C348.617 215.066 321.086 199.12 289.462 199.12C282.102 199.12 274.966 199.99 268.164 201.611C263.902 175.91 239.576 156.211 210.202 156.211C178.602 156.211 152.854 179.012 151.635 207.555C141.693 203.507 130.687 201.237 119.095 201.237C74.9588 201.237 39.1797 233.864 39.1797 274.11C39.1797 275.369 39.2152 276.619 39.284 277.861L39.2851 300.452Z" fill="#FFC7CA"/>
<path d="M435.314 300.453H30.0078V303.961H435.314V300.453Z" fill="#FFDFEE"/>
<path d="M82.2667 218.119C82.2667 218.119 60.5067 246.602 20.084 233.23C20.084 233.23 44.1862 202.974 82.2667 218.119Z" fill="#7DBF8D"/>
<path d="M21.2384 181.579L14.203 187.267C20.6125 195.869 29.6707 204.644 42.2843 210.892L50.0348 204.412L49.7025 214.097C53.4406 215.491 57.4466 216.667 61.7353 217.574L67.5146 213.875L66.4392 218.447C72.0572 219.332 78.1268 219.767 84.6858 219.649C84.6858 219.649 79.5485 202.275 65.2971 186.006L56.9357 188.061L61.3944 181.824C57.3498 177.759 52.69 173.872 47.3473 170.465L42.3714 174.291L43.4049 168.112C31.9581 161.737 17.6745 157.623 0 158.299C0 158.299 2.62724 169.93 11.2596 183.064L21.2384 181.579Z" fill="#A0DAB0"/>
<path d="M0 158.297C7.629 162.714 15.0139 167.452 22.2998 172.306C25.9605 174.713 29.5406 177.217 33.1465 179.689C36.7276 182.19 40.2765 184.73 43.8243 187.272C47.3452 189.844 50.851 192.433 54.3386 195.044C57.7896 197.694 61.2815 200.299 64.6712 203.016C71.5141 208.381 78.2085 213.905 84.6869 219.647C77.4117 214.758 70.3161 209.692 63.2086 204.639L52.5814 197.027L41.9885 189.379L31.4301 181.691L20.9018 173.966C13.8901 168.804 6.90417 163.61 0 158.297Z" fill="#7DBF8D"/>
<path d="M86.7871 214.618C86.7871 214.618 54.2053 196.666 66.2144 159.016C66.2144 159.016 100.889 178.985 86.7871 214.618Z" fill="#7DBF8D"/>
<path d="M88.3824 216.566C88.3824 216.566 91.1204 251.189 50.4751 263.987C50.4751 263.987 48.3339 226.642 88.3824 216.566Z" fill="#A0DAB0"/>
<path d="M383.057 218.119C383.057 218.119 404.817 246.602 445.239 233.23C445.239 233.23 421.137 202.974 383.057 218.119Z" fill="#7DBF8D"/>
<path d="M444.083 181.579L451.119 187.267C444.709 195.869 435.651 204.644 423.037 210.892L415.286 204.412L415.618 214.097C411.88 215.491 407.874 216.667 403.585 217.574L397.806 213.875L398.881 218.447C393.263 219.332 387.194 219.767 380.635 219.649C380.635 219.649 385.772 202.275 400.023 186.006L408.385 188.061L403.926 181.824C407.971 177.759 412.631 173.872 417.973 170.465L422.949 174.291L421.916 168.112C433.362 161.737 447.647 157.623 465.321 158.299C465.321 158.299 462.693 169.93 454.061 183.064L444.083 181.579Z" fill="#A0DAB0"/>
<path d="M465.322 158.297C457.693 162.714 450.308 167.452 443.022 172.306C439.361 174.713 435.781 177.217 432.175 179.689C428.593 182.19 425.045 184.73 421.497 187.272C417.976 189.844 414.471 192.433 410.983 195.044C407.532 197.694 404.04 200.299 400.65 203.016C393.809 208.381 387.113 213.905 380.635 219.647C387.91 214.758 395.006 209.692 402.113 204.639L412.74 197.027L423.333 189.379L433.892 181.691L444.42 173.966C451.432 168.804 458.417 163.61 465.322 158.297Z" fill="#7DBF8D"/>
<path d="M378.535 214.618C378.535 214.618 411.117 196.666 399.108 159.016C399.108 159.016 364.433 178.985 378.535 214.618Z" fill="#7DBF8D"/>
<path d="M376.939 216.566C376.939 216.566 374.201 251.189 414.846 263.987C414.846 263.987 416.987 226.642 376.939 216.566Z" fill="#A0DAB0"/>
<path d="M362.763 245.112H102.558C88.5915 245.112 77.2695 234.788 77.2695 222.052V50.3021C77.2695 37.5665 88.5915 27.2422 102.558 27.2422H362.763C376.73 27.2422 388.052 37.5665 388.052 50.3021V222.052C388.052 234.788 376.73 245.112 362.763 245.112Z" fill="#2B7AF0"/>
<path d="M102.558 239.708C91.8814 239.708 83.1953 231.787 83.1953 222.051V50.3011C83.1953 40.5652 91.8814 32.6445 102.558 32.6445H362.763C373.44 32.6445 382.125 40.5652 382.125 50.3011V222.051C382.125 231.787 373.439 239.708 362.763 239.708H102.558Z" fill="#F7F7F7"/>
<path d="M382.127 76.8943V50.3011C382.127 40.5652 373.44 32.6445 362.764 32.6445H102.558C91.8814 32.6445 83.1953 40.5652 83.1953 50.3011V76.8943H382.127Z" fill="#0B57C7"/>
<path d="M130.186 41.1102C130.186 37.8995 127.332 35.2969 123.811 35.2969C120.29 35.2969 117.436 37.8995 117.436 41.1102C117.436 44.3208 120.29 46.9235 123.811 46.9235C127.33 46.9235 130.186 44.3208 130.186 41.1102Z" fill="#02214F"/>
<path d="M157.399 41.1102C157.399 37.8995 154.544 35.2969 151.024 35.2969C147.503 35.2969 144.648 37.8995 144.648 41.1102C144.648 44.3208 147.503 46.9235 151.024 46.9235C154.544 46.9235 157.399 44.3208 157.399 41.1102Z" fill="#02214F"/>
<path d="M184.61 41.1102C184.61 37.8995 181.755 35.2969 178.234 35.2969C174.714 35.2969 171.859 37.8995 171.859 41.1102C171.859 44.3208 174.714 46.9235 178.234 46.9235C181.755 46.9235 184.61 44.3208 184.61 41.1102Z" fill="#02214F"/>
<path d="M211.824 41.1102C211.824 37.8995 208.97 35.2969 205.449 35.2969C201.928 35.2969 199.074 37.8995 199.074 41.1102C199.074 44.3208 201.928 46.9235 205.449 46.9235C208.97 46.9235 211.824 44.3208 211.824 41.1102Z" fill="#02214F"/>
<path d="M239.037 41.1102C239.037 37.8995 236.183 35.2969 232.662 35.2969C229.141 35.2969 226.287 37.8995 226.287 41.1102C226.287 44.3208 229.141 46.9235 232.662 46.9235C236.183 46.9235 239.037 44.3208 239.037 41.1102Z" fill="#02214F"/>
<path d="M266.248 41.1102C266.248 37.8995 263.394 35.2969 259.873 35.2969C256.352 35.2969 253.498 37.8995 253.498 41.1102C253.498 44.3208 256.352 46.9235 259.873 46.9235C263.394 46.9235 266.248 44.3208 266.248 41.1102Z" fill="#02214F"/>
<path d="M293.461 41.1102C293.461 37.8995 290.607 35.2969 287.086 35.2969C283.565 35.2969 280.711 37.8995 280.711 41.1102C280.711 44.3208 283.565 46.9235 287.086 46.9235C290.607 46.9235 293.461 44.3208 293.461 41.1102Z" fill="#02214F"/>
<path d="M320.674 41.1102C320.674 37.8995 317.82 35.2969 314.299 35.2969C310.778 35.2969 307.924 37.8995 307.924 41.1102C307.924 44.3208 310.778 46.9235 314.299 46.9235C317.82 46.9235 320.674 44.3208 320.674 41.1102Z" fill="#02214F"/>
<path d="M347.887 41.1102C347.887 37.8995 345.033 35.2969 341.512 35.2969C337.991 35.2969 335.137 37.8995 335.137 41.1102C335.137 44.3208 337.991 46.9235 341.512 46.9235C345.033 46.9235 347.887 44.3208 347.887 41.1102Z" fill="#02214F"/>
<path d="M123.81 41.1093C121.595 41.1093 119.799 39.4716 119.799 37.4515V26.2672C119.799 24.2471 121.595 22.6094 123.81 22.6094C126.025 22.6094 127.821 24.2471 127.821 26.2672V37.4515C127.821 39.4716 126.025 41.1093 123.81 41.1093Z" fill="#539EF9"/>
<path d="M151.023 41.1093C148.808 41.1093 147.012 39.4716 147.012 37.4515V26.2672C147.012 24.2471 148.808 22.6094 151.023 22.6094C153.238 22.6094 155.034 24.2471 155.034 26.2672V37.4515C155.034 39.4716 153.238 41.1093 151.023 41.1093Z" fill="#539EF9"/>
<path d="M178.236 41.1093C176.021 41.1093 174.225 39.4716 174.225 37.4515V26.2672C174.225 24.2471 176.021 22.6094 178.236 22.6094C180.451 22.6094 182.247 24.2471 182.247 26.2672V37.4515C182.248 39.4716 180.451 41.1093 178.236 41.1093Z" fill="#539EF9"/>
<path d="M205.449 41.1093C203.233 41.1093 201.438 39.4716 201.438 37.4515V26.2672C201.438 24.2471 203.233 22.6094 205.449 22.6094C207.664 22.6094 209.46 24.2471 209.46 26.2672V37.4515C209.46 39.4716 207.664 41.1093 205.449 41.1093Z" fill="#539EF9"/>
<path d="M232.662 41.1093C230.446 41.1093 228.65 39.4716 228.65 37.4515V26.2672C228.65 24.2471 230.446 22.6094 232.662 22.6094C234.877 22.6094 236.673 24.2471 236.673 26.2672V37.4515C236.673 39.4716 234.877 41.1093 232.662 41.1093Z" fill="#539EF9"/>
<path d="M259.873 41.1093C257.657 41.1093 255.861 39.4716 255.861 37.4515V26.2672C255.861 24.2471 257.657 22.6094 259.873 22.6094C262.088 22.6094 263.884 24.2471 263.884 26.2672V37.4515C263.885 39.4716 262.089 41.1093 259.873 41.1093Z" fill="#539EF9"/>
<path d="M287.086 41.1093C284.87 41.1093 283.074 39.4716 283.074 37.4515V26.2672C283.074 24.2471 284.87 22.6094 287.086 22.6094C289.301 22.6094 291.097 24.2471 291.097 26.2672V37.4515C291.097 39.4716 289.301 41.1093 287.086 41.1093Z" fill="#539EF9"/>
<path d="M314.298 41.1093C312.083 41.1093 310.287 39.4716 310.287 37.4515V26.2672C310.287 24.2471 312.083 22.6094 314.298 22.6094C316.514 22.6094 318.31 24.2471 318.31 26.2672V37.4515C318.31 39.4716 316.514 41.1093 314.298 41.1093Z" fill="#539EF9"/>
<path d="M341.511 41.1093C339.296 41.1093 337.5 39.4716 337.5 37.4515V26.2672C337.5 24.2471 339.296 22.6094 341.511 22.6094C343.727 22.6094 345.523 24.2471 345.523 26.2672V37.4515C345.524 39.4716 343.728 41.1093 341.511 41.1093Z" fill="#539EF9"/>
<path d="M126.886 128.145H99.1406V153.445H126.886V128.145Z" fill="#B9DDFF"/>
<path d="M126.886 161.215H99.1406V186.516H126.886V161.215Z" fill="#B9DDFF"/>
<path d="M126.886 194.281H99.1406V219.582H126.886V194.281Z" fill="#B9DDFF"/>
<path d="M166.769 128.145H139.023V153.445H166.769V128.145Z" fill="#B9DDFF"/>
<path d="M166.769 161.215H139.023V186.516H166.769V161.215Z" fill="#B9DDFF"/>
<path d="M166.769 194.281H139.023V219.582H166.769V194.281Z" fill="#B9DDFF"/>
<path d="M206.65 95.0742H178.904V120.375H206.65V95.0742Z" fill="#FE769C"/>
<path d="M206.65 128.145H178.904V153.445H206.65V128.145Z" fill="#B9DDFF"/>
<path d="M206.65 161.215H178.904V186.516H206.65V161.215Z" fill="#B9DDFF"/>
<path d="M206.65 194.281H178.904V219.582H206.65V194.281Z" fill="#FCBA06"/>
<path d="M246.535 95.0742H218.789V120.375H246.535V95.0742Z" fill="#B9DDFF"/>
<path d="M246.535 128.145H218.789V153.445H246.535V128.145Z" fill="#B9DDFF"/>
<path d="M246.535 161.215H218.789V186.516H246.535V161.215Z" fill="#B9DDFF"/>
<path d="M246.535 194.281H218.789V219.582H246.535V194.281Z" fill="#B9DDFF"/>
<path d="M286.416 95.0742H258.67V120.375H286.416V95.0742Z" fill="#B9DDFF"/>
<path d="M286.416 128.145H258.67V153.445H286.416V128.145Z" fill="#FCBA06"/>
<path d="M286.416 161.215H258.67V186.516H286.416V161.215Z" fill="#B9DDFF"/>
<path d="M286.416 194.281H258.67V219.582H286.416V194.281Z" fill="#01BEEE"/>
<path d="M326.298 95.0742H298.553V120.375H326.298V95.0742Z" fill="#B9DDFF"/>
<path d="M326.298 128.145H298.553V153.445H326.298V128.145Z" fill="#B9DDFF"/>
<path d="M326.298 161.215H298.553V186.516H326.298V161.215Z" fill="#B9DDFF"/>
<path d="M326.298 194.281H298.553V219.582H326.298V194.281Z" fill="#B9DDFF"/>
<path d="M366.179 95.0742H338.434V120.375H366.179V95.0742Z" fill="#0B57C7"/>
<path d="M366.179 128.145H338.434V153.445H366.179V128.145Z" fill="#0B57C7"/>
<path d="M366.179 161.215H338.434V186.516H366.179V161.215Z" fill="#0B57C7"/>
<path d="M366.179 194.281H338.434V219.582H366.179V194.281Z" fill="#0B57C7"/>
<path d="M197.598 59.3711V67.7194H195.061L191.582 63.9272V67.7194H188.574V59.3711H191.111L194.59 63.1633V59.3711H197.598Z" fill="white"/>
<path d="M201.738 63.5446C201.738 61.0164 203.922 59.1797 206.905 59.1797C209.887 59.1797 212.071 61.0164 212.071 63.5446C212.071 66.0727 209.888 67.9094 206.905 67.9094C203.922 67.9094 201.738 66.0727 201.738 63.5446ZM208.959 63.5446C208.959 62.2442 208.042 61.4577 206.905 61.4577C205.767 61.4577 204.852 62.2452 204.852 63.5446C204.852 64.8439 205.768 65.6314 206.905 65.6314C208.043 65.6314 208.959 64.8449 208.959 63.5446Z" fill="white"/>
<path d="M225.669 59.3711L221.798 67.7194H218.764L214.893 59.3711H218.215L220.398 64.2488L222.635 59.3711H225.669Z" fill="white"/>
<path d="M236.6 65.5972V67.7194H228.988V59.3711H236.43V61.4942H232.022V62.4719H235.894V64.4989H232.022V65.5963L236.6 65.5972Z" fill="white"/>
<path d="M248.981 67.7184L248.955 63.9144L246.967 66.9672H245.606L243.618 64.0458V67.7194H240.807V59.3711H243.344L246.325 63.8193L249.228 59.3711H251.765L251.79 67.7194L248.981 67.7184Z" fill="white"/>
<path d="M265.325 65.4178C265.325 66.8731 263.978 67.7194 261.453 67.7194H256.301V59.3711H261.192C263.717 59.3711 264.893 60.289 264.893 61.553C264.893 62.3287 264.462 62.972 263.624 63.3535C264.698 63.7124 265.325 64.4283 265.325 65.4178ZM259.336 61.3393V62.5798H260.775C261.468 62.5798 261.781 62.365 261.781 61.96C261.781 61.555 261.467 61.3402 260.775 61.3402L259.336 61.3393ZM262.213 65.0961C262.213 64.6666 261.874 64.4401 261.193 64.4401H259.336V65.7512H261.193C261.873 65.7522 262.213 65.5256 262.213 65.0961Z" fill="white"/>
<path d="M277.041 65.5972V67.7194H269.43V59.3711H276.872V61.4942H272.463V62.4719H276.335V64.4989H272.463V65.5963L277.041 65.5972Z" fill="white"/>
<path d="M285.171 65.6208H284.334V67.7194H281.248V59.3711H285.656C288.206 59.3711 289.828 60.5871 289.828 62.52C289.828 63.7242 289.2 64.6303 288.102 65.1432L290.025 67.7194H286.729L285.171 65.6208ZM285.459 61.5422H284.334V63.4977H285.459C286.309 63.4977 286.714 63.128 286.714 62.52C286.714 61.912 286.309 61.5422 285.459 61.5422Z" fill="white"/>
<path d="M195.502 124C183.301 124 173.375 114.949 173.375 103.822C173.375 92.6959 183.301 83.6445 195.502 83.6445C207.703 83.6445 217.629 92.6959 217.629 103.822C217.629 114.949 207.703 124 195.502 124ZM195.502 84.7997C183.999 84.7997 174.642 93.3333 174.642 103.822C174.642 114.311 183.999 122.845 195.502 122.845C207.004 122.845 216.363 114.311 216.363 103.822C216.363 93.3333 207.005 84.7997 195.502 84.7997Z" fill="#1F75FE"/>
<path d="M195.502 118.359C186.713 118.359 179.562 111.839 179.562 103.824C179.562 95.8094 186.713 89.2891 195.502 89.2891C204.293 89.2891 211.443 95.8094 211.443 103.824C211.444 111.839 204.293 118.359 195.502 118.359ZM195.502 90.4433C187.412 90.4433 180.828 96.4458 180.828 103.824C180.828 111.202 187.411 117.205 195.502 117.205C203.594 117.205 210.177 111.203 210.177 103.824C210.177 96.4458 203.595 90.4433 195.502 90.4433Z" fill="#1F75FE"/>
<path d="M195.501 113.628C189.571 113.628 184.748 109.228 184.748 103.821C184.748 98.4138 189.571 94.0156 195.501 94.0156C201.431 94.0156 206.255 98.4148 206.255 103.821C206.255 109.228 201.431 113.628 195.501 113.628ZM195.501 95.1699C190.27 95.1699 186.015 99.0503 186.015 103.821C186.015 108.592 190.27 112.472 195.501 112.472C200.732 112.472 204.988 108.591 204.988 103.821C204.99 99.0503 200.733 95.1699 195.501 95.1699Z" fill="#1F75FE"/>
<path d="M129.73 371.707C167.662 371.707 198.412 366.755 198.412 360.647C198.412 354.538 167.662 349.586 129.73 349.586C91.7986 349.586 61.0488 354.538 61.0488 360.647C61.0488 366.755 91.7986 371.707 129.73 371.707Z" fill="#9AD8E8"/>
<path d="M196.66 115.866C196.66 116.24 196.501 116.614 196.184 116.898C194.708 118.201 191.851 120.125 188.119 119.679V119.685C188.119 119.685 185.831 122.02 183.931 123.798C183.522 124.185 183.131 124.595 182.767 125.017L169.199 140.919L159.031 152.833L158.819 152.857C158.746 152.218 158.568 151.584 158.324 150.981C157.913 149.968 157.457 149.027 157.801 147.941C157.9 147.633 158.026 147.35 158.152 147.072L158.708 147.168C160.177 146.397 161.386 145.346 162.312 144.357C163.523 143.066 164.224 141.443 164.323 139.766C164.35 139.32 164.336 138.88 164.277 138.434C163.966 135.991 163.351 133.487 162.749 131.412L184.19 112.996C184.494 112.73 184.792 112.459 185.069 112.169L193.642 103.314C194.218 102.716 195.204 102.644 195.878 103.145C196.269 103.434 196.468 103.863 196.468 104.291C196.468 104.587 196.375 104.883 196.17 105.142L192.121 110.299L190.599 112.229L190.314 112.591C189.699 113.381 189.825 114.461 190.618 115.106C191.015 115.432 191.511 115.594 192.008 115.594C192.438 115.594 192.868 115.474 193.238 115.227L194.078 114.666C194.494 114.382 195.024 114.31 195.5 114.436V114.442C195.737 114.502 195.97 114.629 196.161 114.798C196.496 115.087 196.66 115.48 196.66 115.866Z" fill="#D9844B"/>
<path d="M195.502 114.434C195.026 114.308 194.497 114.38 194.081 114.664L193.241 115.225C192.963 112.413 190.602 112.227 190.602 112.227L192.123 110.297C192.123 110.297 195.496 110.537 195.502 114.434Z" fill="#C56F3E"/>
<path d="M193.24 115.228C192.87 115.475 192.44 115.596 192.01 115.596C191.514 115.596 191.017 115.433 190.62 115.108C189.827 114.462 189.701 113.383 190.316 112.592L190.6 112.23C190.6 112.23 192.963 112.417 193.24 115.228Z" fill="#C56F3E"/>
<path d="M162.149 202.658C161.772 201.204 161.428 199.708 161.104 198.194C160.376 194.774 159.775 191.293 159.298 188.126C159.199 187.51 159.113 186.907 159.027 186.322H159.034C159.034 186.322 164.074 181.949 174.057 182.781L175.976 198.472C175.976 198.472 177.523 204.226 178.715 207.158C178.715 207.158 180.739 214.97 181.096 221.262C181.096 221.262 182.286 239.491 187.639 249.584C187.639 249.584 188.982 252.195 186.448 255.441L181.096 262.011C180.666 262.535 179.845 262.62 179.297 262.198C179.013 261.974 178.86 261.655 178.86 261.335C178.86 261.111 178.933 260.889 179.078 260.696L180.977 258.192L179.555 259.41C179.376 259.567 179.138 259.645 178.906 259.645C178.661 259.645 178.424 259.561 178.239 259.392C177.875 259.067 177.869 258.536 178.212 258.198L181.195 255.26C181.691 254.777 182.009 254.162 182.101 253.505C182.227 252.618 182.108 251.713 181.751 250.88L180.97 249.064L179.647 253.559C179.436 254.295 178.701 254.789 177.901 254.789C177.756 254.789 177.617 254.772 177.471 254.741C176.532 254.53 175.936 253.698 176.108 252.835C176.843 249.173 176.929 244.16 176.929 244.16C176.929 240.112 176.175 236.825 175.81 235.479C175.705 235.087 175.565 234.701 175.401 234.321L174.666 232.681L172.787 228.47L167.608 216.858V216.852L164.155 209.118C164.023 208.823 163.903 208.527 163.804 208.226C163.201 206.5 162.651 204.618 162.149 202.658Z" fill="#D9844B"/>
<path d="M138.863 247.8L142.105 259.955C142.403 261.077 142.508 262.229 142.422 263.375L141.205 279.705C135.033 290.708 126.869 301.982 126.869 301.982C118.183 315.917 110.84 335.257 108.321 342.224C103.849 341.005 93.2109 336.602 93.2109 336.602C97.1803 325.943 114.459 291.716 118.164 284.404C118.634 283.487 118.951 282.511 119.123 281.508L122.893 259.02C123.112 257.705 123.032 256.36 122.721 255.057C119.361 241.015 127.841 230.929 128.166 230.548C128.173 230.548 128.173 230.542 128.173 230.542C130.085 229.891 134.027 228.726 139.604 227.979C143.11 227.508 147.265 227.207 151.962 227.297C153.337 227.328 154.714 227.448 156.077 227.653C158.233 227.979 162.229 228.503 166.541 228.643C168.552 228.703 170.637 228.685 172.634 228.528L172.786 228.474L174.665 232.685C175.207 251.796 167.349 286.035 167.349 286.035C163.142 309.199 162.513 332.774 162.427 341.418C154.435 343.156 147.119 342.48 147.119 342.48C146.015 328.576 147.119 291.187 147.119 291.187C147.847 281.234 147.688 273.235 147.186 267.082C146.306 256.284 144.381 251.175 144.381 251.175C142.098 250.34 140.293 249.163 138.863 247.8Z" fill="#018389"/>
<path d="M173.753 180.254L174.057 182.781C164.075 181.948 159.033 186.322 159.033 186.322H159.027C158.882 185.26 158.743 184.241 158.617 183.288C158.617 183.288 163.81 179.699 173.746 180.254H173.753Z" fill="white"/>
<path d="M144.314 169.608C145.915 169.114 147.403 168.275 148.342 167.014C148.798 166.399 149.123 165.632 149.765 165.15C150.744 164.414 152.127 164.42 153.059 163.54C153.601 163.021 153.926 162.345 154.131 161.652C154.297 161.109 154.396 160.536 154.323 159.981C154.263 159.529 154.091 159.082 154.163 158.629C154.237 158.165 154.613 157.936 155.07 157.785L155.097 158.208C155.831 158.177 158.682 158.123 161.884 159.016C160.243 159.589 158.622 160.597 157.577 161.634C155.142 164.053 154.812 169.561 158.715 171.02C160.381 171.642 162.3 171.074 163.895 171.973C165.356 172.806 165.417 174.247 166.395 175.321C168.261 177.379 171.099 176.823 173.142 175.285L173.751 180.256H173.745C163.809 179.701 158.616 183.29 158.616 183.29C158.741 184.243 158.88 185.263 159.025 186.324C159.111 186.909 159.197 187.513 159.296 188.127C156.511 190.22 152.854 191.801 151.603 194.787C150.578 197.236 151.854 200.264 155.023 200.488C157.305 200.644 159.183 199.402 161.102 198.196C161.426 199.71 161.77 201.205 162.147 202.66C161.029 203.124 159.945 203.739 159.244 205.037C156.691 209.796 159.124 214.713 157.676 219.527C156.498 223.442 151.788 222.989 148.255 223.816C146.529 224.22 144.214 224.347 142.625 225.114C141.164 225.82 140.211 226.815 139.602 227.979C134.025 228.727 130.083 229.891 128.171 230.542C128.171 230.542 128.171 230.548 128.164 230.548C127.31 230.838 126.867 231.025 126.867 231.025C129.917 227.116 131.935 223.431 133.238 220.095C133.562 219.268 133.847 218.429 134.084 217.585C135.996 217.447 138.04 217.809 139.773 218.291C142.949 219.178 144.828 218.852 147.011 216.439C148.764 214.49 148.625 211.161 147.897 208.814C147.004 205.901 144.345 203.644 144.1 200.586C143.736 196.08 147.46 191.012 143.253 187.067C140.858 184.818 136.439 184.811 133.476 185.8C132.027 186.283 130.558 186.928 129.262 187.707C127.9 182.194 127.31 177.458 127.06 174.097C128.515 173.597 129.957 173.578 131.505 173.971C131.69 174.013 131.875 174.061 132.068 174.122C135.819 175.268 138.378 178.959 141.138 181.397C143.143 183.164 146.787 185.385 149.692 184.016C152.49 182.701 151.683 178.14 149.586 176.548C148.436 175.673 146.748 175.407 145.426 174.793C143.104 173.719 142.111 172.066 142.052 170.076C142.423 170.033 142.793 169.973 143.156 169.901C143.546 169.82 143.93 169.723 144.314 169.608Z" fill="#FE769C"/>
<path d="M173.56 356.217C173.652 356.766 173.507 357.635 171.886 358.087C171.886 358.087 168.196 359.812 159.669 359.426C158.98 359.396 158.3 359.493 157.651 359.698C156.461 360.078 154.324 360.645 152.233 360.645H146.511C146.511 360.645 146.108 357.539 146.802 354.353C147.034 353.297 147.12 352.224 147.12 351.145V350.553C147.12 349.818 147.768 349.227 148.568 349.227H149.838H151.254C151.856 349.227 152.431 349.443 152.874 349.83C153.609 350.469 155.143 351.265 157.736 350.21C157.736 350.21 158.477 349.697 159.602 349.486C160.488 349.324 161.619 349.348 162.81 349.975L165.052 352.044C165.568 352.526 166.184 352.907 166.865 353.172L173.011 355.572C173.302 355.685 173.514 355.926 173.56 356.217Z" fill="white"/>
<path d="M172.633 171.129L173.143 175.285C171.098 176.823 168.26 177.378 166.396 175.321C165.417 174.247 165.357 172.806 163.895 171.973C162.3 171.074 160.383 171.641 158.715 171.02C154.812 169.56 155.142 164.052 157.577 161.634C158.622 160.596 160.243 159.589 161.884 159.016C166.407 160.265 171.647 163.395 172.633 171.129Z" fill="#EF4E8C"/>
<path d="M167.607 216.859L172.786 228.471L172.633 228.525C170.635 228.682 168.552 228.7 166.541 228.64L167.607 216.859Z" fill="#B72963"/>
<path d="M167.607 216.852V216.858L166.542 228.639C162.229 228.501 158.234 227.976 156.078 227.65C154.715 227.445 153.339 227.324 151.963 227.294C147.267 227.204 143.112 227.505 139.605 227.976C140.214 226.812 141.167 225.816 142.628 225.11C144.216 224.344 146.531 224.218 148.258 223.813C151.791 222.986 156.501 223.439 157.679 219.523C159.127 214.709 156.693 209.793 159.247 205.033C159.948 203.736 161.033 203.121 162.15 202.656C162.653 204.617 163.202 206.498 163.804 208.224C163.903 208.526 164.023 208.822 164.155 209.117L167.607 216.852Z" fill="#EF4E8C"/>
<path d="M164.278 138.431C164.549 140.567 163.848 142.727 162.313 144.356C161.387 145.345 160.176 146.394 158.708 147.167L158.152 147.071C158.463 146.378 158.78 145.72 158.688 144.881C158.575 143.928 158.417 143.748 159.19 142.987C160.05 142.142 160.937 141.382 161.208 140.211C161.346 139.602 161.426 138.818 161.234 138.209C161.062 137.678 160.592 137.334 160.401 136.833C160.077 136 160.865 135.464 161.155 134.601C161.797 132.701 159.925 131.265 160.487 129.437C160.758 128.55 161.155 127.471 161.05 126.529L161.123 126.523C161.123 126.523 161.929 128.568 162.75 131.41C163.352 133.485 163.967 135.989 164.278 138.431Z" fill="#D9844B"/>
<path d="M162.427 341.414C162.414 343.628 162.427 344.858 162.427 344.858L159.536 345.147L149.838 346.131L147.608 346.355C147.41 345.468 147.245 344.14 147.119 342.476C147.119 342.476 154.435 343.152 162.427 341.414Z" fill="#06B7B7"/>
<path d="M159.537 349.228L159.604 349.487C158.479 349.698 157.738 350.211 157.738 350.211C155.145 351.266 153.609 350.469 152.876 349.83C152.433 349.444 151.857 349.227 151.255 349.227H149.84V346.132L159.538 345.148L159.537 349.228Z" fill="#D9844B"/>
<path d="M159.297 188.129C159.773 191.295 160.376 194.777 161.103 198.197C159.184 199.403 157.305 200.646 155.023 200.489C151.854 200.265 150.577 197.237 151.603 194.789C152.854 191.802 156.513 190.222 159.297 188.129Z" fill="#EF4E8C"/>
<path d="M149.587 176.546C151.684 178.139 152.49 182.699 149.692 184.014C146.788 185.383 143.143 183.163 141.138 181.395C138.38 178.958 135.819 175.266 132.068 174.12C131.877 174.06 131.691 174.011 131.506 173.969C130.679 172.37 129.719 170.795 129.064 169.168C129.673 169.204 130.282 169.185 130.884 169.12C131.764 169.029 132.776 168.547 133.663 168.673C134.602 168.806 135.594 169.464 136.541 169.705C138.327 170.17 140.212 170.302 142.051 170.073C142.11 172.063 143.103 173.716 145.425 174.79C146.749 175.406 148.436 175.671 149.587 176.546Z" fill="#EF4E8C"/>
<path d="M147.9 208.81C148.628 211.157 148.767 214.487 147.014 216.435C144.831 218.848 142.952 219.174 139.777 218.287C138.043 217.805 136 217.443 134.088 217.581C134.558 215.929 134.862 214.245 135.007 212.551C135.847 212.991 143.469 210.789 143.469 210.789C139.486 208.69 132.474 197.947 132.474 197.947C131.091 194.346 130.046 190.895 129.266 187.704C130.563 186.925 132.031 186.28 133.479 185.798C136.443 184.808 140.862 184.814 143.257 187.065C147.464 191.01 143.74 196.077 144.103 200.583C144.347 203.641 147.007 205.897 147.9 208.81Z" fill="#EF4E8C"/>
<path d="M147.185 267.076L147.118 267.082C145.953 270.714 143.745 275.183 141.204 279.702L142.422 263.373C142.508 262.226 142.401 261.074 142.105 259.952L138.863 247.797C140.293 249.16 142.098 250.337 144.38 251.169C144.38 251.169 146.305 256.279 147.185 267.076Z" fill="#004E4A"/>
<path d="M132.473 197.945C132.473 197.945 139.485 208.689 143.468 210.788C143.468 210.788 135.847 212.989 135.006 212.549C135.403 208.049 134.683 203.476 132.956 199.181C132.79 198.766 132.624 198.356 132.473 197.945Z" fill="#B72963"/>
<path d="M131.507 173.968C129.959 173.576 128.517 173.594 127.061 174.095C126.823 170.988 126.876 169.051 126.889 168.738C127.59 168.991 128.325 169.125 129.066 169.167C129.721 170.795 130.68 172.369 131.507 173.968Z" fill="#EF4E8C"/>
<path d="M108.71 355.933C109.901 356.445 113.275 358.147 112.858 361.005C112.858 361.005 112.052 361.512 110.404 361.699C108.79 361.892 106.376 361.765 103.127 360.546C103.127 360.546 100.448 358.772 98.9328 355.847C98.9328 355.847 96.6508 351.998 89.9821 353.923C89.9821 353.923 88.5529 352.336 90.5381 349.718C90.6768 349.531 90.8091 349.345 90.9285 349.145C91.2855 348.531 92.1061 347.076 92.7739 345.417C93.1836 344.397 94.3214 343.77 95.5065 343.921C95.6195 343.932 95.7378 343.951 95.8571 343.969C98.0671 344.271 101.269 345.048 103.405 346.997C103.405 346.997 104.927 348.228 104.927 351.612C104.927 351.612 105.232 355.08 107.937 355.708C108.201 355.77 108.465 355.831 108.71 355.933Z" fill="white"/>
<path d="M110.403 361.701L110.41 361.774C106.93 363.607 101.188 363.01 101.188 363.01C94.1626 362.702 93.6937 358.625 93.6937 358.625C92.7677 356.079 89.9824 353.925 89.9824 353.925C96.6511 352.001 98.9331 355.849 98.9331 355.849C100.448 358.775 103.127 360.549 103.127 360.549C106.375 361.768 108.789 361.894 110.403 361.701Z" fill="#939393"/>
<path d="M108.32 342.224C107.711 343.901 107.387 344.86 107.387 344.86L104.927 343.901L97.4182 340.981L92.4434 339.044C92.5488 338.501 92.8133 337.669 93.2112 336.602C93.2112 336.602 103.848 341.006 108.32 342.224Z" fill="#06B7B7"/>
<path d="M104.926 343.9L103.404 347.001C101.267 345.052 98.0654 344.274 95.8555 343.972L97.417 340.98L104.926 343.9Z" fill="#D9844B"/>
<path d="M195.502 114.441C196.119 114.533 196.656 115.021 196.801 115.623C196.871 115.924 196.842 116.25 196.713 116.546C196.594 116.851 196.319 117.09 196.112 117.279C195.229 118.088 194.187 118.763 193.041 119.254C191.889 119.733 190.617 120.006 189.349 119.973C188.715 119.96 188.09 119.874 187.484 119.733C186.883 119.573 186.298 119.374 185.758 119.098C186.94 119.425 188.153 119.552 189.341 119.503C190.528 119.44 191.689 119.163 192.764 118.706C193.844 118.256 194.845 117.642 195.763 116.934C196.005 116.749 196.198 116.602 196.321 116.382C196.447 116.169 196.503 115.918 196.483 115.666C196.458 115.155 196.069 114.663 195.502 114.441Z" fill="#964712"/>
<path d="M133.445 234.082C133.512 235.379 133.681 236.668 133.972 237.932C134.24 239.199 134.623 240.444 135.125 241.644C136.107 244.042 137.564 246.299 139.601 248.046C141.6 249.826 144.17 251.014 146.886 251.65C148.244 251.98 149.646 252.169 151.057 252.257C152.469 252.371 153.891 252.345 155.315 252.295C153.905 252.481 152.475 252.567 151.042 252.554C149.611 252.525 148.175 252.385 146.765 252.102C143.949 251.543 141.261 250.305 139.144 248.483C138.612 248.029 138.164 247.505 137.686 247.008C137.46 246.75 137.262 246.473 137.048 246.206L136.733 245.802L136.456 245.376C135.692 244.255 135.096 243.045 134.646 241.799C133.735 239.309 133.315 236.68 133.445 234.082Z" fill="#003834"/>
<path d="M190.602 112.228C191.409 112.085 192.264 112.495 192.769 113.103C193.007 113.418 193.186 113.767 193.26 114.134C193.308 114.315 193.306 114.502 193.32 114.682C193.307 114.867 193.287 115.048 193.241 115.226C193.141 115.06 193.075 114.897 193.001 114.738C192.915 114.583 192.851 114.426 192.77 114.28C192.61 113.985 192.437 113.713 192.237 113.462C191.828 112.966 191.307 112.566 190.602 112.228Z" fill="#964712"/>
<path d="M179.705 246.121C180.172 247.021 180.599 247.936 181.046 248.843L181.686 250.215C181.894 250.666 182.137 251.135 182.265 251.645C182.399 252.149 182.456 252.672 182.424 253.193C182.402 253.706 182.267 254.262 181.987 254.737C181.851 254.977 181.679 255.202 181.481 255.404L180.925 255.958L179.82 257.056L178.705 258.145L178.433 258.412C178.373 258.473 178.329 258.546 178.303 258.624C178.248 258.782 178.28 258.96 178.374 259.098C178.565 259.398 179.059 259.466 179.344 259.227L180.557 258.233L181.778 257.242C182.195 256.912 182.571 256.59 182.903 256.204C183.24 255.829 183.527 255.413 183.761 254.969C183.995 254.528 184.153 254.051 184.343 253.584C184.146 254.556 183.804 255.54 183.163 256.381C182.852 256.799 182.449 257.179 182.064 257.519L180.906 258.571C180.518 258.923 180.137 259.268 179.735 259.618C179.474 259.843 179.103 259.951 178.747 259.913C178.386 259.878 178.055 259.686 177.852 259.415C177.646 259.139 177.587 258.779 177.691 258.461C177.742 258.301 177.831 258.151 177.95 258.026L178.232 257.745L179.338 256.646L180.454 255.558L181.007 255.018C181.173 254.851 181.316 254.665 181.438 254.468C181.929 253.684 181.933 252.671 181.77 251.744C181.684 251.276 181.485 250.83 181.299 250.356L180.746 248.952C180.401 248.007 180.033 247.071 179.705 246.121Z" fill="#964712"/>
<path d="M161.235 138.208C161.063 137.677 160.593 137.333 160.402 136.833C160.078 136 160.865 135.464 161.156 134.601C161.798 132.7 159.925 131.265 160.488 129.437C160.759 128.55 161.156 127.47 161.05 126.529C161.05 126.51 161.044 126.487 161.044 126.468C160.931 125.672 160.343 125.437 159.887 124.815C159.337 124.061 159.463 123.096 159.179 122.167C158.835 121.032 158.134 120.062 157.082 119.374C156.01 118.668 154.714 118.3 153.43 118.168C152.212 118.041 150.863 118.693 149.765 118.518C149.156 118.422 148.534 118.187 147.905 117.957C147.31 117.74 146.701 117.529 146.079 117.432C144.757 117.233 143.374 117.119 142.044 117.306C141.549 117.373 141.052 117.487 140.575 117.65C137.943 118.549 136.368 120.286 134.734 122.283C133.801 123.423 132.12 123.99 130.724 124.503C129.097 125.106 127.807 125.782 126.776 127.127C126.074 128.038 125.592 129.07 125.241 130.125C124.863 131.259 124.699 131.778 124.13 132.164C123.27 132.749 122.119 132.924 121.212 133.473C120.18 134.101 119.3 134.914 118.567 135.82C117.442 137.213 116.397 138.993 115.968 140.688C115.577 142.226 115.895 143.704 115.816 145.248C115.711 147.178 114.691 149.151 114.81 151.032C114.97 153.446 115.518 155.992 117.325 157.855C117.365 157.903 117.404 157.945 117.451 157.987C118.509 159.019 120.011 159.628 120.977 160.744C122.161 162.107 122.135 164.273 123.187 165.805C124.06 167.084 125.324 168.163 126.852 168.724C126.865 168.73 126.879 168.736 126.892 168.736C127.593 168.989 128.327 169.122 129.068 169.165C129.677 169.201 130.286 169.182 130.888 169.117C131.768 169.026 132.78 168.544 133.667 168.67C134.606 168.803 135.598 169.461 136.545 169.702C138.331 170.167 140.216 170.299 142.055 170.07C142.426 170.028 142.796 169.967 143.16 169.895C143.55 169.817 143.934 169.72 144.317 169.606C145.918 169.112 147.406 168.273 148.345 167.012C148.801 166.397 149.126 165.63 149.768 165.148C150.747 164.412 152.13 164.418 153.062 163.538C153.604 163.019 153.929 162.343 154.134 161.65C154.3 161.107 154.399 160.534 154.326 159.979C154.266 159.527 154.094 159.08 154.166 158.628C154.24 158.163 154.616 157.934 155.073 157.783C155.536 157.626 156.072 157.554 156.456 157.391C157.667 156.884 158.486 155.756 158.751 154.562C158.877 154.001 158.896 153.428 158.824 152.854C158.751 152.215 158.572 151.582 158.328 150.978C157.919 149.965 157.461 149.024 157.806 147.938C157.905 147.631 158.03 147.347 158.156 147.07C158.467 146.376 158.784 145.718 158.692 144.88C158.579 143.927 158.421 143.746 159.194 142.986C160.054 142.142 160.94 141.382 161.211 140.211C161.347 139.601 161.427 138.817 161.235 138.208Z" fill="#1E3135"/>
<path d="M144.409 169.577C144.4 169.577 144.382 169.561 144.372 169.553C142.718 167.929 141.656 165.327 141.364 162.237C141.119 159.511 141.491 156.545 142.381 154.292C143.409 151.674 145.407 150.157 147.334 148.691C149.895 146.745 152.313 144.905 152.04 140.787C151.949 139.279 151.713 137.863 151.476 136.487C150.968 133.405 150.477 130.497 151.658 127.05C152.975 123.206 154.711 120.787 157.119 119.445C157.128 119.437 157.146 119.428 157.156 119.428L157.001 119.329C154.566 120.705 152.822 123.14 151.504 127.009C150.305 130.489 150.796 133.414 151.314 136.513C151.55 137.88 151.786 139.297 151.877 140.796C152.141 144.839 149.751 146.654 147.235 148.576C145.282 150.058 143.273 151.591 142.229 154.243C141.33 156.513 140.948 159.504 141.202 162.246C141.492 165.361 142.564 167.988 144.227 169.636L144.409 169.577ZM129.154 169.163C129.154 169.156 129.145 169.147 129.145 169.139C128.182 166.761 128.1 164.831 128.882 162.883C129.172 162.155 129.654 161.508 130.117 160.878C130.499 160.364 130.899 159.835 131.18 159.262C132.234 157.141 131.952 154.846 131.689 152.626C131.507 151.084 131.317 149.486 131.562 147.945C131.943 145.526 132.924 143.662 134.47 142.394C135.215 141.789 136.187 141.399 137.123 141.018C138.195 140.578 139.312 140.131 140.066 139.369C142.092 137.339 142.092 134.026 142.084 130.81C142.084 128.996 142.084 127.289 142.447 125.888C143.456 121.97 145.045 119.691 147.953 118.018C147.971 118.01 147.98 118.001 147.998 117.993L147.808 117.926C144.9 119.617 143.292 121.92 142.284 125.855C141.92 127.272 141.92 128.987 141.92 130.809C141.929 133.99 141.929 137.28 139.949 139.268C139.213 140.006 138.113 140.445 137.059 140.876C136.105 141.265 135.123 141.663 134.361 142.276C132.78 143.568 131.781 145.466 131.399 147.918C131.154 149.484 131.344 151.091 131.526 152.64C131.798 154.944 132.062 157.114 131.026 159.202C130.754 159.757 130.363 160.288 129.981 160.793C129.509 161.422 129.017 162.077 128.727 162.83C127.936 164.802 128.01 166.749 128.972 169.152L129.154 169.163ZM117.378 157.911C117.387 157.903 117.396 157.887 117.396 157.878C117.687 157.174 118.096 156.494 118.623 155.865C118.832 155.608 119.06 155.351 119.277 155.111C119.941 154.357 120.631 153.586 121.013 152.641C121.658 151.026 121.567 149.244 121.485 147.529C121.376 145.449 121.267 143.304 122.467 141.448C123.521 139.808 125.293 138.988 127.009 138.193C128.545 137.48 130.135 136.751 131.18 135.434C132.152 134.208 132.316 132.659 132.47 131.151C132.544 130.463 132.625 129.742 132.779 129.087C133.324 126.793 134.469 124.713 136.286 122.724C138.294 120.528 140.193 118.772 142.101 117.364C142.137 117.339 142.164 117.314 142.201 117.289L141.882 117.33C140.011 118.731 138.139 120.462 136.158 122.625C134.322 124.638 133.168 126.734 132.615 129.054C132.46 129.717 132.378 130.438 132.306 131.134C132.151 132.617 131.988 134.149 131.043 135.351C130.016 136.626 128.527 137.323 126.936 138.06C125.201 138.864 123.401 139.692 122.321 141.375C121.103 143.272 121.212 145.443 121.322 147.539C121.403 149.245 121.494 151.003 120.858 152.585C120.486 153.504 119.804 154.275 119.15 155.012C118.923 155.26 118.697 155.517 118.487 155.774C117.96 156.403 117.551 157.091 117.26 157.787L117.378 157.911Z" fill="#295154"/>
<path d="M169.201 140.918L159.033 152.832L158.821 152.856C158.748 152.217 158.57 151.583 158.326 150.98C157.915 149.967 157.459 149.026 157.803 147.94C157.902 147.632 158.028 147.349 158.154 147.071L158.71 147.168C160.179 146.396 161.388 145.346 162.314 144.356C163.525 143.066 164.226 141.443 164.325 139.766L169.201 140.918Z" fill="#C56F3E"/>
<path d="M161.122 126.523C161.943 128.293 162.597 130.121 163.171 131.971C163.748 133.82 164.197 135.705 164.497 137.617C164.653 138.556 164.731 139.587 164.544 140.561C164.365 141.539 163.992 142.491 163.418 143.33C162.85 144.179 162.097 144.883 161.32 145.534C160.519 146.169 159.656 146.744 158.709 147.166C159.58 146.628 160.384 146.015 161.095 145.321C161.816 144.637 162.503 143.916 162.978 143.097C163.966 141.454 164.224 139.554 163.843 137.7C163.564 135.816 163.139 133.948 162.682 132.086C162.453 131.154 162.202 130.225 161.934 129.301C161.686 128.37 161.4 127.449 161.122 126.523Z" fill="#964712"/>
<path d="M159.56 190.463C158.774 187.398 158.284 184.301 157.868 181.196C157.481 178.089 157.169 174.972 157.156 171.824C157.945 174.889 158.434 177.986 158.848 181.091C159.234 184.199 159.546 187.316 159.56 190.463Z" fill="#B22860"/>
<path d="M292.667 116.103V202.71C292.667 205.726 289.971 208.176 286.663 208.176H201.602C198.294 208.176 195.607 205.726 195.607 202.71V116.103C195.607 113.086 198.294 110.637 201.602 110.637H286.663C289.971 110.637 292.667 113.086 292.667 116.103Z" fill="#0B57C7"/>
<path d="M215.715 137.613L216.432 136.145C217.115 136.557 218.086 136.839 218.979 136.839C219.883 136.839 220.236 136.607 220.236 136.266C220.236 135.15 215.847 135.964 215.847 133.349C215.847 132.092 216.972 131.066 219.266 131.066C220.269 131.066 221.307 131.277 222.067 131.679L221.395 133.157C220.655 132.795 219.928 132.614 219.255 132.614C218.34 132.614 218.01 132.895 218.01 133.247C218.01 134.323 222.387 133.519 222.387 136.113C222.387 137.34 221.263 138.385 218.969 138.385C217.7 138.387 216.443 138.075 215.715 137.613Z" fill="white"/>
<path d="M224.623 135.109V131.207H226.806V135.048C226.806 136.254 227.358 136.738 228.273 136.738C229.176 136.738 229.729 136.255 229.729 135.048V131.207H231.879V135.109C231.879 137.211 230.534 138.387 228.25 138.387C225.967 138.386 224.623 137.211 224.623 135.109Z" fill="white"/>
<path d="M242 131.207V138.246H240.202L236.795 134.495V138.246H234.656V131.207H236.453L239.861 134.958V131.207H242Z" fill="white"/>
<path d="M244.842 131.207H248.493C251.051 131.207 252.804 132.564 252.804 134.727C252.804 136.889 251.051 138.246 248.493 138.246H244.842V131.207ZM248.405 136.657C249.717 136.657 250.598 135.944 250.598 134.727C250.598 133.51 249.717 132.796 248.405 132.796H247.026V136.657H248.405Z" fill="white"/>
<path d="M260.311 136.878H257.047L256.44 138.246H254.213L257.621 131.207H259.771L263.189 138.246H260.918L260.311 136.878ZM259.67 135.41L258.678 133.158L257.684 135.41H259.67Z" fill="white"/>
<path d="M268.755 135.721V138.245H266.573V135.692L263.629 131.207H265.934L267.765 134.003L269.594 131.207H271.712L268.755 135.721Z" fill="white"/>
<path d="M223.284 140.004V146.623H222.537V140.609H220.826V140.004H223.284Z" fill="white"/>
<path d="M231.184 144.884H229.732V146.623H228.986V144.884H224.889V144.392L228.737 140.004H229.566L225.852 144.279H229.005V142.746H229.732V144.279H231.184V144.884Z" fill="white"/>
<path d="M231.936 142.12C231.936 141.827 232.184 141.609 232.486 141.609C232.786 141.609 233.046 141.827 233.046 142.12C233.046 142.414 232.787 142.64 232.486 142.64C232.185 142.641 231.936 142.414 231.936 142.12ZM231.936 146.149C231.936 145.856 232.184 145.638 232.486 145.638C232.786 145.638 233.046 145.856 233.046 146.149C233.046 146.442 232.787 146.67 232.486 146.67C232.185 146.67 231.936 146.443 231.936 146.149Z" fill="white"/>
<path d="M238.924 144.723C238.924 145.829 238.042 146.68 236.289 146.68C235.242 146.68 234.236 146.35 233.676 145.829L234.038 145.29C234.506 145.735 235.346 146.055 236.289 146.055C237.492 146.055 238.156 145.545 238.156 144.722C238.156 143.927 237.544 143.408 236.195 143.408H235.677V142.907L237.688 140.609H233.976V140.004H238.643V140.486L236.59 142.841C238.146 142.917 238.924 143.664 238.924 144.723Z" fill="white"/>
<path d="M239.967 143.313C239.967 141.203 241.181 139.945 242.861 139.945C244.541 139.945 245.764 141.203 245.764 143.313C245.764 145.421 244.539 146.679 242.861 146.679C241.181 146.678 239.967 145.421 239.967 143.313ZM244.998 143.313C244.998 141.544 244.125 140.57 242.862 140.57C241.596 140.57 240.725 141.544 240.725 143.313C240.725 145.081 241.597 146.055 242.862 146.055C244.125 146.055 244.998 145.081 244.998 143.313Z" fill="white"/>
<path d="M255.869 142.273C255.869 143.682 254.75 144.534 252.903 144.534H250.953V146.623H250.186V140.004H252.902C254.75 140.003 255.869 140.854 255.869 142.273ZM255.102 142.273C255.102 141.214 254.334 140.609 252.883 140.609H250.954V143.92H252.883C254.334 143.919 255.102 143.314 255.102 142.273Z" fill="white"/>
<path d="M265.063 140.004V146.623H264.327V141.328L261.475 145.782H261.112L258.26 141.356V146.624H257.523V140.005H258.156L261.309 144.913L264.431 140.005L265.063 140.004Z" fill="white"/>
<path d="M269.098 196.78H219.171C214.739 196.78 211.146 193.503 211.146 189.462C211.146 185.421 214.739 182.145 219.171 182.145H269.098C273.53 182.145 277.123 185.421 277.123 189.462C277.123 193.503 273.53 196.78 269.098 196.78Z" fill="#FF654B"/>
<path d="M225.36 190.106C225.36 190.822 224.779 191.23 223.625 191.23H221.5V187.02H223.493C224.522 187.02 225.116 187.417 225.116 188.102C225.116 188.583 224.832 188.902 224.41 189.058C225.003 189.179 225.36 189.535 225.36 190.106ZM221.988 187.387V188.915H223.459C224.198 188.915 224.626 188.656 224.626 188.151C224.626 187.646 224.198 187.387 223.459 187.387H221.988ZM224.871 190.07C224.871 189.522 224.429 189.282 223.618 189.282H221.988V190.864H223.618C224.429 190.864 224.871 190.623 224.871 190.07Z" fill="white"/>
<path d="M226.844 189.126C226.844 187.898 227.873 186.984 229.271 186.984C230.656 186.984 231.692 187.892 231.692 189.126C231.692 190.359 230.656 191.268 229.271 191.268C227.873 191.267 226.844 190.353 226.844 189.126ZM231.205 189.126C231.205 188.121 230.379 187.382 229.271 187.382C228.157 187.382 227.324 188.121 227.324 189.126C227.324 190.13 228.156 190.87 229.271 190.87C230.379 190.87 231.205 190.13 231.205 189.126Z" fill="white"/>
<path d="M233.154 189.126C233.154 187.898 234.183 186.984 235.581 186.984C236.967 186.984 238.002 187.892 238.002 189.126C238.002 190.359 236.967 191.268 235.581 191.268C234.183 191.267 233.154 190.353 233.154 189.126ZM237.515 189.126C237.515 188.121 236.689 187.382 235.581 187.382C234.467 187.382 233.636 188.121 233.636 189.126C233.636 190.13 234.467 190.87 235.581 190.87C236.689 190.87 237.515 190.13 237.515 189.126Z" fill="white"/>
<path d="M241.308 189.251L240.365 190.123V191.23H239.877V187.02H240.365V189.564L243.076 187.02H243.637L241.638 188.926L243.775 191.23H243.196L241.308 189.251Z" fill="white"/>
<path d="M251.707 187.02V191.23H251.304L248.336 187.814V191.23H247.848V187.02H248.25L251.226 190.436V187.02H251.707Z" fill="white"/>
<path d="M253.58 189.126C253.58 187.898 254.609 186.984 256.007 186.984C257.392 186.984 258.428 187.892 258.428 189.126C258.428 190.359 257.392 191.268 256.007 191.268C254.609 191.267 253.58 190.353 253.58 189.126ZM257.941 189.126C257.941 188.121 257.115 187.382 256.007 187.382C254.893 187.382 254.061 188.121 254.061 189.126C254.061 190.13 254.892 190.87 256.007 190.87C257.115 190.87 257.941 190.13 257.941 189.126Z" fill="white"/>
<path d="M266.503 187.02L264.946 191.23H264.431L263.078 187.639L261.719 191.23H261.211L259.654 187.02H260.157L261.489 190.64L262.867 187.02H263.323L264.682 190.659L266.034 187.02H266.503Z" fill="white"/>
<path d="M225.91 173.996H210.708C208.03 173.996 205.861 172.017 205.861 169.576V155.714C205.861 153.273 208.032 151.293 210.708 151.293H225.91C228.587 151.293 230.758 153.272 230.758 155.714V169.576C230.757 172.017 228.587 173.996 225.91 173.996Z" fill="#1F75FE"/>
<path d="M218.54 153.898C215.5 153.796 212.784 155.825 212.215 158.55C212.031 159.429 212.105 160.266 212.337 161.041C213.256 163.492 215.018 166.622 218.309 171.394C221.314 166.572 223.803 163.508 224.281 161.041C224.424 160.565 224.507 160.065 224.507 159.546C224.507 156.495 221.856 154.009 218.54 153.898ZM218.309 162.286C216.65 162.286 215.304 161.059 215.304 159.546C215.304 158.033 216.65 156.806 218.309 156.806C219.968 156.806 221.314 158.033 221.314 159.546C221.314 161.059 219.968 162.286 218.309 162.286Z" fill="#FF654B"/>
<path d="M280.983 158.801H241.957C241.169 158.801 240.531 158.218 240.531 157.501C240.531 156.782 241.17 156.199 241.957 156.199H280.983C281.771 156.199 282.41 156.782 282.41 157.501C282.409 158.218 281.77 158.801 280.983 158.801Z" fill="white"/>
<path d="M280.983 163.944H241.957C241.169 163.944 240.531 163.362 240.531 162.644C240.531 161.925 241.17 161.344 241.957 161.344H280.983C281.771 161.344 282.41 161.926 282.41 162.644C282.409 163.362 281.77 163.944 280.983 163.944Z" fill="white"/>
<path d="M269.895 169.09H241.957C241.169 169.09 240.531 168.507 240.531 167.79C240.531 167.071 241.17 166.488 241.957 166.488H269.895C270.684 166.488 271.323 167.071 271.323 167.79C271.323 168.507 270.684 169.09 269.895 169.09Z" fill="white"/>
<path d="M292.666 116.103V122.623H195.605V116.103C195.605 113.086 198.292 110.637 201.6 110.637H286.661C289.97 110.637 292.666 113.086 292.666 116.103Z" fill="#FE769C"/>
<path d="M219.875 119.003H203.958C202.625 119.003 201.543 118.017 201.543 116.8C201.543 115.584 202.624 114.598 203.958 114.598H219.875C221.208 114.598 222.29 115.583 222.29 116.8C222.29 118.016 221.208 119.003 219.875 119.003Z" fill="white"/>
<path d="M343.045 360.289C380.976 360.289 411.726 355.337 411.726 349.229C411.726 343.12 380.976 338.168 343.045 338.168C305.113 338.168 274.363 343.12 274.363 349.229C274.363 355.337 305.113 360.289 343.045 360.289Z" fill="#9AD8E8"/>
<path d="M364.351 219.598C365.218 222.928 365.688 226.638 365.033 230.04C356.605 233.623 356.995 219.598 356.995 219.598C360.084 220.677 364.351 219.598 364.351 219.598Z" fill="#0041A0"/>
<path d="M341.356 221.184C341.356 221.184 343.724 234.883 332.617 235.48C332.617 235.48 321.775 236.089 323.878 221.702C323.878 221.702 331.916 223.79 341.356 221.184Z" fill="#0041A0"/>
<path d="M347.912 232.961L346.073 258.647L342.098 246.637V246.631C342.297 244.797 342.488 243.301 342.62 242.366C342.713 241.667 343.024 241.015 343.487 240.448C345.431 238.07 346.86 235.494 347.912 232.961Z" fill="#0041A0"/>
<path d="M363.609 203.546C367.128 199.185 368.445 190.317 368.445 190.317C368.863 187.289 370.469 184.309 372.058 181.987C372.593 181.215 373.129 180.509 373.612 179.906L369.384 167.448L371.236 165.373L374.65 161.555L385.049 175.532C386.822 177.921 387.133 180.973 385.863 183.621C383.554 188.405 379.678 196.163 376.396 201.362C375.073 203.462 373.373 205.338 371.388 206.942C370.945 207.304 370.588 207.744 370.33 208.233C369.853 209.119 368.914 210.688 367.458 212.045L360.235 209.241L360.228 209.235L356.431 209.603C356.286 209.597 356.139 209.591 355.994 209.585C355.425 209.495 354.949 209.108 354.797 208.584C354.573 207.841 355.055 207.075 355.87 206.876L358.502 206.218L359.812 205.893C360.731 205.814 361.565 205.434 362.319 204.843H362.325C362.782 204.481 363.212 204.046 363.609 203.546Z" fill="#FFB380"/>
<path d="M346.781 209.698C350.114 209.541 353.284 209.481 355.996 209.583C356.082 209.601 356.174 209.608 356.267 209.608C356.326 209.608 356.38 209.608 356.432 209.602L360.23 209.234L360.236 209.24C360.309 209.373 361.473 211.442 362.671 214.483C363.267 215.991 363.875 217.735 364.351 219.598C364.351 219.598 360.084 220.678 356.995 219.598C356.995 219.598 356.605 233.623 365.033 230.04C364.913 230.655 364.762 231.265 364.563 231.862C364.384 232.398 364.364 232.966 364.464 233.521C365.423 238.944 370.352 266.543 373.526 279.669C373.804 280.821 373.99 281.985 374.089 283.162L378.237 333.218C378.237 333.218 377.886 333.308 377.29 333.441C374.756 334.008 367.737 335.293 363.795 333.218L349.671 269.987C349.466 269.064 349.208 268.147 348.911 267.242L346.073 258.645L347.912 232.959C346.86 235.493 345.431 238.068 343.487 240.445C343.023 241.012 342.712 241.664 342.62 242.364C342.488 243.299 342.296 244.795 342.097 246.628V246.634C341.707 250.212 341.291 255.08 341.291 259.598L338.585 309.25L339.326 335.195C339.326 335.195 339.042 335.273 338.545 335.394C335.965 336.016 327.644 337.807 323.608 335.943C323.164 335.744 322.768 335.491 322.443 335.195L319.836 274.836C319.77 273.339 319.578 271.862 319.254 270.396C317.726 263.513 313.082 241.146 312.804 222.488C312.751 219.291 312.837 216.202 313.081 213.319L313.108 213.12L313.723 213.18C314.656 213.27 315.596 213.107 316.416 212.709C316.416 212.709 316.423 212.709 316.429 212.703C316.667 212.673 319.433 212.287 323.534 211.792C329.64 211.055 338.71 210.085 346.781 209.698ZM332.617 235.48C343.724 234.883 341.356 221.184 341.356 221.184C331.916 223.789 323.879 221.702 323.879 221.702C321.774 236.089 332.617 235.48 332.617 235.48Z" fill="#1F75FE"/>
<path d="M377.29 333.445C377.29 333.445 377.853 337.559 377.754 341.722C377.714 343.188 376.662 344.461 375.121 344.859C373.785 345.209 372.052 345.475 370.239 345.251C369.511 345.161 368.817 344.907 368.228 344.503C367.017 343.671 364.417 342.072 362.386 342.072C362.386 342.072 356.24 342.259 353.58 338.018C353.329 337.608 353.15 337.155 353.045 336.691C352.978 336.372 352.906 335.968 352.893 335.581C352.874 334.906 353.31 334.291 353.998 334.043C355.572 333.457 359.382 332.354 363.795 333.216C367.737 335.291 374.756 334.006 377.29 333.44V333.445Z" fill="#0F3772"/>
<path d="M369.384 167.449L373.611 179.906C373.129 180.51 372.593 181.216 372.058 181.987L371.912 181.928L364.973 172.385L369.384 167.449Z" fill="#ED8945"/>
<path d="M360.236 209.242L367.46 212.047C366.236 213.193 364.649 214.176 362.67 214.484C361.473 211.444 360.308 209.375 360.236 209.242Z" fill="#ED8945"/>
<path d="M339.676 129.318C340.754 129.234 341.687 128.914 342.428 128.552C342.593 128.468 342.759 128.378 342.91 128.275C342.91 128.275 344.372 132.027 344.941 133.39L344.947 133.468C344.576 133.487 344.2 133.535 343.835 133.607L333.555 135.64L327.655 136.804L327.589 136.533C327.536 136.188 327.476 135.857 327.404 135.549H327.41L329.052 126.464L328.9 126.832C328.424 128.015 327.372 128.932 326.049 129.311L322.801 130.24L321.332 130.656C316.49 131.53 316.443 128.079 316.443 128.079L317.071 120.943L317.674 114.042L317.753 113.144C317.925 111.153 318.341 109.187 318.977 107.275L319.784 104.863L319.796 104.838C320.12 104.911 320.518 104.928 320.981 104.863C320.981 104.863 324.209 103.632 324.209 105.213L322.29 109.725C322.059 110.274 322.118 110.895 322.456 111.396L323.23 112.554C323.508 112.964 323.667 113.44 323.686 113.923L323.759 115.751C323.772 116.167 323.957 116.547 324.249 116.83C324.547 117.12 324.95 117.307 325.399 117.349C326.3 117.434 327.133 116.903 327.358 116.107L327.437 115.817C327.59 115.287 328.151 114.943 328.747 115.027C329.866 115.19 331.48 115.775 331.512 117.832H331.519C331.777 118.199 332.392 119.719 332.696 120.492C332.815 120.787 332.868 121.101 332.881 121.415C332.948 123.352 333.41 124.95 333.893 126.108C334.151 126.729 334.529 127.284 335.018 127.755C335.871 128.605 337.042 129.173 338.345 129.305C338.809 129.354 339.252 129.354 339.676 129.318Z" fill="#FFB380"/>
<path d="M338.544 335.395C341.779 340.462 340.35 347.948 339.848 350.095C339.749 350.511 339.497 350.892 339.113 351.145C336.825 352.671 333.007 352.653 330.765 352.477C329.766 352.399 328.813 352.146 327.893 351.802C323.858 350.27 318.281 350.915 318.281 350.915C307.571 352.236 302.027 349.359 300.201 348.128C299.712 347.79 299.434 347.236 299.546 346.687C300.029 344.388 303.37 343.918 303.37 343.918C314.298 342.615 323.606 335.944 323.606 335.944C327.643 337.808 335.964 336.016 338.544 335.395Z" fill="#0F3772"/>
<path d="M329.052 126.465L327.411 135.55H327.405C326.3 130.754 322.801 130.241 322.801 130.241L326.049 129.313C327.371 128.933 328.423 128.016 328.899 126.834L329.052 126.465Z" fill="#ED8945"/>
<path d="M325.202 207.634C325.605 207.906 325.876 208.328 325.922 208.817C325.929 208.865 325.929 208.913 325.929 208.962C325.929 209.795 325.234 210.513 324.302 210.597L322.826 210.729C322.198 209.704 321.734 208.63 321.457 207.496L323.978 207.315C324.434 207.278 324.864 207.406 325.202 207.634Z" fill="#FFB380"/>
<path d="M313.108 213.119L313.081 213.318L308.946 220.665C307.57 219.386 306.453 217.673 305.718 216.369C305.076 215.236 304.752 213.981 304.752 212.702V210.096C304.752 209.608 304.7 209.12 304.6 208.636L299.751 189.477C298.414 184.205 299.089 178.679 301.656 173.805L303.714 169.891C305.221 170.306 307.286 170.759 309.978 171.103C310.587 171.187 311.229 171.26 311.903 171.326L314.344 183.928L313.246 187.637C312.929 188.705 312.757 189.797 312.736 190.901C312.709 192.421 312.703 194.762 312.849 197.199C313.067 201.125 313.663 205.294 315.152 206.651C315.152 206.651 315.819 207.713 318.499 207.713L321.457 207.497C321.734 208.63 322.198 209.704 322.826 210.73L320.815 210.911C320.246 210.965 319.69 211.116 319.181 211.363L316.429 212.703C316.423 212.709 316.416 212.709 316.416 212.709C315.596 213.107 314.657 213.27 313.723 213.179L313.108 213.119Z" fill="#FFB380"/>
<path d="M317.971 171.684V171.702L314.345 183.929L311.904 171.328C313.684 171.504 315.703 171.63 317.971 171.684Z" fill="#ED8945"/>
<path d="M317.673 114.043L317.071 120.944L314.199 120.293L317.673 114.043Z" fill="#ED8945"/>
<path d="M308.947 220.663L313.082 213.316C312.837 216.2 312.751 219.289 312.805 222.485H312.792C311.382 222.485 310.079 221.725 308.947 220.663Z" fill="#ED8945"/>
<path d="M354.798 208.582C354.573 207.839 355.056 207.073 355.869 206.874L358.501 206.217C352.693 205.861 347.626 205.789 343.32 205.879C331.577 206.126 325.458 207.568 325.2 207.634C325.603 207.906 325.874 208.328 325.92 208.817C325.927 208.865 325.927 208.913 325.927 208.962C325.927 209.795 325.232 210.513 324.3 210.597L322.824 210.729L320.813 210.911C320.244 210.965 319.688 211.116 319.18 211.363L316.428 212.702C316.665 212.672 319.431 212.287 323.533 211.791C329.639 211.055 338.708 210.084 346.779 209.699C350.113 209.542 353.282 209.481 355.994 209.584C355.426 209.493 354.95 209.106 354.798 208.582Z" fill="#BC1B1B"/>
<path d="M374.849 159.635L374.003 158.188C373.883 158.326 372.038 160.486 369.882 162.947C367.493 165.68 364.709 168.779 363.498 169.884H363.492C363.393 170.747 363.261 171.597 363.088 172.447L362.572 175.071L364.974 172.38L369.386 167.446L371.238 165.371L374.651 161.552C375.133 161.01 375.213 160.25 374.849 159.635Z" fill="#BC1B1B"/>
<path d="M327.517 163.911C326.266 163.429 324.956 163.127 323.614 162.892C320.922 162.421 318.123 162.234 315.518 161.474C312.289 160.527 308.559 158.458 306.382 155.665L301.686 165.835C301.686 165.835 307.216 167.753 314.142 168.99C316.021 168.253 318.045 167.663 319.751 167.397C320.532 167.277 321.299 167.246 322.047 167.307C326.235 167.644 329.556 170.751 329.403 174.727C329.218 179.6 326.499 182.008 322.478 184.77C320.414 186.188 318.508 187.678 317.04 189.397C316.914 190.14 316.809 190.881 316.723 191.623C316.253 195.695 316.141 207.549 315.155 206.65C315.155 206.65 315.823 207.712 318.503 207.712L321.46 207.495C321.004 205.692 320.997 203.731 321.494 201.529C322.36 197.698 324.636 194.942 327.394 192.046C330.041 189.271 333.526 187.347 335.439 183.975C337.437 180.464 337.41 175.361 335.657 171.753C334.113 168.58 331.096 165.274 327.517 163.911ZM372.389 155.406C371.589 155.032 370.749 154.73 369.868 154.519C368.155 154.115 366.342 154.194 364.576 154.037C364.298 154.012 364.02 153.983 363.742 153.941C359.158 153.29 355.87 151.998 352.913 148.717C349.426 144.838 349.017 139.62 351.557 135.681L349.579 134.535C348.435 133.871 347.132 133.509 345.809 133.461C344.446 135.138 343.579 137.346 343.275 139.366C342.494 144.536 344.704 149.736 348.779 153.217C352.96 156.789 357.743 156.927 362.81 158.64C363.28 158.797 363.763 158.966 364.246 159.153C365.589 159.66 366.945 160.281 368.037 161.077C368.778 161.62 369.38 162.254 369.882 162.947C372.038 160.486 373.884 158.326 374.003 158.188L372.389 155.406ZM352.979 195.612C351.385 191.576 353.72 186.352 354.784 182.394C356.465 176.156 357.92 169.008 352.733 163.821C348.394 159.489 342.764 156.558 337.678 152.993C333.643 150.163 331.453 144.475 332.075 139.915C332.28 138.389 332.875 136.995 333.557 135.638L327.656 136.802L321.722 137.972C319.446 138.424 317.376 139.504 315.8 141.073L313.366 143.486C312.929 143.921 312.519 144.367 312.135 144.832C314.067 146.756 316.978 148.336 318.546 149.223C325.683 153.241 334.502 155.062 340.449 160.817C346.773 166.94 347.752 175.591 344.769 183.24C342.294 189.585 339.556 199.273 343.32 205.879C347.627 205.789 352.694 205.861 358.502 206.217L359.812 205.892V202.574C356.717 201.33 354.349 199.061 352.979 195.612Z" fill="#FC4C4C"/>
<path d="M329.402 174.729C329.554 170.754 326.233 167.647 322.046 167.31C321.299 167.249 320.531 167.279 319.75 167.4C318.044 167.666 316.02 168.256 314.141 168.993C316.324 169.391 318.646 169.711 320.982 169.885C320.486 171.013 320.155 171.707 320.155 171.707C319.804 171.707 319.46 171.707 319.116 171.701C319.116 171.701 319.242 177.909 317.217 188.368C317.151 188.713 317.091 189.056 317.038 189.4C318.507 187.681 320.412 186.191 322.476 184.773C326.499 182.01 329.217 179.603 329.402 174.729ZM368.036 161.078C366.944 160.282 365.588 159.66 364.245 159.154C363.762 158.967 363.279 158.798 362.809 158.641C357.742 156.928 352.959 156.789 348.778 153.218C344.703 149.738 342.493 144.537 343.274 139.367C343.578 137.346 344.445 135.139 345.808 133.462C345.524 133.444 345.232 133.444 344.947 133.468C344.576 133.485 344.2 133.534 343.835 133.607L333.556 135.64C332.874 136.997 332.279 138.391 332.074 139.916C331.452 144.476 333.642 150.165 337.677 152.994C342.763 156.559 348.393 159.491 352.732 163.823C357.919 169.01 356.463 176.158 354.783 182.396C353.719 186.353 351.383 191.577 352.978 195.613C354.347 199.064 356.716 201.333 359.811 202.575V191.584C359.811 189.931 359.97 188.284 360.294 186.655L362.569 175.073L363.085 172.448C363.257 171.598 363.39 170.747 363.489 169.885H363.495C364.706 168.781 367.49 165.68 369.879 162.948C369.379 162.255 368.776 161.621 368.036 161.078ZM363.742 153.942C364.02 153.984 364.298 154.014 364.576 154.038C366.342 154.195 368.155 154.116 369.868 154.52C370.748 154.731 371.588 155.033 372.389 155.407L367.368 146.768C366.144 144.669 364.298 142.926 362.036 141.738L351.557 135.681C349.017 139.62 349.427 144.838 352.913 148.717C355.87 151.999 359.158 153.291 363.742 153.942ZM318.547 149.225C316.979 148.338 314.069 146.757 312.136 144.833C311.026 146.154 310.099 147.602 309.391 149.14L306.381 155.668C308.558 158.46 312.288 160.53 315.517 161.477C318.123 162.237 320.922 162.424 323.613 162.895C324.957 163.13 326.266 163.431 327.516 163.914C331.095 165.277 334.112 168.583 335.653 171.756C337.406 175.363 337.432 180.467 335.434 183.978C333.522 187.35 330.036 189.274 327.39 192.049C324.632 194.945 322.356 197.701 321.489 201.532C320.994 203.733 321 205.694 321.456 207.498L323.977 207.316C324.433 207.28 324.863 207.407 325.201 207.636C325.459 207.569 331.578 206.128 343.32 205.881C339.556 199.275 342.295 189.587 344.769 183.242C347.752 175.592 346.773 166.942 340.449 160.819C334.503 155.064 325.685 153.241 318.547 149.225Z" fill="#FF654B"/>
<path d="M314.14 168.995C307.215 167.758 301.684 165.84 301.684 165.84L300.923 167.492C300.606 168.18 300.957 168.97 301.717 169.253C302.227 169.441 302.888 169.663 303.715 169.887V169.893C305.223 170.309 307.288 170.762 309.979 171.105C310.588 171.189 311.23 171.262 311.904 171.329C313.684 171.504 315.702 171.631 317.971 171.685C318.342 171.69 318.725 171.696 319.115 171.702C319.459 171.708 319.803 171.708 320.154 171.708C320.154 171.708 320.485 171.015 320.981 169.886C318.645 169.712 316.323 169.393 314.14 168.995Z" fill="#BC1B1B"/>
<path d="M326.889 121.736C327.887 121.769 328.863 121.565 329.606 121.085C330.33 120.578 330.809 119.819 331.035 118.999C331.218 118.203 331.306 117.277 330.927 116.54C330.57 115.781 329.7 115.278 328.748 115.027C329.248 115.033 329.75 115.14 330.226 115.338C330.693 115.548 331.118 115.885 331.384 116.321C331.665 116.747 331.784 117.245 331.819 117.72C331.839 117.96 331.801 118.195 331.793 118.433C331.788 118.667 331.743 118.923 331.675 119.151C331.41 120.071 330.816 120.961 329.89 121.475C328.95 121.975 327.836 121.999 326.889 121.736Z" fill="#C46627"/>
<path d="M375.65 177.594C375.03 178.397 374.441 179.207 373.846 180.01C373.296 180.841 372.689 181.637 372.129 182.455C371.021 184.105 370.027 185.801 369.123 187.582C369.531 185.646 370.454 183.823 371.564 182.142C372.147 181.312 372.786 180.52 373.431 179.734C374.104 178.966 374.839 178.242 375.65 177.594Z" fill="#C46627"/>
<path d="M350.775 217.25C351 219.826 350.832 222.426 350.444 224.991C350.06 227.561 349.362 230.09 348.422 232.543C347.444 234.982 346.182 237.342 344.548 239.474C344.156 240.011 343.661 240.517 343.317 241.03C342.962 241.566 342.796 242.152 342.728 242.801C342.516 244.075 342.328 245.352 342.096 246.626C342.179 245.339 342.303 244.053 342.405 242.765C342.433 242.13 342.595 241.43 342.952 240.844C343.122 240.544 343.346 240.271 343.541 240.014C343.74 239.751 343.937 239.485 344.124 239.216C345.642 237.067 346.883 234.756 347.8 232.338C348.776 229.94 349.456 227.445 349.943 224.919C350.191 223.657 350.388 222.384 350.519 221.104C350.673 219.825 350.753 218.54 350.775 217.25Z" fill="#002F68"/>
<path d="M367.46 206.218C366.542 206.046 365.712 205.769 364.874 205.522C364.033 205.264 363.237 205.015 362.327 204.845L362.32 204.842L362.327 204.839C362.766 204.673 363.255 204.652 363.721 204.685C364.192 204.714 364.644 204.823 365.085 204.95C365.523 205.088 365.946 205.256 366.345 205.467C366.742 205.676 367.126 205.913 367.46 206.218Z" fill="#C46627"/>
<path d="M322.826 210.731C322.336 210.844 321.841 210.918 321.349 211.012C320.845 211.088 320.379 211.16 319.939 211.323C319.719 211.402 319.51 211.497 319.305 211.603L318.653 211.944L317.335 212.604C316.888 212.807 316.466 213.049 315.946 213.212C315.439 213.364 314.907 213.451 314.378 213.437C313.839 213.432 313.348 213.32 312.857 213.243C312.366 213.143 311.872 213.063 311.383 212.945C311.888 212.927 312.389 212.949 312.893 212.949C313.397 212.956 313.899 213.002 314.363 212.966C314.834 212.926 315.298 212.839 315.731 212.676C316.154 212.529 316.587 212.283 317.03 212.07L318.361 211.441L319.033 211.138C319.27 211.029 319.522 210.942 319.776 210.878C320.285 210.736 320.825 210.724 321.316 210.72C321.819 210.724 322.321 210.709 322.826 210.731Z" fill="#C46627"/>
<path d="M346.568 102.884C345.714 102.631 345.067 101.992 344.901 101.189C343.81 95.7177 338.498 94.3183 336.288 93.9741C335.686 93.878 335.316 93.8594 335.316 93.8594C331.141 93.3161 327.992 93.5221 325.631 94.1006C321.774 95.0293 319.988 96.9475 319.194 98.239C318.739 98.999 318.613 99.5364 318.613 99.5364C318.613 99.5364 317.183 104.205 319.797 104.839C320.12 104.911 320.518 104.929 320.981 104.863C320.981 104.863 324.209 103.633 324.209 105.213L322.291 109.725C322.059 110.274 322.119 110.895 322.456 111.396L323.231 112.555C323.508 112.964 323.667 113.441 323.687 113.923L323.76 115.751C323.773 116.167 323.958 116.548 324.249 116.831C324.547 117.12 324.95 117.308 325.4 117.35C326.3 117.434 327.133 116.904 327.358 116.107L327.438 115.818C327.59 115.288 328.152 114.943 328.747 115.028C329.866 115.19 331.48 115.776 331.512 117.832H331.519C331.777 118.2 332.392 119.72 332.696 120.493C332.816 120.788 332.868 121.102 332.881 121.416C332.948 123.352 333.41 124.951 333.893 126.109C334.151 126.731 334.528 127.286 335.018 127.756C335.871 128.606 337.042 129.174 338.346 129.306C338.809 129.354 339.252 129.354 339.675 129.318C340.753 129.233 341.686 128.914 342.427 128.552C342.592 128.467 342.758 128.376 342.91 128.274C343.77 127.713 344.398 126.899 344.663 125.952C345.026 124.631 345.807 122.803 346.396 121.513C346.753 120.722 347.183 119.962 347.752 119.281C348.13 118.829 348.48 118.304 348.804 117.761C349.585 116.457 350.187 115.028 350.53 114.153C350.748 113.592 350.901 113.007 350.979 112.416C351.953 105.557 348.613 103.499 346.568 102.884Z" fill="#103772"/>
<path d="M348.888 117.618V117.61C348.988 114.967 348.606 112.407 347.761 110.17C347.279 108.878 346.298 107.593 344.862 106.367C344.617 106.151 344.344 105.961 344.09 105.788C343.554 105.415 343.045 105.059 342.736 104.487C342.191 103.493 341.973 102.416 341.764 101.381C341.474 99.9302 341.174 98.4396 340.02 97.1137C339.048 96.0036 337.703 94.8269 336.486 94.0149L336.104 93.957C336.149 93.9815 336.195 94.0071 336.241 94.0404C337.74 95.0181 339.102 96.3184 339.893 97.2138C341.02 98.5063 341.319 99.9812 341.601 101.406C341.819 102.458 342.037 103.544 342.583 104.554C342.909 105.159 343.436 105.523 343.99 105.904C344.245 106.087 344.509 106.269 344.754 106.476C346.171 107.694 347.135 108.953 347.607 110.221C348.461 112.475 348.843 115.084 348.724 117.76C348.724 117.81 348.716 117.859 348.716 117.909V117.917L348.888 117.618ZM339.783 129.308C342.164 125.845 343.435 120.808 342.936 116.748C342.555 113.658 341.782 110.145 338.902 107.535C338.676 107.319 338.457 107.137 338.257 106.963C337.33 106.159 336.767 105.679 336.513 104.378C336.468 104.146 336.423 103.915 336.376 103.691C335.976 101.57 335.559 99.383 333.696 97.8992C331.679 96.2753 329.308 95.0828 326.464 94.2453C326.228 94.1708 326.01 94.113 325.801 94.0629L325.474 94.1463C325.519 94.1541 325.565 94.163 325.61 94.1796C325.865 94.2297 326.129 94.3042 326.409 94.3866C329.236 95.2152 331.579 96.3998 333.587 98.0159C335.404 99.4663 335.813 101.629 336.213 103.716C336.258 103.949 336.304 104.172 336.349 104.404C336.613 105.754 337.195 106.251 338.149 107.071C338.349 107.245 338.557 107.427 338.794 107.643C340.383 109.085 342.101 111.305 342.774 116.765C343.274 120.808 341.992 125.837 339.603 129.276C339.594 129.293 339.576 129.309 339.566 129.326L339.783 129.308ZM335.086 127.817C335.086 127.809 335.086 127.8 335.094 127.792C337.629 123.177 337.766 117.734 335.494 112.473C334.931 111.197 334.322 110.186 333.16 109.39C332.951 109.258 332.714 109.142 332.478 109.035C332.042 108.835 331.597 108.636 331.361 108.239C330.97 107.61 331.034 106.649 331.088 105.729C331.125 105.082 331.162 104.477 331.062 103.98C330.635 102.049 329.172 99.6222 326.855 98.5533C324.802 97.609 322.275 97.4099 319.749 97.9904C319.631 98.015 319.476 98.065 319.259 98.1395L319.249 98.164L319.141 98.3464C319.168 98.3297 319.195 98.3219 319.222 98.3131C319.486 98.2219 319.659 98.1719 319.786 98.1385C322.284 97.5668 324.765 97.7571 326.781 98.6857C329.053 99.738 330.48 102.116 330.897 104.013C330.997 104.485 330.961 105.082 330.924 105.719C330.861 106.663 330.806 107.641 331.214 108.312C331.478 108.742 331.95 108.958 332.405 109.174C332.641 109.282 332.868 109.381 333.059 109.513C334.204 110.284 334.776 111.236 335.34 112.529C337.593 117.74 337.457 123.118 334.958 127.69L335.086 127.817Z" fill="#0F55BA"/>
<path d="M364.244 159.152C364.266 161.161 364.154 163.162 364.01 165.161C363.877 167.16 363.648 169.152 363.399 171.142C363.128 173.129 362.827 175.114 362.432 177.085C362.04 179.058 361.601 181.024 361.02 182.961C361.093 181.957 361.24 180.967 361.324 179.968L361.68 176.987C361.897 174.999 362.171 173.019 362.42 171.035C362.692 169.053 362.946 167.07 363.257 165.091L363.713 162.121C363.898 161.131 364.044 160.14 364.244 159.152Z" fill="#840606"/>
<path d="M320.152 171.707C320.59 169.537 321.313 167.46 322.102 165.405C322.92 163.359 323.808 161.336 324.981 159.406C324.544 161.576 323.823 163.653 323.031 165.708C322.212 167.753 321.325 169.776 320.152 171.707Z" fill="#840606"/>
</svg>
