<svg width="24" height="24" viewBox="0 0 24 24" fill="none" xmlns="http://www.w3.org/2000/svg">
<path d="M20.2401 7.18055L19.3774 6.99249C19.2906 6.70799 19.1743 6.42751 19.0373 6.16391L19.5144 5.41006C19.5893 5.33451 19.6267 5.23807 19.6267 5.13358C19.6267 5.02909 19.5853 4.92864 19.5144 4.85711L18.365 3.69741C18.2112 3.5423 17.9667 3.5423 17.813 3.69741L17.0658 4.1788C16.8045 4.03655 16.5265 3.92323 16.2445 3.83562L16.0581 2.96524C16.0167 2.76833 15.8924 2.57143 15.6678 2.57143H14.0452C13.8214 2.57143 13.6963 2.76833 13.6549 2.96524L13.4685 3.83562C13.1865 3.92322 12.9085 4.04056 12.6472 4.1788L11.9001 3.69741C11.7463 3.5423 11.5018 3.5423 11.348 3.69741L10.1986 4.85711C10.0449 5.01222 10.0449 5.25894 10.1986 5.41405L10.6757 6.16307C10.5348 6.42666 10.4224 6.70715 10.3356 6.99165L9.47292 7.17971C9.27776 7.2215 9.0826 7.34687 9.0826 7.57352V9.2106C9.0826 9.43644 9.27775 9.5626 9.47292 9.60441L10.3356 9.79247C10.4224 10.077 10.5387 10.3575 10.6757 10.621L10.1986 11.3701C10.1237 11.4456 10.0863 11.5421 10.0863 11.6465C10.0863 11.751 10.1277 11.8515 10.1986 11.923L11.348 13.0827C11.5018 13.2378 11.7463 13.2378 11.9001 13.0827L12.6472 12.6013C12.9085 12.7436 13.1865 12.8569 13.4685 12.9445L13.6549 13.8149C13.6963 14.0118 13.8206 14.2087 14.0452 14.2087H15.6678C15.8916 14.2087 16.0167 14.0118 16.0581 13.8149L16.2445 12.9445C16.5265 12.8569 16.8045 12.7396 17.0658 12.6013L17.8177 13.0867C17.9715 13.2419 18.216 13.2419 18.3697 13.0867L19.5192 11.927C19.6729 11.7719 19.6729 11.5252 19.5192 11.3701L19.042 10.6163C19.183 10.3527 19.2954 10.0722 19.3822 9.78767L20.2449 9.59961C20.44 9.55782 20.6352 9.43245 20.6352 9.2058V7.56872C20.6304 7.34772 20.4353 7.22234 20.2401 7.18055ZM14.8593 11.1363C13.3577 11.1363 12.1373 9.9059 12.1373 8.3901C12.1373 6.87517 13.3569 5.64387 14.8593 5.64387C16.3608 5.64387 17.5812 6.87431 17.5812 8.3901C17.5812 9.9059 16.3569 11.1363 14.8593 11.1363Z" fill="#726C6C"/>
<path d="M10.7888 15.5227L10.1667 15.3845C10.1045 15.1795 10.0217 14.9786 9.92213 14.7898L10.2662 14.2497C10.3738 14.1412 10.3738 13.9612 10.2662 13.8519L9.44021 13.0185C9.33267 12.91 9.15425 12.91 9.04591 13.0185L8.51062 13.3656C8.32422 13.2652 8.12508 13.1816 7.92116 13.1189L7.78415 12.4912C7.75548 12.353 7.66387 12.2108 7.50615 12.2108H6.33997C6.18225 12.2108 6.09064 12.353 6.06197 12.4912L5.92496 13.1189C5.72183 13.1816 5.52268 13.2652 5.3355 13.3656L4.80021 13.0185C4.69268 12.91 4.51426 12.91 4.40591 13.0185L3.58626 13.8527C3.47872 13.9612 3.47872 14.1412 3.58626 14.2505L3.93037 14.7906C3.8308 14.9786 3.74796 15.1795 3.68583 15.3853L3.06371 15.5195C2.9267 15.5484 2.78571 15.6408 2.78571 15.8V16.9798C2.78571 17.1389 2.9267 17.2313 3.06371 17.2603L3.68583 17.3945C3.74796 17.5994 3.83081 17.8003 3.93037 17.9892L3.58626 18.5325C3.47872 18.641 3.47872 18.821 3.58626 18.9303L4.4123 19.7637C4.51983 19.8722 4.69825 19.8722 4.8066 19.7637L5.34189 19.4165C5.52828 19.517 5.72742 19.6006 5.93134 19.6632L6.06835 20.2909C6.09702 20.4292 6.18863 20.5714 6.34635 20.5714H7.51253C7.67025 20.5714 7.76187 20.4292 7.79054 20.2909L7.92356 19.6632C8.12669 19.6006 8.32584 19.517 8.51301 19.4165L9.0483 19.7637C9.11442 19.8184 9.15186 19.8473 9.24744 19.8473C9.32232 19.8473 9.39242 19.8184 9.44659 19.7637L10.2726 18.9303C10.3802 18.8218 10.3802 18.6418 10.2726 18.5325L9.92851 17.9924C10.0281 17.8043 10.1109 17.6034 10.1731 17.3977L10.7952 17.2595C10.9322 17.2305 11.0732 17.1381 11.0732 16.979V15.8024C11.0708 15.6449 10.9298 15.5525 10.7888 15.5227ZM6.92634 18.3613C5.84778 18.3613 4.97238 17.4781 4.97238 16.3899C4.97238 15.3017 5.84781 14.4185 6.92634 14.4185C8.00489 14.4185 8.8803 15.3017 8.8803 16.3899C8.8803 17.4781 8.00487 18.3613 6.92634 18.3613Z" fill="#726C6C"/>
</svg>
