<svg width="24" height="24" viewBox="0 0 24 24" fill="none" xmlns="http://www.w3.org/2000/svg">
<path d="M14.3342 18.336C15.0925 18.5559 15.878 18.6672 16.6675 18.6666C17.9374 18.6697 19.1908 18.3801 20.3306 17.8204C20.333 17.7695 20.3342 17.7182 20.3342 17.6666C20.3343 16.8825 20.083 16.1191 19.6172 15.4883C19.1515 14.8575 18.4958 14.3927 17.7464 14.162C16.997 13.9313 16.1934 13.9469 15.4535 14.2065C14.7136 14.4661 14.0765 14.956 13.6355 15.6044M14.3342 18.336V18.3333C14.3342 17.344 14.0809 16.4133 13.6355 15.6044M14.3342 18.336V18.4302C12.6238 19.4613 10.6638 20.0042 8.66666 20C6.59466 20 4.656 19.4266 3.00089 18.4302L3 18.3333C2.99932 17.0751 3.41743 15.8524 4.18843 14.858C4.95942 13.8636 6.03944 13.1541 7.25821 12.8414C8.47697 12.5287 9.76517 12.6305 10.9197 13.1307C12.0742 13.631 13.0303 14.5013 13.6355 15.6044M11.6675 7C11.6675 7.79564 11.3515 8.5587 10.7889 9.12131C10.2263 9.68392 9.4632 9.99999 8.66755 9.99999C7.8719 9.99999 7.10884 9.68392 6.54623 9.12131C5.98362 8.5587 5.66755 7.79564 5.66755 7C5.66755 6.20435 5.98362 5.44129 6.54623 4.87868C7.10884 4.31607 7.8719 4 8.66755 4C9.4632 4 10.2263 4.31607 10.7889 4.87868C11.3515 5.44129 11.6675 6.20435 11.6675 7ZM19.0009 8.99999C19.0009 9.61883 18.755 10.2123 18.3175 10.6499C17.8799 11.0875 17.2864 11.3333 16.6675 11.3333C16.0487 11.3333 15.4552 11.0875 15.0176 10.6499C14.58 10.2123 14.3342 9.61883 14.3342 8.99999C14.3342 8.38116 14.58 7.78766 15.0176 7.35008C15.4552 6.91249 16.0487 6.66666 16.6675 6.66666C17.2864 6.66666 17.8799 6.91249 18.3175 7.35008C18.755 7.78766 19.0009 8.38116 19.0009 8.99999Z" stroke="#726C6C" stroke-width="2" stroke-linecap="round" stroke-linejoin="round"/>
</svg>
