<svg width="24" height="24" viewBox="0 0 24 24" fill="none" xmlns="http://www.w3.org/2000/svg">
<path d="M4.4841 13.5753L4.43598 13.8163L4.26794 14.658L4.48596 13.5679L4.48574 13.5675C4.00163 12.6174 3.74949 11.5661 3.74999 10.4998L4.4841 13.5753ZM4.4841 13.5753L4.38023 13.3526M4.4841 13.5753L4.38023 13.3526M12.1285 3.95091C10.9955 3.66921 9.80337 3.68508 8.66993 4.00434C7.25415 4.40312 6.00737 5.25344 5.11927 6.42594C4.23121 7.59839 3.75041 9.02882 3.74999 10.4996L12.1285 3.95091ZM12.1285 3.95091C11.5975 3.81836 11.0506 3.75048 10.4998 3.75L12.1285 3.95091ZM4.38023 13.3526C3.90053 12.3238 3.68802 11.1906 3.76236 10.0579C3.83669 8.92527 4.19548 7.82962 4.80552 6.87236C5.41557 5.9151 6.25717 5.12715 7.25248 4.58139C8.24767 4.03569 9.3644 3.74974 10.4994 3.75L4.38023 13.3526ZM6.48265 16.7037L7.43116 16.5139L7.43165 16.5138L7.43212 16.5141C7.88631 16.7458 8.36243 16.9239 8.85102 17.047C8.43781 16.9433 8.03408 16.8004 7.64549 16.6195L7.42288 16.5159L7.18209 16.564L6.48265 16.7037ZM12.1386 20.1129C12.2244 20.1306 12.3103 20.1466 12.3964 20.1608C12.3099 20.1466 12.2237 20.1307 12.1379 20.1131C12.1381 20.113 12.1384 20.113 12.1386 20.1129ZM19.514 16.5679C19.7383 16.1285 19.9121 15.6689 20.0346 15.1977C19.932 15.594 19.7933 15.9813 19.6195 16.3545L19.5159 16.5771L19.5601 16.7982L19.514 16.5679L19.514 16.5679ZM16.5688 19.5139L18.0287 19.8061L16.8163 19.564L16.5756 19.5159L16.353 19.6195C16.1368 19.7202 15.9158 19.8091 15.6912 19.886C15.9903 19.7833 16.2833 19.6593 16.5679 19.514L16.5683 19.5138L16.5688 19.5139Z" stroke="#726C6C" stroke-width="1.5"/>
</svg>
