<svg width="24" height="24" viewBox="0 0 24 24" fill="none" xmlns="http://www.w3.org/2000/svg">
<path d="M17.0012 20.475H17C16.8429 20.475 16.7351 20.4273 16.6422 20.3341C16.5481 20.2397 16.5004 20.131 16.5 19.9752C16.5 19.9751 16.5 19.9749 16.5 19.9748L16.5 17.976V17.476H16H14C13.8429 17.476 13.7351 17.4283 13.6422 17.3351C13.5483 17.2409 13.5004 17.1319 13.5 16.9748C13.4996 16.8196 13.5468 16.712 13.6409 16.6182C13.7361 16.5233 13.8449 16.476 14 16.476H16H16.5V15.976V13.976C16.5 13.8189 16.5477 13.7111 16.6409 13.6182C16.7352 13.5243 16.8441 13.4764 17.0012 13.476C17.1564 13.4756 17.2647 13.5228 17.3594 13.6176C17.4541 13.7122 17.5007 13.8198 17.5 13.9736V13.976V15.976V16.476H18H20C20.1572 16.476 20.2657 16.5238 20.3594 16.6176C20.4532 16.7113 20.5004 16.8191 20.5 16.9748C20.4996 17.1319 20.4517 17.2416 20.3572 17.3367C20.2648 17.4297 20.1582 17.4767 20.0024 17.476H20H18H17.5V17.976V19.976C17.5 20.1332 17.4522 20.2417 17.3585 20.3354C17.2656 20.4283 17.1583 20.4754 17.0012 20.475ZM10.5024 17.5H10.5H8C7.84287 17.5 7.73505 17.4523 7.64217 17.3591C7.54829 17.2649 7.50037 17.1559 7.5 16.9988C7.49964 16.8436 7.54677 16.736 7.64094 16.6422C7.73612 16.5473 7.84488 16.5 8 16.5H10.5C10.6572 16.5 10.7657 16.5478 10.8595 16.6416C10.9532 16.7353 11.0004 16.8431 11 16.9988C10.9996 17.1559 10.9517 17.2656 10.8572 17.3607C10.7648 17.4537 10.6582 17.5007 10.5024 17.5ZM10.5024 13.5H10.5H8C7.84287 13.5 7.73505 13.4523 7.64217 13.3591C7.54829 13.2649 7.50037 13.1559 7.5 12.9988C7.49964 12.8436 7.54677 12.736 7.64094 12.6422C7.73612 12.5473 7.84488 12.5 8 12.5H10.5C10.6572 12.5 10.7657 12.5478 10.8595 12.6416C10.9532 12.7353 11.0004 12.8431 11 12.9988C10.9996 13.1559 10.9517 13.2656 10.8572 13.3607C10.7648 13.4537 10.6582 13.5007 10.5024 13.5ZM18.0024 9.5H18H8C7.84287 9.5 7.73505 9.45227 7.64217 9.35906C7.54829 9.26485 7.50037 9.15588 7.5 8.99882C7.49964 8.84363 7.54677 8.73601 7.64094 8.64217C7.73612 8.54732 7.84488 8.5 8 8.5H18C18.1572 8.5 18.2657 8.54777 18.3595 8.64155C18.4532 8.73528 18.5004 8.84308 18.5 8.99882C18.4996 9.1559 18.4517 9.26557 18.3572 9.36068C18.2648 9.45372 18.1582 9.50074 18.0024 9.5ZM18.0024 5.5H18H8C7.84287 5.5 7.73505 5.45227 7.64217 5.35906C7.54829 5.26485 7.50037 5.15588 7.5 4.99882C7.49964 4.84363 7.54677 4.73601 7.64094 4.64217C7.73612 4.54732 7.84488 4.5 8 4.5H18C18.1572 4.5 18.2657 4.54777 18.3595 4.64155C18.4532 4.73528 18.5004 4.84308 18.5 4.99882C18.4996 5.1559 18.4517 5.26557 18.3572 5.36068C18.2648 5.45372 18.1582 5.50074 18.0024 5.5ZM4.00235 5.50001V5.5H4C3.84287 5.5 3.73505 5.45227 3.64217 5.35906C3.54829 5.26485 3.50037 5.15588 3.5 4.99882C3.49964 4.84363 3.54677 4.73601 3.64094 4.64217C3.73612 4.54732 3.84488 4.5 4 4.5C4.15514 4.5 4.2646 4.54736 4.36068 4.64277C4.45469 4.73614 4.5011 4.84259 4.50002 4.99646C4.49889 5.1554 4.45016 5.26643 4.35599 5.36192C4.26588 5.4533 4.1602 5.50074 4.00235 5.50001ZM4.00235 9.50001V9.5H4C3.84287 9.5 3.73505 9.45227 3.64217 9.35906C3.54829 9.26485 3.50037 9.15588 3.5 8.99882C3.49964 8.84363 3.54677 8.73601 3.64094 8.64217C3.73612 8.54732 3.84488 8.5 4 8.5C4.15514 8.5 4.2646 8.54736 4.36068 8.64277C4.45469 8.73614 4.5011 8.84259 4.50002 8.99646C4.49889 9.1554 4.45016 9.26643 4.35599 9.36192C4.26588 9.4533 4.1602 9.50074 4.00235 9.50001ZM4.00235 13.5H4C3.84287 13.5 3.73505 13.4523 3.64217 13.3591C3.54829 13.2649 3.50037 13.1559 3.5 12.9988C3.49964 12.8436 3.54677 12.736 3.64094 12.6422C3.73612 12.5473 3.84488 12.5 4 12.5C4.15515 12.5 4.2646 12.5474 4.36067 12.6428C4.45469 12.7361 4.5011 12.8426 4.50002 12.9965C4.49889 13.1554 4.45016 13.2664 4.35599 13.3619C4.26588 13.4533 4.1602 13.5007 4.00235 13.5ZM4.00235 17.5H4C3.84287 17.5 3.73505 17.4523 3.64217 17.3591C3.54829 17.2649 3.50037 17.1559 3.5 16.9988C3.49964 16.8436 3.54677 16.736 3.64094 16.6422C3.73612 16.5473 3.84488 16.5 4 16.5C4.15515 16.5 4.2646 16.5474 4.36067 16.6428C4.45469 16.7361 4.5011 16.8426 4.50002 16.9965C4.49889 17.1554 4.45016 17.2664 4.35599 17.3619C4.26588 17.4533 4.1602 17.5007 4.00235 17.5Z" stroke="#726C6C"/>
</svg>
