<svg width="24" height="24" viewBox="0 0 24 24" fill="none" xmlns="http://www.w3.org/2000/svg">
<path d="M5 6.25H4.5V6.75V8.9725V9.26237L4.75155 9.40641C5.67981 9.93791 6.25 10.9267 6.25 12C6.25 13.0733 5.67981 14.0621 4.75155 14.5936L4.5 14.7376V15.0275V17.25V17.75H5H19H19.5V17.25V15.0275V14.7376L19.2484 14.5936C18.3202 14.0621 17.75 13.0733 17.75 12C17.75 10.9267 18.3202 9.93791 19.2484 9.40641L19.5 9.26237V8.9725V6.75V6.25H19H5ZM4.11612 5.86612C4.35054 5.6317 4.66848 5.5 5 5.5H19C19.3315 5.5 19.6495 5.6317 19.8839 5.86612C20.1183 6.10054 20.25 6.41848 20.25 6.75V9.80625C19.8401 9.89969 19.461 10.107 19.159 10.409C18.7371 10.831 18.5 11.4033 18.5 12C18.5 12.5967 18.7371 13.169 19.159 13.591C19.461 13.893 19.8401 14.1003 20.25 14.1937V17.25C20.25 17.5815 20.1183 17.8995 19.8839 18.1339C19.6495 18.3683 19.3315 18.5 19 18.5H5C4.66848 18.5 4.35054 18.3683 4.11612 18.1339C3.8817 17.8995 3.75 17.5815 3.75 17.25V14.1937C4.15991 14.1003 4.53896 13.893 4.84099 13.591C5.26295 13.169 5.5 12.5967 5.5 12C5.5 11.4033 5.26295 10.831 4.84099 10.409C4.53896 10.107 4.15991 9.89969 3.75 9.80625V6.75C3.75 6.41848 3.8817 6.10054 4.11612 5.86612Z" stroke="#726C6C"/>
</svg>
