<svg width="24" height="24" viewBox="0 0 24 24" fill="none" xmlns="http://www.w3.org/2000/svg">
<path d="M18.8625 19.3625H19.3625V18.8625V17.625C19.3625 17.3445 19.2021 17.1215 19.0757 16.9816C18.9348 16.8256 18.7474 16.6762 18.5377 16.5363C18.1155 16.2544 17.5352 15.9661 16.8641 15.7072C15.5218 15.1895 13.7448 14.7625 12 14.7625C10.2552 14.7625 8.47815 15.1895 7.13585 15.7072C6.46483 15.9661 5.88451 16.2544 5.46229 16.5363C5.25264 16.6762 5.06518 16.8256 4.92429 16.9816C4.79789 17.1215 4.6375 17.3445 4.6375 17.625V18.8625V19.3625H5.1375H18.8625ZM14.8625 7.5C14.8625 5.91886 13.5811 4.6375 12 4.6375C10.4189 4.6375 9.1375 5.91886 9.1375 7.5C9.1375 9.08114 10.4189 10.3625 12 10.3625C13.5811 10.3625 14.8625 9.08114 14.8625 7.5ZM8 7.5C8 5.28989 9.78989 3.5 12 3.5C14.2101 3.5 16 5.28989 16 7.5C16 9.71011 14.2101 11.5 12 11.5C9.78989 11.5 8 9.71011 8 7.5ZM3.5 17.625C3.5 17.0605 3.7788 16.5291 4.32296 16.0268C4.87052 15.5215 5.65278 15.0802 6.55953 14.717C8.37383 13.9901 10.5606 13.625 12 13.625C13.4394 13.625 15.6262 13.9901 17.4405 14.717C18.3472 15.0802 19.1295 15.5215 19.677 16.0268C20.2212 16.5291 20.5 17.0605 20.5 17.625V20C20.5 20.2761 20.2761 20.5 20 20.5H4C3.72386 20.5 3.5 20.2761 3.5 20V17.625Z" fill="#726C6C" stroke="#726C6C"/>
</svg>
