<svg width="24" height="24" viewBox="0 0 24 24" fill="none" xmlns="http://www.w3.org/2000/svg">
<path fill-rule="evenodd" clip-rule="evenodd" d="M7.40494 4.9C7.45511 5.40533 7.88147 5.8 8.4 5.8C8.91853 5.8 9.34489 5.40533 9.39506 4.9H13.7049C13.7551 5.40533 14.1815 5.8 14.7 5.8C15.2185 5.8 15.6449 5.40533 15.6951 4.9H16.5C17.1896 4.9 17.8509 5.17393 18.3385 5.66152C18.8025 6.1255 19.073 6.74677 19.0981 7.4H4.00192C4.02704 6.74677 4.29755 6.1255 4.76152 5.66152C5.24912 5.17393 5.91044 4.9 6.6 4.9H7.40494ZM2 15.6C2 16.82 2.48464 17.99 3.34731 18.8527C4.20998 19.7154 5.38 20.2 6.6 20.2H9.3C9.85228 20.2 10.3 19.7523 10.3 19.2C10.3 18.6477 9.85228 18.2 9.3 18.2H6.6C5.91044 18.2 5.24912 17.9261 4.76152 17.4385C4.27393 16.9509 4 16.2896 4 15.6V9.4H19.1V10.2C19.1 10.7523 19.5477 11.2 20.1 11.2C20.6523 11.2 21.1 10.7523 21.1 10.2V7.5C21.1 6.28 20.6154 5.10998 19.7527 4.24731C18.89 3.38464 17.72 2.9 16.5 2.9H15.6951C15.6449 2.39467 15.2185 2 14.7 2C14.1815 2 13.7551 2.39467 13.7049 2.9H9.39506C9.34489 2.39467 8.91853 2 8.4 2C7.88147 2 7.45511 2.39467 7.40494 2.9H6.6C5.38 2.9 4.20998 3.38464 3.34731 4.24731C2.48464 5.10998 2 6.28 2 7.5V15.6ZM18.5571 14.5716C18.9476 14.9621 18.9476 15.5953 18.5571 15.9858L17.2071 17.3358C16.8166 17.7263 16.1834 17.7263 15.7929 17.3358C15.4024 16.9453 15.4024 16.3121 15.7929 15.9216L17.1429 14.5716C17.5334 14.1811 18.1666 14.1811 18.5571 14.5716Z" fill="#726C6C"/>
<path fill-rule="evenodd" clip-rule="evenodd" d="M16.5 13C14.567 13 13 14.567 13 16.5C13 18.433 14.567 20 16.5 20C18.433 20 20 18.433 20 16.5C20 14.567 18.433 13 16.5 13ZM11 16.5C11 13.4624 13.4624 11 16.5 11C19.5376 11 22 13.4624 22 16.5C22 19.5376 19.5376 22 16.5 22C13.4624 22 11 19.5376 11 16.5Z" fill="#726C6C"/>
</svg>
